PowerhouseFilarTrio-RegularItalic.ufo
<glyph name="quotedbl" format="2">
  <advance width="600"/>
  <unicode hex="0022"/>
  <outline>
    <contour>
      <point x="236" y="700" type="line"/>
      <point x="206" y="412" type="line"/>
      <point x="273" y="412" type="line"/>
      <point x="345" y="700" type="line"/>
    </contour>
    <contour>
      <point x="416" y="700" type="line"/>
      <point x="386" y="412" type="line"/>
      <point x="453" y="412" type="line"/>
      <point x="525" y="700" type="line"/>
    </contour>
  </outline>
</glyph>
<glyph name="dollar" format="2">
  <advance width="600"/>
  <unicode hex="0024"/>
  <outline>
    <contour>
      <point x="60" y="196" type="curve"/>
      <point x="147" y="189" type="line"/>
      <point x="147" y="187"/>
      <point x="147" y="186"/>
      <point x="147" y="184" type="curve" smooth="yes"/>
      <point x="147" y="116"/>
      <point x="195" y="64"/>
      <point x="286" y="64" type="curve" smooth="yes"/>
      <point x="381" y="64"/>
      <point x="438" y="121"/>
      <point x="438" y="200" type="curve" smooth="yes"/>
      <point x="438" y="261"/>
      <point x="401" y="285"/>
      <point x="345" y="304" type="curve" smooth="yes"/>
      <point x="282" y="325" type="line" smooth="yes"/>
      <point x="188" y="356"/>
      <point x="131" y="406"/>
      <point x="131" y="494" type="curve" smooth="yes"/>
      <point x="131" y="609"/>
      <point x="219" y="712"/>
      <point x="368" y="712" type="curve" smooth="yes"/>
      <point x="470" y="712"/>
      <point x="563" y="649"/>
      <point x="563" y="535" type="curve" smooth="yes"/>
      <point x="563" y="531"/>
      <point x="563" y="529"/>
      <point x="563" y="525" type="curve"/>
      <point x="479" y="532" type="line"/>
      <point x="480" y="593"/>
      <point x="436" y="636"/>
      <point x="360" y="636" type="curve" smooth="yes"/>
      <point x="270" y="636"/>
      <point x="214" y="578"/>
      <point x="214" y="508" type="curve" smooth="yes"/>
      <point x="214" y="454"/>
      <point x="249" y="425"/>
      <point x="318" y="402" type="curve" smooth="yes"/>
      <point x="381" y="381" type="line" smooth="yes"/>
      <point x="474" y="350"/>
      <point x="524" y="297"/>
      <point x="524" y="210" type="curve" smooth="yes"/>
      <point x="524" y="110"/>
      <point x="464" y="-12"/>
      <point x="280" y="-12" type="curve" smooth="yes"/>
      <point x="130" y="-12"/>
      <point x="59" y="81"/>
      <point x="59" y="182" type="curve" smooth="yes"/>
      <point x="59" y="187"/>
      <point x="59" y="189"/>
    </contour>
    <contour>
      <point x="203" y="-112" type="line"/>
      <point x="285" y="353" type="line"/>
      <point x="293" y="384" type="line"/>
      <point x="366" y="797" type="line"/>
      <point x="434" y="797" type="line"/>
      <point x="358" y="366" type="line"/>
      <point x="351" y="342" type="line"/>
      <point x="271" y="-112" type="line"/>
    </contour>
  </outline>
</glyph>
<glyph name="percent" format="2">
  <advance width="680"/>
  <unicode hex="0025"/>
  <outline>
    <contour>
      <point x="247" y="640" type="curve" smooth="yes"/>
      <point x="278" y="640"/>
      <point x="295" y="616"/>
      <point x="295" y="572" type="curve" smooth="yes"/>
      <point x="295" y="516"/>
      <point x="269" y="448"/>
      <point x="217" y="448" type="curve" smooth="yes"/>
      <point x="186" y="448"/>
      <point x="169" y="472"/>
      <point x="169" y="516" type="curve" smooth="yes"/>
      <point x="169" y="572"/>
      <point x="195" y="640"/>
    </contour>
    <contour>
      <point x="501" y="252" type="curve" smooth="yes"/>
      <point x="532" y="252"/>
      <point x="549" y="228"/>
      <point x="549" y="184" type="curve" smooth="yes"/>
      <point x="549" y="128"/>
      <point x="523" y="60"/>
      <point x="471" y="60" type="curve" smooth="yes"/>
      <point x="440" y="60"/>
      <point x="423" y="84"/>
      <point x="423" y="128" type="curve" smooth="yes"/>
      <point x="423" y="184"/>
      <point x="449" y="252"/>
    </contour>
    <contour>
      <point x="255" y="705" type="curve" smooth="yes"/>
      <point x="155" y="705"/>
      <point x="97" y="604"/>
      <point x="97" y="513" type="curve" smooth="yes"/>
      <point x="97" y="432"/>
      <point x="143" y="383"/>
      <point x="209" y="383" type="curve" smooth="yes"/>
      <point x="309" y="383"/>
      <point x="367" y="484"/>
      <point x="367" y="575" type="curve" smooth="yes"/>
      <point x="367" y="656"/>
      <point x="321" y="705"/>
    </contour>
    <contour>
      <point x="509" y="317" type="curve" smooth="yes"/>
      <point x="409" y="317"/>
      <point x="351" y="216"/>
      <point x="351" y="125" type="curve" smooth="yes"/>
      <point x="351" y="44"/>
      <point x="397" y="-5"/>
      <point x="463" y="-5" type="curve" smooth="yes"/>
      <point x="563" y="-5"/>
      <point x="621" y="96"/>
      <point x="621" y="187" type="curve" smooth="yes"/>
      <point x="621" y="268"/>
      <point x="575" y="317"/>
    </contour>
    <contour>
      <point x="576" y="700" type="line"/>
      <point x="60" y="0" type="line"/>
      <point x="142" y="0" type="line"/>
      <point x="658" y="700" type="line"/>
    </contour>
  </outline>
</glyph>
<glyph name="quotesingle" format="2">
  <advance width="350"/>
  <unicode hex="0027"/>
  <outline>
    <contour>
      <point x="201" y="700" type="line"/>
      <point x="171" y="412" type="line"/>
      <point x="238" y="412" type="line"/>
      <point x="310" y="700" type="line"/>
    </contour>
  </outline>
</glyph>
<glyph name="parenleft" format="2">
  <advance width="600"/>
  <unicode hex="0028"/>
  <outline>
    <contour>
      <point x="574" y="745" type="curve"/>
      <point x="466" y="745" type="line"/>
      <point x="295" y="625"/>
      <point x="166" y="455"/>
      <point x="166" y="243" type="curve" smooth="yes"/>
      <point x="166" y="104"/>
      <point x="223" y="-20"/>
      <point x="325" y="-113" type="curve"/>
      <point x="423" y="-113" type="line"/>
      <point x="313" y="-10"/>
      <point x="258" y="108"/>
      <point x="258" y="239" type="curve" smooth="yes"/>
      <point x="258" y="451"/>
      <point x="393" y="619"/>
    </contour>
  </outline>
</glyph>
<glyph name="asterisk" format="2">
  <advance width="350"/>
  <unicode hex="002A"/>
  <outline>
    <contour>
      <point x="114" y="352" type="line"/>
      <point x="216" y="464" type="line"/>
      <point x="278" y="352" type="line"/>
      <point x="332" y="390" type="line"/>
      <point x="270" y="501" type="line"/>
      <point x="412" y="544" type="line"/>
      <point x="400" y="607" type="line"/>
      <point x="265" y="565" type="line"/>
      <point x="289" y="700" type="line"/>
      <point x="221" y="700" type="line"/>
      <point x="198" y="564" type="line"/>
      <point x="77" y="606" type="line"/>
      <point x="47" y="547" type="line"/>
      <point x="167" y="506" type="line"/>
      <point x="65" y="394" type="line"/>
    </contour>
  </outline>
</glyph>
<glyph name="comma" format="2">
  <advance width="350"/>
  <unicode hex="002C"/>
  <outline>
    <contour>
      <point x="99" y="135" type="line"/>
      <point x="75" y="0" type="line"/>
      <point x="132" y="0" type="line"/>
      <point x="130" y="-10" type="line" smooth="yes"/>
      <point x="122" y="-54"/>
      <point x="90" y="-81"/>
      <point x="42" y="-81" type="curve"/>
      <point x="33" y="-131" type="line"/>
      <point x="139" y="-131"/>
      <point x="179" y="-55"/>
      <point x="187" y="-10" type="curve" smooth="yes"/>
      <point x="213" y="135" type="line"/>
    </contour>
  </outline>
</glyph>
<glyph name="one" format="2">
  <advance width="600"/>
  <unicode hex="0031"/>
  <outline>
    <contour>
      <point x="370" y="700" type="line"/>
      <point x="350" y="591"/>
      <point x="318" y="555"/>
      <point x="138" y="555" type="curve"/>
      <point x="127" y="490" type="line"/>
      <point x="379" y="490" type="line"/>
      <point x="331" y="540" type="line"/>
      <point x="235" y="0" type="line"/>
      <point x="325" y="0" type="line"/>
      <point x="449" y="700" type="line"/>
    </contour>
    <contour>
      <point x="40" y="0" type="line"/>
      <point x="495" y="0" type="line"/>
      <point x="509" y="75" type="line"/>
      <point x="54" y="75" type="line"/>
    </contour>
  </outline>
</glyph>
<glyph name="four" format="2">
  <advance width="600"/>
  <unicode hex="0034"/>
  <outline>
    <contour>
      <point x="527" y="700" type="line"/>
      <point x="429" y="700" type="line"/>
      <point x="30" y="261" type="line"/>
      <point x="17" y="183" type="line"/>
      <point x="557" y="183" type="line"/>
      <point x="570" y="260" type="line"/>
      <point x="58" y="260" type="line"/>
      <point x="67" y="196" type="line"/>
      <point x="489" y="661" type="line"/>
      <point x="431" y="661" type="line"/>
      <point x="314" y="0" type="line"/>
      <point x="403" y="0" type="line"/>
    </contour>
  </outline>
</glyph>
<glyph name="question" format="2">
  <advance width="600"/>
  <unicode hex="003F"/>
  <outline>
    <contour>
      <point x="244" y="227" type="line"/>
      <point x="325" y="227" type="line"/>
      <point x="327" y="237" type="line" smooth="yes"/>
      <point x="336" y="281"/>
      <point x="358" y="315"/>
      <point x="422" y="349" type="curve" smooth="yes"/>
      <point x="517" y="399"/>
      <point x="566" y="470"/>
      <point x="566" y="553" type="curve" smooth="yes"/>
      <point x="566" y="657"/>
      <point x="482" y="712"/>
      <point x="366" y="712" type="curve" smooth="yes"/>
      <point x="245" y="712"/>
      <point x="163" y="652"/>
      <point x="125" y="545" type="curve"/>
      <point x="209" y="521" type="line"/>
      <point x="235" y="590"/>
      <point x="279" y="634"/>
      <point x="358" y="634" type="curve" smooth="yes"/>
      <point x="428" y="634"/>
      <point x="474" y="604"/>
      <point x="474" y="545" type="curve" smooth="yes"/>
      <point x="474" y="492"/>
      <point x="450" y="450"/>
      <point x="367" y="407" type="curve" smooth="yes"/>
      <point x="290" y="367"/>
      <point x="258" y="320"/>
      <point x="247" y="247" type="curve" smooth="yes"/>
    </contour>
    <contour>
      <point x="192" y="0" type="line"/>
      <point x="297" y="0" type="line"/>
      <point x="319" y="124" type="line"/>
      <point x="214" y="124" type="line"/>
    </contour>
  </outline>
</glyph>
<glyph name="at" format="2">
  <advance width="680"/>
  <unicode hex="0040"/>
  <outline>
    <contour>
      <point x="35" y="244" type="curve" smooth="yes"/>
      <point x="-6" y="15"/>
      <point x="98" y="-130"/>
      <point x="300" y="-130" type="curve" smooth="yes"/>
      <point x="361" y="-130"/>
      <point x="430" y="-115"/>
      <point x="487" y="-82" type="curve"/>
      <point x="467" y="-26" type="line"/>
      <point x="411" y="-52"/>
      <point x="358" y="-64"/>
      <point x="307" y="-64" type="curve" smooth="yes"/>
      <point x="138" y="-64"/>
      <point x="73" y="54"/>
      <point x="105" y="236" type="curve" smooth="yes"/>
      <point x="141" y="441"/>
      <point x="262" y="571"/>
      <point x="418" y="571" type="curve" smooth="yes"/>
      <point x="538" y="571"/>
      <point x="617" y="489"/>
      <point x="583" y="296" type="curve" smooth="yes"/>
      <point x="565" y="193"/>
      <point x="525" y="125"/>
      <point x="479" y="125" type="curve" smooth="yes"/>
      <point x="451" y="125"/>
      <point x="446" y="145"/>
      <point x="455" y="179" type="curve" smooth="yes"/>
      <point x="532" y="451" type="line"/>
      <point x="458" y="451" type="line"/>
      <point x="444" y="403" type="line"/>
      <point x="433" y="434"/>
      <point x="403" y="457"/>
      <point x="358" y="457" type="curve" smooth="yes"/>
      <point x="288" y="457"/>
      <point x="215" y="394"/>
      <point x="185" y="278" type="curve" smooth="yes"/>
      <point x="145" y="131"/>
      <point x="199" y="52"/>
      <point x="282" y="52" type="curve" smooth="yes"/>
      <point x="322" y="52"/>
      <point x="356" y="71"/>
      <point x="384" y="109" type="curve"/>
      <point x="390" y="77"/>
      <point x="414" y="52"/>
      <point x="462" y="52" type="curve" smooth="yes"/>
      <point x="556" y="52"/>
      <point x="630" y="156"/>
      <point x="654" y="286" type="curve" smooth="yes"/>
      <point x="696" y="530"/>
      <point x="576" y="636"/>
      <point x="423" y="636" type="curve" smooth="yes"/>
      <point x="227" y="636"/>
      <point x="78" y="486"/>
    </contour>
    <contour>
      <point x="402" y="247" type="curve" smooth="yes"/>
      <point x="381" y="166"/>
      <point x="348" y="119"/>
      <point x="301" y="119" type="curve" smooth="yes"/>
      <point x="246" y="119"/>
      <point x="236" y="177"/>
      <point x="260" y="264" type="curve" smooth="yes"/>
      <point x="281" y="344"/>
      <point x="318" y="390"/>
      <point x="364" y="390" type="curve" smooth="yes"/>
      <point x="416" y="390"/>
      <point x="426" y="333"/>
    </contour>
  </outline>
</glyph>
<glyph name="C" format="2">
  <advance width="680"/>
  <unicode hex="0043"/>
  <guideline x="391" y="712" angle="90" name="center"/>
  <outline>
    <contour>
      <point x="65" y="284" type="curve" smooth="yes"/>
      <point x="65" y="106"/>
      <point x="170" y="-12"/>
      <point x="330" y="-12" type="curve" smooth="yes"/>
      <point x="464" y="-12"/>
      <point x="578" y="73"/>
      <point x="632" y="204" type="curve"/>
      <point x="554" y="231" type="line"/>
      <point x="513" y="134"/>
      <point x="434" y="68"/>
      <point x="337" y="68" type="curve" smooth="yes"/>
      <point x="228" y="68"/>
      <point x="156" y="154"/>
      <point x="156" y="286" type="curve" smooth="yes"/>
      <point x="156" y="469"/>
      <point x="263" y="630"/>
      <point x="417" y="630" type="curve" smooth="yes"/>
      <point x="522" y="630"/>
      <point x="583" y="565"/>
      <point x="594" y="457" type="curve"/>
      <point x="677" y="478" type="line"/>
      <point x="661" y="623"/>
      <point x="568" y="712"/>
      <point x="427" y="712" type="curve" smooth="yes"/>
      <point x="219" y="712"/>
      <point x="65" y="519"/>
    </contour>
  </outline>
</glyph>
<glyph name="D" format="2">
  <advance width="680"/>
  <unicode hex="0044"/>
  <outline>
    <contour>
      <point x="92" y="82" type="line"/>
      <point x="77" y="0" type="line"/>
      <point x="269" y="0" type="line" smooth="yes"/>
      <point x="512" y="0"/>
      <point x="660" y="186"/>
      <point x="660" y="411" type="curve" smooth="yes"/>
      <point x="660" y="586"/>
      <point x="566" y="700"/>
      <point x="390" y="700" type="curve" smooth="yes"/>
      <point x="200" y="700" type="line"/>
      <point x="185" y="618" type="line"/>
      <point x="370" y="618" type="line" smooth="yes"/>
      <point x="500" y="618"/>
      <point x="568" y="544"/>
      <point x="568" y="406" type="curve" smooth="yes"/>
      <point x="568" y="232"/>
      <point x="464" y="82"/>
      <point x="279" y="82" type="curve" smooth="yes"/>
    </contour>
    <contour>
      <point x="168" y="700" type="line"/>
      <point x="44" y="0" type="line"/>
      <point x="135" y="0" type="line"/>
      <point x="259" y="700" type="line"/>
    </contour>
  </outline>
</glyph>
<glyph name="F" format="2">
  <advance width="600"/>
  <unicode hex="0046"/>
  <outline>
    <contour>
      <point x="162" y="700" type="line"/>
      <point x="39" y="0" type="line"/>
      <point x="130" y="0" type="line"/>
      <point x="253" y="700" type="line"/>
    </contour>
    <contour>
      <point x="183" y="618" type="line"/>
      <point x="629" y="618" type="line"/>
      <point x="643" y="700" type="line"/>
      <point x="197" y="700" type="line"/>
    </contour>
    <contour>
      <point x="140" y="318" type="line"/>
      <point x="502" y="318" type="line"/>
      <point x="516" y="400" type="line"/>
      <point x="154" y="400" type="line"/>
    </contour>
  </outline>
</glyph>
<glyph name="G" format="2">
  <advance width="680"/>
  <unicode hex="0047"/>
  <outline>
    <contour>
      <point x="513" y="144" type="line"/>
      <point x="488" y="0" type="line"/>
      <point x="563" y="0" type="line"/>
      <point x="628" y="367" type="line"/>
      <point x="398" y="367" type="line"/>
      <point x="385" y="294" type="line"/>
      <point x="585" y="294" type="line"/>
      <point x="542" y="312" type="line"/>
      <point x="534" y="268" type="line" smooth="yes"/>
      <point x="514" y="151"/>
      <point x="424" y="67"/>
      <point x="315" y="67" type="curve" smooth="yes"/>
      <point x="211" y="67"/>
      <point x="148" y="145"/>
      <point x="148" y="276" type="curve" smooth="yes"/>
      <point x="148" y="472"/>
      <point x="250" y="631"/>
      <point x="401" y="631" type="curve" smooth="yes"/>
      <point x="503" y="631"/>
      <point x="552" y="550"/>
      <point x="560" y="470" type="curve"/>
      <point x="642" y="492" type="line"/>
      <point x="629" y="614"/>
      <point x="547" y="712"/>
      <point x="407" y="712" type="curve" smooth="yes"/>
      <point x="203" y="712"/>
      <point x="57" y="517"/>
      <point x="57" y="279" type="curve" smooth="yes"/>
      <point x="57" y="113"/>
      <point x="147" y="-12"/>
      <point x="298" y="-12" type="curve" smooth="yes"/>
      <point x="405" y="-12"/>
      <point x="483" y="48"/>
      <point x="538" y="140" type="curve"/>
    </contour>
  </outline>
</glyph>
<glyph name="H" format="2">
  <advance width="680"/>
  <unicode hex="0048"/>
  <outline>
    <contour>
      <point x="148" y="320" type="line"/>
      <point x="560" y="320" type="line"/>
      <point x="574" y="402" type="line"/>
      <point x="162" y="402" type="line"/>
    </contour>
    <contour>
      <point x="582" y="700" type="line"/>
      <point x="458" y="0" type="line"/>
      <point x="549" y="0" type="line"/>
      <point x="673" y="700" type="line"/>
    </contour>
    <contour>
      <point x="168" y="700" type="line"/>
      <point x="44" y="0" type="line"/>
      <point x="135" y="0" type="line"/>
      <point x="259" y="700" type="line"/>
    </contour>
  </outline>
</glyph>
<glyph name="I" format="2">
  <advance width="350"/>
  <unicode hex="0049"/>
  <outline>
    <contour>
      <point x="210" y="700" type="line"/>
      <point x="86" y="0" type="line"/>
      <point x="177" y="0" type="line"/>
      <point x="301" y="700" type="line"/>
    </contour>
    <contour>
      <point x="86" y="0" type="line"/>
      <point x="177" y="0" type="line"/>
      <point x="191" y="82" type="line"/>
      <point x="101" y="82" type="line"/>
    </contour>
    <contour>
      <point x="196" y="618" type="line"/>
      <point x="286" y="618" type="line"/>
      <point x="300" y="700" type="line"/>
      <point x="210" y="700" type="line"/>
    </contour>
  </outline>
</glyph>
<glyph name="J" format="2">
  <advance width="600"/>
  <unicode hex="004A"/>
  <outline>
    <contour>
      <point x="519" y="214" type="curve" smooth="yes"/>
      <point x="605" y="700" type="line"/>
      <point x="515" y="700" type="line"/>
      <point x="430" y="221" type="line" smooth="yes"/>
      <point x="414" y="126"/>
      <point x="366" y="69"/>
      <point x="272" y="69" type="curve" smooth="yes"/>
      <point x="198" y="69"/>
      <point x="139" y="103"/>
      <point x="139" y="190" type="curve" smooth="yes"/>
      <point x="139" y="203"/>
      <point x="140" y="217"/>
      <point x="143" y="232" type="curve"/>
      <point x="50" y="243" type="line"/>
      <point x="47" y="223"/>
      <point x="45" y="204"/>
      <point x="45" y="186" type="curve" smooth="yes"/>
      <point x="45" y="60"/>
      <point x="128" y="-12"/>
      <point x="265" y="-12" type="curve" smooth="yes"/>
      <point x="414" y="-12"/>
      <point x="493" y="69"/>
    </contour>
  </outline>
</glyph>
<glyph name="L" format="2">
  <advance width="600"/>
  <unicode hex="004C"/>
  <outline>
    <contour>
      <point x="177" y="700" type="line"/>
      <point x="54" y="0" type="line"/>
      <point x="145" y="0" type="line"/>
      <point x="268" y="700" type="line"/>
    </contour>
    <contour>
      <point x="89" y="0" type="line"/>
      <point x="498" y="0" type="line"/>
      <point x="512" y="82" type="line"/>
      <point x="103" y="82" type="line"/>
    </contour>
  </outline>
</glyph>
<glyph name="M" format="2">
  <advance width="680"/>
  <unicode hex="004D"/>
  <outline>
    <contour>
      <point x="210" y="622" type="line"/>
      <point x="316" y="230" type="line"/>
      <point x="358" y="230" type="line"/>
      <point x="600" y="621" type="line"/>
      <point x="588" y="621" type="line"/>
      <point x="479" y="0" type="line"/>
      <point x="565" y="0" type="line"/>
      <point x="688" y="700" type="line"/>
      <point x="561" y="700" type="line"/>
      <point x="344" y="345" type="line"/>
      <point x="363" y="345" type="line"/>
      <point x="269" y="700" type="line"/>
      <point x="152" y="700" type="line"/>
      <point x="29" y="0" type="line"/>
      <point x="114" y="0" type="line"/>
      <point x="223" y="622" type="line"/>
    </contour>
  </outline>
</glyph>
<glyph name="N" format="2">
  <advance width="680"/>
  <unicode hex="004E"/>
  <outline>
    <contour>
      <point x="522" y="40" type="line"/>
      <point x="290" y="700" type="line"/>
      <point x="168" y="700" type="line"/>
      <point x="44" y="0" type="line"/>
      <point x="133" y="0" type="line"/>
      <point x="249" y="657" type="line"/>
      <point x="220" y="657" type="line"/>
      <point x="451" y="0" type="line"/>
      <point x="549" y="0" type="line"/>
      <point x="673" y="700" type="line"/>
      <point x="584" y="700" type="line"/>
      <point x="467" y="40" type="line"/>
    </contour>
  </outline>
</glyph>
<glyph name="O" format="2">
  <advance width="680"/>
  <unicode hex="004F"/>
  <outline>
    <contour>
      <point x="572" y="421" type="curve" smooth="yes"/>
      <point x="572" y="231"/>
      <point x="469" y="69"/>
      <point x="320" y="69" type="curve" smooth="yes"/>
      <point x="211" y="69"/>
      <point x="146" y="149"/>
      <point x="146" y="281" type="curve" smooth="yes"/>
      <point x="146" y="469"/>
      <point x="249" y="631"/>
      <point x="399" y="631" type="curve" smooth="yes"/>
      <point x="507" y="631"/>
      <point x="572" y="552"/>
    </contour>
    <contour>
      <point x="55" y="282" type="curve" smooth="yes"/>
      <point x="55" y="104"/>
      <point x="155" y="-12"/>
      <point x="314" y="-12" type="curve" smooth="yes"/>
      <point x="518" y="-12"/>
      <point x="663" y="188"/>
      <point x="663" y="419" type="curve" smooth="yes"/>
      <point x="663" y="596"/>
      <point x="564" y="712"/>
      <point x="406" y="712" type="curve" smooth="yes"/>
      <point x="200" y="712"/>
      <point x="55" y="513"/>
    </contour>
  </outline>
</glyph>
<glyph name="Q" format="2">
  <advance width="680"/>
  <unicode hex="0051"/>
  <guideline x="478" y="-182" angle="80" identifier="tQty76uyKn"/>
  <outline>
    <contour>
      <point x="251" y="-69" type="curve" smooth="yes"/>
      <point x="251" y="-147"/>
      <point x="313" y="-180"/>
      <point x="414" y="-180" type="curve" smooth="yes"/>
      <point x="432" y="-180"/>
      <point x="456" y="-179"/>
      <point x="479" y="-176" type="curve"/>
      <point x="492" y="-100" type="line"/>
      <point x="471" y="-102"/>
      <point x="456" y="-103"/>
      <point x="442" y="-103" type="curve" smooth="yes"/>
      <point x="372" y="-103"/>
      <point x="346" y="-90"/>
      <point x="346" y="-51" type="curve" smooth="yes"/>
      <point x="346" y="-44"/>
      <point x="347" y="-37"/>
      <point x="348" y="-29" type="curve" smooth="yes"/>
      <point x="358" y="25" type="line"/>
      <point x="266" y="28" type="line"/>
      <point x="254" y="-39" type="line" smooth="yes"/>
      <point x="252" y="-49"/>
      <point x="251" y="-59"/>
    </contour>
    <contour>
      <point x="572" y="421" type="curve" smooth="yes"/>
      <point x="572" y="231"/>
      <point x="469" y="69"/>
      <point x="320" y="69" type="curve" smooth="yes"/>
      <point x="211" y="69"/>
      <point x="146" y="149"/>
      <point x="146" y="281" type="curve" smooth="yes"/>
      <point x="146" y="469"/>
      <point x="249" y="631"/>
      <point x="399" y="631" type="curve" smooth="yes"/>
      <point x="507" y="631"/>
      <point x="572" y="552"/>
    </contour>
    <contour>
      <point x="55" y="282" type="curve" smooth="yes"/>
      <point x="55" y="104"/>
      <point x="155" y="-12"/>
      <point x="314" y="-12" type="curve" smooth="yes"/>
      <point x="518" y="-12"/>
      <point x="663" y="188"/>
      <point x="663" y="419" type="curve" smooth="yes"/>
      <point x="663" y="596"/>
      <point x="564" y="712"/>
      <point x="406" y="712" type="curve" smooth="yes"/>
      <point x="200" y="712"/>
      <point x="55" y="513"/>
    </contour>
  </outline>
</glyph>
<glyph name="U" format="2">
  <advance width="680"/>
  <unicode hex="0055"/>
  <outline>
    <contour>
      <point x="606" y="248" type="curve" smooth="yes"/>
      <point x="686" y="700" type="line"/>
      <point x="596" y="700" type="line"/>
      <point x="518" y="257" type="line" smooth="yes"/>
      <point x="498" y="141"/>
      <point x="432" y="71"/>
      <point x="321" y="71" type="curve" smooth="yes"/>
      <point x="222" y="71"/>
      <point x="166" y="128"/>
      <point x="166" y="223" type="curve" smooth="yes"/>
      <point x="166" y="238"/>
      <point x="167" y="253"/>
      <point x="170" y="270" type="curve" smooth="yes"/>
      <point x="246" y="700" type="line"/>
      <point x="155" y="700" type="line"/>
      <point x="78" y="267" type="line" smooth="yes"/>
      <point x="75" y="247"/>
      <point x="73" y="229"/>
      <point x="73" y="211" type="curve" smooth="yes"/>
      <point x="73" y="77"/>
      <point x="162" y="-12"/>
      <point x="313" y="-12" type="curve" smooth="yes"/>
      <point x="477" y="-12"/>
      <point x="577" y="84"/>
    </contour>
  </outline>
</glyph>
<glyph name="W" format="2">
  <advance width="680"/>
  <unicode hex="0057"/>
  <outline>
    <contour>
      <point x="501" y="0" type="line"/>
      <point x="733" y="700" type="line"/>
      <point x="644" y="700" type="line"/>
      <point x="436" y="36" type="line"/>
      <point x="469" y="36" type="line"/>
      <point x="431" y="520" type="line"/>
      <point x="342" y="520" type="line"/>
      <point x="134" y="36" type="line"/>
      <point x="170" y="36" type="line"/>
      <point x="192" y="700" type="line"/>
      <point x="107" y="700" type="line"/>
      <point x="94" y="0" type="line"/>
      <point x="193" y="0" type="line"/>
      <point x="395" y="467" type="line"/>
      <point x="364" y="467" type="line"/>
      <point x="401" y="0" type="line"/>
    </contour>
  </outline>
</glyph>
<glyph name="k" format="2">
  <advance width="600"/>
  <unicode hex="006B"/>
  <outline>
    <contour>
      <point x="62" y="0" type="line"/>
      <point x="150" y="0" type="line"/>
      <point x="273" y="700" type="line"/>
      <point x="185" y="700" type="line"/>
    </contour>
    <contour>
      <point x="141" y="237" type="line"/>
      <point x="132" y="144" type="line"/>
      <point x="277" y="255" type="line"/>
      <point x="312" y="275" type="line"/>
      <point x="595" y="490" type="line"/>
      <point x="479" y="490" type="line"/>
    </contour>
    <contour>
      <point x="247" y="266" type="line"/>
      <point x="432" y="0" type="line"/>
      <point x="528" y="0" type="line"/>
      <point x="308" y="318" type="line"/>
    </contour>
  </outline>
</glyph>
<glyph name="l" format="2">
  <advance width="350"/>
  <unicode hex="006C"/>
  <outline>
    <contour>
      <point x="212" y="700" type="line"/>
      <point x="88" y="0" type="line"/>
      <point x="176" y="0" type="line"/>
      <point x="300" y="700" type="line"/>
    </contour>
    <contour>
      <point x="201" y="631" type="line"/>
      <point x="287" y="631" type="line"/>
      <point x="300" y="700" type="line"/>
      <point x="212" y="700" type="line"/>
    </contour>
    <contour>
      <point x="88" y="0" type="line"/>
      <point x="176" y="0" type="line"/>
      <point x="188" y="69" type="line"/>
      <point x="101" y="69" type="line"/>
    </contour>
  </outline>
</glyph>
<glyph name="m" format="2">
  <advance width="680"/>
  <unicode hex="006D"/>
  <outline>
    <contour>
      <point x="27" y="0" type="line"/>
      <point x="112" y="0" type="line"/>
      <point x="174" y="352" type="line" smooth="yes"/>
      <point x="182" y="401"/>
      <point x="216" y="431"/>
      <point x="260" y="431" type="curve" smooth="yes"/>
      <point x="308" y="431"/>
      <point x="324" y="394"/>
      <point x="317" y="351" type="curve" smooth="yes"/>
      <point x="254" y="0" type="line"/>
      <point x="339" y="0" type="line"/>
      <point x="400" y="351" type="line" smooth="yes"/>
      <point x="409" y="404"/>
      <point x="447" y="431"/>
      <point x="488" y="431" type="curve" smooth="yes"/>
      <point x="537" y="431"/>
      <point x="552" y="394"/>
      <point x="545" y="351" type="curve" smooth="yes"/>
      <point x="483" y="0" type="line"/>
      <point x="568" y="0" type="line"/>
      <point x="632" y="364" type="line" smooth="yes"/>
      <point x="644" y="437"/>
      <point x="602" y="501"/>
      <point x="526" y="501" type="curve" smooth="yes"/>
      <point x="477" y="501"/>
      <point x="429" y="478"/>
      <point x="399" y="432" type="curve"/>
      <point x="385" y="473"/>
      <point x="350" y="501"/>
      <point x="300" y="501" type="curve" smooth="yes"/>
      <point x="257" y="501"/>
      <point x="216" y="477"/>
      <point x="189" y="441" type="curve"/>
      <point x="198" y="490" type="line"/>
      <point x="113" y="490" type="line"/>
    </contour>
  </outline>
</glyph>
<glyph name="u" format="2">
  <advance width="600"/>
  <unicode hex="0075"/>
  <outline>
    <contour>
      <point x="464" y="0" type="line"/>
      <point x="550" y="490" type="line"/>
      <point x="462" y="490" type="line"/>
      <point x="409" y="182" type="line" smooth="yes"/>
      <point x="396" y="109"/>
      <point x="336" y="59"/>
      <point x="264" y="59" type="curve" smooth="yes"/>
      <point x="189" y="59"/>
      <point x="163" y="104"/>
      <point x="163" y="156" type="curve" smooth="yes"/>
      <point x="163" y="166"/>
      <point x="164" y="177"/>
      <point x="166" y="187" type="curve" smooth="yes"/>
      <point x="220" y="490" type="line"/>
      <point x="132" y="490" type="line"/>
      <point x="77" y="173" type="line" smooth="yes"/>
      <point x="75" y="162"/>
      <point x="74" y="151"/>
      <point x="74" y="140" type="curve" smooth="yes"/>
      <point x="74" y="55"/>
      <point x="131" y="-12"/>
      <point x="226" y="-12" type="curve" smooth="yes"/>
      <point x="301" y="-12"/>
      <point x="374" y="31"/>
      <point x="414" y="97" type="curve"/>
      <point x="392" y="92" type="line"/>
      <point x="376" y="0" type="line"/>
    </contour>
  </outline>
</glyph>
<glyph name="bar" format="2">
  <advance width="350"/>
  <unicode hex="007C"/>
  <outline>
    <contour>
      <point x="222" y="745" type="line"/>
      <point x="71" y="-113" type="line"/>
      <point x="154" y="-113" type="line"/>
      <point x="305" y="745" type="line"/>
    </contour>
  </outline>
</glyph>
<glyph name="asciitilde" format="2">
  <advance width="600"/>
  <unicode hex="007E"/>
  <outline>
    <contour>
      <point x="388" y="246" type="curve" smooth="yes"/>
      <point x="448" y="246"/>
      <point x="512" y="303" name="inserted"/>
      <point x="534" y="391" type="curve"/>
      <point x="461" y="391" type="line"/>
      <point x="450" y="357"/>
      <point x="424" y="328" name="inserted"/>
      <point x="393" y="328" type="curve" smooth="yes"/>
      <point x="350" y="328"/>
      <point x="299" y="386" name="inserted"/>
      <point x="235" y="386" type="curve" smooth="yes"/>
      <point x="175" y="386"/>
      <point x="114" y="330" name="inserted"/>
      <point x="92" y="242" type="curve"/>
      <point x="165" y="242" type="line"/>
      <point x="176" y="276"/>
      <point x="202" y="304" name="inserted"/>
      <point x="233" y="304" type="curve" smooth="yes"/>
      <point x="276" y="304"/>
      <point x="327" y="246" name="inserted"/>
    </contour>
  </outline>
</glyph>
<glyph name="yen" format="2">
  <advance width="600"/>
  <unicode hex="00A5"/>
  <outline>
    <contour>
      <point x="341" y="382" type="line"/>
      <point x="203" y="700" type="line"/>
      <point x="110" y="700" type="line"/>
      <point x="270" y="334" type="line"/>
      <point x="211" y="0" type="line"/>
      <point x="301" y="0" type="line"/>
      <point x="360" y="334" type="line"/>
      <point x="650" y="700" type="line"/>
      <point x="552" y="700" type="line"/>
      <point x="302" y="382" type="line"/>
    </contour>
    <contour>
      <point x="89" y="322" type="line"/>
      <point x="537" y="322" type="line"/>
      <point x="549" y="392" type="line"/>
      <point x="101" y="392" type="line"/>
    </contour>
    <contour>
      <point x="64" y="182" type="line"/>
      <point x="512" y="182" type="line"/>
      <point x="525" y="252" type="line"/>
      <point x="77" y="252" type="line"/>
    </contour>
  </outline>
</glyph>
<glyph name="brokenbar" format="2">
  <advance width="350"/>
  <unicode hex="00A6"/>
  <outline>
    <contour>
      <point x="222" y="745" type="line"/>
      <point x="157" y="377" type="line"/>
      <point x="240" y="377" type="line"/>
      <point x="305" y="745" type="line"/>
    </contour>
    <contour>
      <point x="136" y="255" type="line"/>
      <point x="71" y="-113" type="line"/>
      <point x="154" y="-113" type="line"/>
      <point x="219" y="255" type="line"/>
    </contour>
  </outline>
</glyph>
<glyph name="copyright" format="2">
  <advance width="680"/>
  <unicode hex="00A9"/>
  <outline>
    <contour>
      <point x="332" y="124" type="curve" smooth="yes"/>
      <point x="519" y="124"/>
      <point x="665" y="275"/>
      <point x="665" y="457" type="curve" smooth="yes"/>
      <point x="665" y="600"/>
      <point x="562" y="709"/>
      <point x="408" y="709" type="curve" smooth="yes"/>
      <point x="220" y="709"/>
      <point x="74" y="557"/>
      <point x="74" y="376" type="curve" smooth="yes"/>
      <point x="74" y="233"/>
      <point x="178" y="124"/>
    </contour>
    <contour>
      <point x="355" y="260" type="curve" smooth="yes"/>
      <point x="423" y="260"/>
      <point x="474" y="296"/>
      <point x="498" y="350" type="curve"/>
      <point x="443" y="373" type="line"/>
      <point x="426" y="335"/>
      <point x="398" y="315"/>
      <point x="360" y="315" type="curve" smooth="yes"/>
      <point x="316" y="315"/>
      <point x="284" y="345"/>
      <point x="284" y="399" type="curve" smooth="yes"/>
      <point x="284" y="471"/>
      <point x="331" y="518"/>
      <point x="387" y="518" type="curve" smooth="yes"/>
      <point x="428" y="518"/>
      <point x="453" y="494"/>
      <point x="457" y="455" type="curve"/>
      <point x="516" y="469" type="line"/>
      <point x="510" y="530"/>
      <point x="463" y="574"/>
      <point x="391" y="574" type="curve" smooth="yes"/>
      <point x="295" y="574"/>
      <point x="219" y="500"/>
      <point x="219" y="394" type="curve" smooth="yes"/>
      <point x="219" y="316"/>
      <point x="273" y="260"/>
    </contour>
    <contour>
      <point x="339" y="171" type="curve" smooth="yes"/>
      <point x="210" y="171"/>
      <point x="126" y="256"/>
      <point x="126" y="377" type="curve" smooth="yes"/>
      <point x="126" y="524"/>
      <point x="239" y="661"/>
      <point x="401" y="661" type="curve" smooth="yes"/>
      <point x="530" y="661"/>
      <point x="614" y="576"/>
      <point x="614" y="455" type="curve" smooth="yes"/>
      <point x="614" y="309"/>
      <point x="500" y="171"/>
    </contour>
  </outline>
</glyph>
<glyph name="ordfeminine" format="2">
  <advance width="350"/>
  <unicode hex="00AA"/>
  <outline>
    <contour>
      <point x="249" y="712" type="curve" smooth="yes"/>
      <point x="140" y="712"/>
      <point x="107" y="649"/>
      <point x="95" y="590" type="curve"/>
      <point x="172" y="578" type="line"/>
      <point x="178" y="618"/>
      <point x="196" y="648"/>
      <point x="247" y="648" type="curve" smooth="yes"/>
      <point x="287" y="648"/>
      <point x="307" y="623"/>
      <point x="300" y="583" type="curve" smooth="yes"/>
      <point x="275" y="444" type="line" smooth="yes"/>
      <point x="267" y="397"/>
      <point x="230" y="364"/>
      <point x="186" y="364" type="curve" smooth="yes"/>
      <point x="152" y="364"/>
      <point x="124" y="383"/>
      <point x="131" y="424" type="curve" smooth="yes"/>
      <point x="137" y="457"/>
      <point x="162" y="477"/>
      <point x="202" y="482" type="curve" smooth="yes"/>
      <point x="309" y="495" type="line"/>
      <point x="319" y="553" type="line"/>
      <point x="199" y="540" type="line" smooth="yes"/>
      <point x="123" y="532"/>
      <point x="68" y="499"/>
      <point x="56" y="433" type="curve" smooth="yes"/>
      <point x="41" y="347"/>
      <point x="103" y="301"/>
      <point x="171" y="301" type="curve" smooth="yes"/>
      <point x="219" y="301"/>
      <point x="262" y="330"/>
      <point x="282" y="382" type="curve"/>
      <point x="270" y="385" type="line"/>
      <point x="261" y="321"/>
      <point x="304" y="305"/>
      <point x="335" y="305" type="curve" smooth="yes"/>
      <point x="345" y="305"/>
      <point x="354" y="306"/>
      <point x="360" y="307" type="curve"/>
      <point x="371" y="370" type="line"/>
      <point x="369" y="370"/>
      <point x="366" y="370"/>
      <point x="363" y="370" type="curve" smooth="yes"/>
      <point x="345" y="370"/>
      <point x="338" y="381"/>
      <point x="341" y="398" type="curve" smooth="yes"/>
      <point x="372" y="576" type="line" smooth="yes"/>
      <point x="386" y="658"/>
      <point x="338" y="712"/>
    </contour>
  </outline>
</glyph>
<glyph name="paragraph" format="2">
  <advance width="680"/>
  <unicode hex="00B6"/>
  <outline>
    <contour>
      <point x="498" y="700" type="line"/>
      <point x="421" y="700" type="line"/>
      <point x="277" y="-113" type="line"/>
      <point x="354" y="-113" type="line"/>
    </contour>
    <contour>
      <point x="649" y="700" type="line"/>
      <point x="572" y="700" type="line"/>
      <point x="428" y="-113" type="line"/>
      <point x="505" y="-113" type="line"/>
    </contour>
    <contour>
      <point x="381" y="296" type="line"/>
      <point x="440" y="630" type="line"/>
      <point x="715" y="630" type="line"/>
      <point x="728" y="700" type="line"/>
      <point x="333" y="700" type="line" smooth="yes"/>
      <point x="176" y="700"/>
      <point x="83" y="589"/>
      <point x="83" y="468" type="curve" smooth="yes"/>
      <point x="83" y="364"/>
      <point x="152" y="296"/>
      <point x="264" y="296" type="curve" smooth="yes"/>
    </contour>
  </outline>
</glyph>
<glyph name="AE" format="2">
  <advance width="680"/>
  <unicode hex="00C6"/>
  <guideline x="717" y="700" angle="90" name="center" identifier="yLy7Y5TOSj"/>
  <outline>
    <contour>
      <point x="-21" y="0" type="line"/>
      <point x="74" y="0" type="line"/>
      <point x="359" y="618" type="line"/>
      <point x="410" y="618" type="line"/>
      <point x="424" y="700" type="line"/>
      <point x="306" y="700" type="line"/>
    </contour>
    <contour>
      <point x="147" y="219" type="line"/>
      <point x="366" y="219" type="line"/>
      <point x="380" y="301" type="line"/>
      <point x="161" y="301" type="line"/>
    </contour>
    <contour>
      <point x="322" y="0" type="line"/>
      <point x="601" y="0" type="line"/>
      <point x="615" y="82" type="line"/>
      <point x="336" y="82" type="line"/>
    </contour>
    <contour>
      <point x="283" y="0" type="line"/>
      <point x="370" y="0" type="line"/>
      <point x="493" y="700" type="line"/>
      <point x="406" y="700" type="line"/>
    </contour>
    <contour>
      <point x="383" y="315" type="line"/>
      <point x="559" y="315" type="line"/>
      <point x="574" y="396" type="line"/>
      <point x="398" y="396" type="line"/>
    </contour>
    <contour>
      <point x="427" y="618" type="line"/>
      <point x="692" y="618" type="line"/>
      <point x="706" y="700" type="line"/>
      <point x="441" y="700" type="line"/>
    </contour>
  </outline>
</glyph>
<glyph name="Icircumflex" format="2">
  <advance width="350"/>
  <unicode hex="00CE"/>
  <outline>
    <contour>
      <point x="243" y="892" type="line"/>
      <point x="110" y="771" type="line"/>
      <point x="188" y="771" type="line"/>
      <point x="311" y="855" type="line"/>
      <point x="259" y="855" type="line"/>
      <point x="352" y="771" type="line"/>
      <point x="422" y="771" type="line"/>
      <point x="333" y="892" type="line"/>
    </contour>
    <component base="I"/>
  </outline>
</glyph>
<glyph name="Idieresis" format="2">
  <advance width="350"/>
  <unicode hex="00CF"/>
  <outline>
    <contour>
      <point x="137" y="878" type="line"/>
      <point x="118" y="771" type="line"/>
      <point x="218" y="771" type="line"/>
      <point x="237" y="878" type="line"/>
    </contour>
    <contour>
      <point x="336" y="878" type="line"/>
      <point x="317" y="771" type="line"/>
      <point x="417" y="771" type="line"/>
      <point x="436" y="878" type="line"/>
    </contour>
    <component base="I"/>
  </outline>
</glyph>
<glyph name="Eth" format="2">
  <advance width="680"/>
  <unicode hex="00D0"/>
  <outline>
    <contour>
      <point x="79" y="0" type="line"/>
      <point x="170" y="0" type="line"/>
      <point x="294" y="700" type="line"/>
      <point x="203" y="700" type="line"/>
    </contour>
    <contour>
      <point x="127" y="82" type="line"/>
      <point x="112" y="0" type="line"/>
      <point x="262" y="0" type="line" smooth="yes"/>
      <point x="505" y="0"/>
      <point x="653" y="186"/>
      <point x="653" y="411" type="curve" smooth="yes"/>
      <point x="653" y="586"/>
      <point x="559" y="700"/>
      <point x="383" y="700" type="curve" smooth="yes"/>
      <point x="235" y="700" type="line"/>
      <point x="220" y="618" type="line"/>
      <point x="363" y="618" type="line" smooth="yes"/>
      <point x="493" y="618"/>
      <point x="561" y="544"/>
      <point x="561" y="406" type="curve" smooth="yes"/>
      <point x="561" y="232"/>
      <point x="457" y="82"/>
      <point x="272" y="82" type="curve" smooth="yes"/>
    </contour>
    <contour>
      <point x="65" y="317" type="line"/>
      <point x="357" y="317" type="line"/>
      <point x="371" y="398" type="line"/>
      <point x="79" y="398" type="line"/>
    </contour>
  </outline>
</glyph>
<glyph name="multiply" format="2">
  <advance width="600"/>
  <unicode hex="00D7"/>
  <outline>
    <contour>
      <point x="82" y="186" type="line"/>
      <point x="130" y="129" type="line"/>
      <point x="560" y="494" type="line"/>
      <point x="512" y="551" type="line"/>
    </contour>
    <contour>
      <point x="442" y="133" type="line"/>
      <point x="500" y="182" type="line"/>
      <point x="200" y="547" type="line"/>
      <point x="142" y="498" type="line"/>
    </contour>
  </outline>
</glyph>
<glyph name="ae" format="2">
  <advance width="680"/>
  <unicode hex="00E6"/>
  <outline>
    <contour>
      <point x="22" y="152" type="curve" smooth="yes"/>
      <point x="5" y="54"/>
      <point x="69" y="-12"/>
      <point x="158" y="-12" type="curve" smooth="yes"/>
      <point x="261" y="-12"/>
      <point x="330" y="60"/>
      <point x="358" y="214" type="curve" smooth="yes"/>
      <point x="377" y="325" type="line" smooth="yes"/>
      <point x="379" y="338"/>
      <point x="380" y="350"/>
      <point x="380" y="361" type="curve" smooth="yes"/>
      <point x="381" y="444"/>
      <point x="330" y="502"/>
      <point x="241" y="502" type="curve" smooth="yes"/>
      <point x="124" y="502"/>
      <point x="90" y="424"/>
      <point x="72" y="354" type="curve"/>
      <point x="147" y="340" type="line"/>
      <point x="158" y="401"/>
      <point x="191" y="431"/>
      <point x="239" y="431" type="curve" smooth="yes"/>
      <point x="285" y="431"/>
      <point x="309" y="405"/>
      <point x="308" y="364" type="curve" smooth="yes"/>
      <point x="308" y="357"/>
      <point x="307" y="349"/>
      <point x="306" y="341" type="curve" smooth="yes"/>
      <point x="276" y="171" type="line" smooth="yes"/>
      <point x="265" y="108"/>
      <point x="235" y="59"/>
      <point x="174" y="59" type="curve" smooth="yes"/>
      <point x="127" y="59"/>
      <point x="94" y="88"/>
      <point x="105" y="146" type="curve" smooth="yes"/>
      <point x="114" y="199"/>
      <point x="151" y="221"/>
      <point x="214" y="224" type="curve" smooth="yes"/>
      <point x="319" y="229" type="line"/>
      <point x="331" y="296" type="line"/>
      <point x="215" y="290" type="line" smooth="yes"/>
      <point x="120" y="285"/>
      <point x="40" y="250"/>
    </contour>
    <contour>
      <point x="304" y="244" type="curve" smooth="yes"/>
      <point x="276" y="85"/>
      <point x="334" y="-12"/>
      <point x="442" y="-12" type="curve" smooth="yes"/>
      <point x="522" y="-12"/>
      <point x="576" y="48"/>
      <point x="611" y="142" type="curve"/>
      <point x="547" y="161" type="line"/>
      <point x="527" y="92"/>
      <point x="487" y="59"/>
      <point x="443" y="59" type="curve" smooth="yes"/>
      <point x="386" y="59"/>
      <point x="354" y="123"/>
      <point x="376" y="244" type="curve" smooth="yes"/>
      <point x="396" y="359"/>
      <point x="442" y="431"/>
      <point x="498" y="431" type="curve" smooth="yes"/>
      <point x="540" y="431"/>
      <point x="562" y="397"/>
      <point x="562" y="324" type="curve" smooth="yes"/>
      <point x="562" y="302"/>
      <point x="559" y="276"/>
      <point x="554" y="247" type="curve"/>
      <point x="577" y="292" type="line"/>
      <point x="347" y="292" type="line"/>
      <point x="336" y="226" type="line"/>
      <point x="627" y="226" type="line"/>
      <point x="629" y="241" type="line" smooth="yes"/>
      <point x="632" y="266"/>
      <point x="636" y="290"/>
      <point x="636" y="312" type="curve" smooth="yes"/>
      <point x="636" y="426"/>
      <point x="591" y="502"/>
      <point x="502" y="502" type="curve" smooth="yes"/>
      <point x="395" y="502"/>
      <point x="332" y="404"/>
    </contour>
  </outline>
</glyph>
<glyph name="icircumflex" format="2">
  <advance width="350"/>
  <unicode hex="00EE"/>
  <outline>
    <contour>
      <point x="213" y="700" type="line"/>
      <point x="89" y="570" type="line"/>
      <point x="163" y="570" type="line"/>
      <point x="282" y="671" type="line"/>
      <point x="230" y="671" type="line"/>
      <point x="315" y="570" type="line"/>
      <point x="381" y="570" type="line"/>
      <point x="301" y="700" type="line"/>
    </contour>
    <component base="dotlessi"/>
  </outline>
</glyph>
<glyph name="idieresis" format="2">
  <advance width="350"/>
  <unicode hex="00EF"/>
  <outline>
    <contour>
      <point x="116" y="700" type="line"/>
      <point x="98" y="597" type="line"/>
      <point x="194" y="597" type="line"/>
      <point x="212" y="700" type="line"/>
    </contour>
    <contour>
      <point x="297" y="700" type="line"/>
      <point x="279" y="597" type="line"/>
      <point x="375" y="597" type="line"/>
      <point x="393" y="700" type="line"/>
    </contour>
    <component base="dotlessi"/>
  </outline>
</glyph>
<glyph name="eth" format="2">
  <advance width="600"/>
  <unicode hex="00F0"/>
  <outline>
    <contour>
      <point x="457" y="282" type="curve" smooth="yes"/>
      <point x="457" y="173"/>
      <point x="395" y="58"/>
      <point x="276" y="58" type="curve" smooth="yes"/>
      <point x="189" y="58"/>
      <point x="145" y="114"/>
      <point x="145" y="203" type="curve" smooth="yes"/>
      <point x="145" y="314"/>
      <point x="206" y="422"/>
      <point x="324" y="422" type="curve" smooth="yes"/>
      <point x="412" y="422"/>
      <point x="457" y="371"/>
    </contour>
    <contour>
      <point x="554" y="343" type="curve" smooth="yes"/>
      <point x="554" y="533"/>
      <point x="436" y="658"/>
      <point x="309" y="713" type="curve"/>
      <point x="214" y="693" type="line"/>
      <point x="374" y="619"/>
      <point x="443" y="529"/>
      <point x="464" y="417" type="curve"/>
      <point x="473" y="417" type="line"/>
      <point x="433" y="477"/>
      <point x="372" y="490"/>
      <point x="318" y="490" type="curve" smooth="yes"/>
      <point x="154" y="490"/>
      <point x="56" y="349"/>
      <point x="56" y="200" type="curve" smooth="yes"/>
      <point x="56" y="70"/>
      <point x="140" y="-12"/>
      <point x="268" y="-12" type="curve" smooth="yes"/>
      <point x="462" y="-12"/>
      <point x="554" y="158"/>
    </contour>
    <contour>
      <point x="226" y="518" type="line"/>
      <point x="550" y="637" type="line"/>
      <point x="532" y="693" type="line"/>
      <point x="208" y="574" type="line"/>
    </contour>
  </outline>
</glyph>
<glyph name="oslash" format="2">
  <advance width="600"/>
  <unicode hex="00F8"/>
  <outline>
    <contour>
      <point x="17.526" y="11.28" type="line"/>
      <point x="62.474" y="-34.28" type="line"/>
      <point x="582.474" y="478.72" type="line"/>
      <point x="537.526" y="524.28" type="line"/>
    </contour>
    <contour>
      <point x="265" y="-12" type="curve" smooth="yes"/>
      <point x="429" y="-12"/>
      <point x="544" y="123"/>
      <point x="544" y="287" type="curve" smooth="yes"/>
      <point x="544" y="418"/>
      <point x="455" y="502"/>
      <point x="335" y="502" type="curve" smooth="yes"/>
      <point x="171" y="502"/>
      <point x="56" y="367"/>
      <point x="56" y="203" type="curve" smooth="yes"/>
      <point x="56" y="72"/>
      <point x="145" y="-12"/>
    </contour>
    <contour>
      <point x="327" y="432" type="curve" smooth="yes"/>
      <point x="407" y="432"/>
      <point x="455" y="375"/>
      <point x="455" y="284" type="curve" smooth="yes"/>
      <point x="455" y="176"/>
      <point x="392" y="58"/>
      <point x="273" y="58" type="curve" smooth="yes"/>
      <point x="193" y="58"/>
      <point x="145" y="115"/>
      <point x="145" y="206" type="curve" smooth="yes"/>
      <point x="145" y="314"/>
      <point x="208" y="432"/>
    </contour>
  </outline>
</glyph>
<glyph name="dcroat" format="2">
  <advance width="600"/>
  <unicode hex="0111"/>
  <outline>
    <contour>
      <point x="324" y="554" type="line"/>
      <point x="632" y="554" type="line"/>
      <point x="644" y="619" type="line"/>
      <point x="336" y="619" type="line"/>
    </contour>
    <component base="d" identifier="966540F3"/>
  </outline>
</glyph>
<glyph name="Hbar" format="2">
  <advance width="680"/>
  <unicode hex="0126"/>
  <outline>
    <contour>
      <point x="92" y="500" type="line"/>
      <point x="678" y="500" type="line"/>
      <point x="692" y="578" type="line"/>
      <point x="106" y="578" type="line"/>
    </contour>
    <contour>
      <point x="164" y="300" type="line"/>
      <point x="537" y="300" type="line"/>
      <point x="551" y="382" type="line"/>
      <point x="178" y="382" type="line"/>
    </contour>
    <contour>
      <point x="562" y="700" type="line"/>
      <point x="439" y="0" type="line"/>
      <point x="530" y="0" type="line"/>
      <point x="653" y="700" type="line"/>
    </contour>
    <contour>
      <point x="187" y="700" type="line"/>
      <point x="64" y="0" type="line"/>
      <point x="155" y="0" type="line"/>
      <point x="278" y="700" type="line"/>
    </contour>
  </outline>
</glyph>
<glyph name="hbar" format="2">
  <advance width="600"/>
  <unicode hex="0127"/>
  <outline>
    <contour>
      <point x="387" y="554" type="line"/>
      <point x="399" y="619" type="line"/>
      <point x="91" y="619" type="line"/>
      <point x="79" y="554" type="line"/>
    </contour>
    <component base="h" identifier="26D7468B"/>
  </outline>
</glyph>
<glyph name="Itilde" format="2">
  <advance width="350"/>
  <unicode hex="0128"/>
  <outline>
    <contour>
      <point x="226" y="878" type="curve" smooth="yes"/>
      <point x="178" y="878"/>
      <point x="145" y="836"/>
      <point x="131" y="771" type="curve"/>
      <point x="188" y="771" type="line"/>
      <point x="196" y="799"/>
      <point x="205" y="812"/>
      <point x="221" y="812" type="curve" smooth="yes"/>
      <point x="249" y="812"/>
      <point x="285" y="778"/>
      <point x="328" y="778" type="curve" smooth="yes"/>
      <point x="376" y="778"/>
      <point x="409" y="820"/>
      <point x="423" y="885" type="curve"/>
      <point x="365" y="885" type="line"/>
      <point x="358" y="857"/>
      <point x="349" y="844"/>
      <point x="333" y="844" type="curve" smooth="yes"/>
      <point x="305" y="844"/>
      <point x="269" y="878"/>
    </contour>
    <component base="I"/>
  </outline>
</glyph>
<glyph name="itilde" format="2">
  <advance width="350"/>
  <unicode hex="0129"/>
  <outline>
    <contour>
      <point x="196" y="677" type="curve" smooth="yes"/>
      <point x="147" y="677"/>
      <point x="116" y="635"/>
      <point x="102" y="570" type="curve"/>
      <point x="160" y="570" type="line"/>
      <point x="168" y="598"/>
      <point x="175" y="612"/>
      <point x="192" y="612" type="curve" smooth="yes"/>
      <point x="219" y="612"/>
      <point x="254" y="579"/>
      <point x="296" y="579" type="curve" smooth="yes"/>
      <point x="345" y="579"/>
      <point x="376" y="621"/>
      <point x="390" y="686" type="curve"/>
      <point x="331" y="686" type="line"/>
      <point x="324" y="658"/>
      <point x="317" y="644"/>
      <point x="300" y="644" type="curve" smooth="yes"/>
      <point x="273" y="644"/>
      <point x="238" y="677"/>
    </contour>
    <component base="dotlessi"/>
  </outline>
</glyph>
<glyph name="Imacron" format="2">
  <advance width="350"/>
  <unicode hex="012A"/>
  <outline>
    <contour>
      <point x="134" y="776" type="line"/>
      <point x="408" y="776" type="line"/>
      <point x="420" y="844" type="line"/>
      <point x="146" y="844" type="line"/>
    </contour>
    <component base="I"/>
  </outline>
</glyph>
<glyph name="imacron" format="2">
  <advance width="350"/>
  <unicode hex="012B"/>
  <outline>
    <contour>
      <point x="106" y="604" type="line"/>
      <point x="374" y="604" type="line"/>
      <point x="386" y="670" type="line"/>
      <point x="118" y="670" type="line"/>
    </contour>
    <component base="dotlessi"/>
  </outline>
</glyph>
<glyph name="Ibreve" format="2">
  <advance width="350"/>
  <unicode hex="012C"/>
  <outline>
    <contour>
      <point x="152" y="892" type="line"/>
      <point x="140" y="822"/>
      <point x="185" y="761"/>
      <point x="273" y="761" type="curve" smooth="yes"/>
      <point x="362" y="761"/>
      <point x="414" y="822"/>
      <point x="426" y="892" type="curve"/>
      <point x="360" y="892" type="line"/>
      <point x="353" y="854"/>
      <point x="326" y="823"/>
      <point x="280" y="823" type="curve" smooth="yes"/>
      <point x="234" y="823"/>
      <point x="213" y="854"/>
      <point x="218" y="892" type="curve"/>
    </contour>
    <component base="I"/>
  </outline>
</glyph>
<glyph name="ibreve" format="2">
  <advance width="350"/>
  <unicode hex="012D"/>
  <outline>
    <contour>
      <point x="123" y="700" type="line"/>
      <point x="111" y="626"/>
      <point x="154" y="565"/>
      <point x="242" y="565" type="curve" smooth="yes"/>
      <point x="331" y="565"/>
      <point x="381" y="626"/>
      <point x="393" y="700" type="curve"/>
      <point x="327" y="700" type="line"/>
      <point x="321" y="658"/>
      <point x="293" y="627"/>
      <point x="248" y="627" type="curve" smooth="yes"/>
      <point x="203" y="627"/>
      <point x="183" y="658"/>
      <point x="189" y="700" type="curve"/>
    </contour>
    <component base="dotlessi"/>
  </outline>
</glyph>
<glyph name="IJ" format="2">
  <advance width="680"/>
  <unicode hex="0132"/>
  <outline>
    <contour>
      <point x="199" y="700" type="line"/>
      <point x="76" y="0" type="line"/>
      <point x="164" y="0" type="line"/>
      <point x="287" y="700" type="line"/>
    </contour>
    <contour>
      <point x="550" y="138" type="curve" smooth="yes"/>
      <point x="649" y="700" type="line"/>
      <point x="559" y="700" type="line"/>
      <point x="463" y="151" type="line" smooth="yes"/>
      <point x="453" y="97"/>
      <point x="420" y="69"/>
      <point x="364" y="69" type="curve" smooth="yes"/>
      <point x="333" y="69"/>
      <point x="294" y="77"/>
      <point x="256" y="90" type="curve"/>
      <point x="242" y="11" type="line"/>
      <point x="274" y="-2"/>
      <point x="325" y="-12"/>
      <point x="368" y="-12" type="curve" smooth="yes"/>
      <point x="469" y="-12"/>
      <point x="534" y="43"/>
    </contour>
  </outline>
</glyph>
<glyph name="ij" format="2">
  <advance width="600"/>
  <unicode hex="0133"/>
  <outline>
    <contour>
      <point x="86" y="69" type="line"/>
      <point x="74" y="0" type="line"/>
      <point x="162" y="0" type="line"/>
      <point x="173" y="69" type="line"/>
    </contour>
    <contour>
      <point x="160" y="490" type="line"/>
      <point x="148" y="421" type="line"/>
      <point x="235" y="421" type="line"/>
      <point x="248" y="490" type="line"/>
    </contour>
    <contour>
      <point x="160" y="490" type="line"/>
      <point x="74" y="0" type="line"/>
      <point x="162" y="0" type="line"/>
      <point x="248" y="490" type="line"/>
    </contour>
    <contour>
      <point x="193" y="700" type="line"/>
      <point x="175" y="597" type="line"/>
      <point x="271" y="597" type="line"/>
      <point x="289" y="700" type="line"/>
    </contour>
    <contour>
      <point x="427" y="-73" type="curve" smooth="yes"/>
      <point x="526" y="490" type="line"/>
      <point x="438" y="490" type="line"/>
      <point x="340" y="-65" type="line" smooth="yes"/>
      <point x="334" y="-101"/>
      <point x="313" y="-113"/>
      <point x="282" y="-113" type="curve" smooth="yes"/>
      <point x="257" y="-113"/>
      <point x="243" y="-110"/>
      <point x="228" y="-106" type="curve"/>
      <point x="216" y="-177" type="line"/>
      <point x="231" y="-183"/>
      <point x="258" y="-189"/>
      <point x="288" y="-189" type="curve" smooth="yes"/>
      <point x="350" y="-189"/>
      <point x="411" y="-165"/>
    </contour>
    <contour>
      <point x="427" y="428" type="line"/>
      <point x="475" y="428" type="line"/>
      <point x="486" y="490" type="line"/>
      <point x="438" y="490" type="line"/>
    </contour>
    <contour>
      <point x="471" y="700" type="line"/>
      <point x="453" y="597" type="line"/>
      <point x="549" y="597" type="line"/>
      <point x="567" y="700" type="line"/>
    </contour>
  </outline>
</glyph>
<glyph name="jcircumflex" format="2">
  <advance width="350"/>
  <unicode hex="0135"/>
  <outline>
    <contour>
      <point x="213" y="700" type="line"/>
      <point x="89" y="570" type="line"/>
      <point x="163" y="570" type="line"/>
      <point x="282" y="671" type="line"/>
      <point x="230" y="671" type="line"/>
      <point x="315" y="570" type="line"/>
      <point x="381" y="570" type="line"/>
      <point x="301" y="700" type="line"/>
    </contour>
    <component base="dotlessj"/>
  </outline>
</glyph>
<glyph name="Ldot" format="2">
  <advance width="600"/>
  <unicode hex="013F"/>
  <outline>
    <contour>
      <point x="428" y="442" type="line"/>
      <point x="407" y="326" type="line"/>
      <point x="506" y="326" type="line"/>
      <point x="527" y="442" type="line"/>
    </contour>
    <component base="L" identifier="A4E445D4"/>
  </outline>
</glyph>
<glyph name="Lslash" format="2">
  <advance width="600"/>
  <unicode hex="0141"/>
  <outline>
    <contour>
      <point x="31" y="212" type="line"/>
      <point x="433" y="380" type="line"/>
      <point x="448" y="466" type="line"/>
      <point x="47" y="297" type="line"/>
    </contour>
    <component base="L" identifier="34BC8FB7"/>
  </outline>
</glyph>
<glyph name="lslash" format="2">
  <advance width="350"/>
  <unicode hex="0142"/>
  <outline>
    <contour>
      <point x="47" y="320" type="line"/>
      <point x="32" y="240" type="line"/>
      <point x="349" y="421" type="line"/>
      <point x="362" y="500" type="line"/>
    </contour>
    <component base="l"/>
  </outline>
</glyph>
<glyph name="Eng" format="2">
  <advance width="680"/>
  <unicode hex="014A"/>
  <outline>
    <contour>
      <point x="298" y="-99" type="curve"/>
      <point x="284" y="-178" type="line"/>
      <point x="304" y="-184"/>
      <point x="332" y="-192"/>
      <point x="373" y="-192" type="curve" smooth="yes"/>
      <point x="474" y="-192"/>
      <point x="524" y="-144"/>
      <point x="539" y="-57" type="curve" smooth="yes"/>
      <point x="673" y="700" type="line"/>
      <point x="584" y="700" type="line"/>
      <point x="490" y="162" type="line"/>
      <point x="290" y="700" type="line"/>
      <point x="168" y="700" type="line"/>
      <point x="44" y="0" type="line"/>
      <point x="133" y="0" type="line"/>
      <point x="240" y="604" type="line"/>
      <point x="463" y="7" type="line"/>
      <point x="454" y="-47" type="line" smooth="yes"/>
      <point x="446" y="-90"/>
      <point x="421" y="-111"/>
      <point x="380" y="-111" type="curve" smooth="yes"/>
      <point x="349" y="-111"/>
      <point x="321" y="-105"/>
    </contour>
  </outline>
</glyph>
<glyph name="eng" format="2">
  <advance width="600"/>
  <unicode hex="014B"/>
  <outline>
    <contour>
      <point x="454" y="-73" type="curve" smooth="yes"/>
      <point x="523" y="317" type="line" smooth="yes"/>
      <point x="525" y="328"/>
      <point x="526" y="339"/>
      <point x="526" y="350" type="curve" smooth="yes"/>
      <point x="526" y="435"/>
      <point x="469" y="502"/>
      <point x="374" y="502" type="curve" smooth="yes"/>
      <point x="314" y="502"/>
      <point x="255" y="474"/>
      <point x="213" y="429" type="curve"/>
      <point x="224" y="490" type="line"/>
      <point x="136" y="490" type="line"/>
      <point x="50" y="0" type="line"/>
      <point x="138" y="0" type="line"/>
      <point x="191" y="308" type="line" smooth="yes"/>
      <point x="204" y="381"/>
      <point x="264" y="431"/>
      <point x="336" y="431" type="curve" smooth="yes"/>
      <point x="411" y="431"/>
      <point x="437" y="386"/>
      <point x="437" y="334" type="curve" smooth="yes"/>
      <point x="437" y="324"/>
      <point x="436" y="313"/>
      <point x="434" y="303" type="curve" smooth="yes"/>
      <point x="367" y="-67" type="line" smooth="yes"/>
      <point x="361" y="-100"/>
      <point x="338" y="-113"/>
      <point x="309" y="-113" type="curve" smooth="yes"/>
      <point x="292" y="-113"/>
      <point x="270" y="-109"/>
      <point x="254" y="-106" type="curve"/>
      <point x="241" y="-178" type="line"/>
      <point x="261" y="-183"/>
      <point x="286" y="-189"/>
      <point x="320" y="-189" type="curve" smooth="yes"/>
      <point x="395" y="-189"/>
      <point x="441" y="-149"/>
    </contour>
  </outline>
</glyph>
<glyph name="OE" format="2">
  <advance width="680"/>
  <unicode hex="0152"/>
  <outline>
    <contour>
      <point x="49" y="370" type="curve" smooth="yes"/>
      <point x="9" y="149"/>
      <point x="53" y="-12"/>
      <point x="188" y="-12" type="curve" smooth="yes"/>
      <point x="236" y="-12"/>
      <point x="277" y="11"/>
      <point x="312" y="55" type="curve"/>
      <point x="302" y="0" type="line"/>
      <point x="620" y="0" type="line"/>
      <point x="634" y="82" type="line"/>
      <point x="403" y="82" type="line"/>
      <point x="444" y="315" type="line"/>
      <point x="586" y="315" type="line"/>
      <point x="601" y="396" type="line"/>
      <point x="459" y="396" type="line"/>
      <point x="498" y="618" type="line"/>
      <point x="711" y="618" type="line"/>
      <point x="725" y="700" type="line"/>
      <point x="425" y="700" type="line"/>
      <point x="414" y="635" type="line"/>
      <point x="392" y="685"/>
      <point x="353" y="712"/>
      <point x="297" y="712" type="curve" smooth="yes"/>
      <point x="189" y="712"/>
      <point x="92" y="616"/>
    </contour>
    <contour>
      <point x="361" y="340" type="curve" smooth="yes"/>
      <point x="325" y="137"/>
      <point x="269" y="69"/>
      <point x="206" y="69" type="curve" smooth="yes"/>
      <point x="142" y="69"/>
      <point x="98" y="138"/>
      <point x="137" y="360" type="curve" smooth="yes"/>
      <point x="172" y="563"/>
      <point x="232" y="631"/>
      <point x="297" y="631" type="curve" smooth="yes"/>
      <point x="369" y="631"/>
      <point x="395" y="530"/>
    </contour>
  </outline>
</glyph>
<glyph name="oe" format="2">
  <advance width="680"/>
  <unicode hex="0153"/>
  <outline>
    <contour>
      <point x="517" y="502" type="curve" smooth="yes"/>
      <point x="382" y="502"/>
      <point x="312" y="328.054"/>
      <point x="312" y="169" type="curve" smooth="yes"/>
      <point x="312" y="55"/>
      <point x="367" y="-12"/>
      <point x="457" y="-12" type="curve" smooth="yes"/>
      <point x="537" y="-12"/>
      <point x="591" y="48"/>
      <point x="626" y="142" type="curve"/>
      <point x="562" y="161" type="line"/>
      <point x="542" y="92"/>
      <point x="502" y="59"/>
      <point x="458" y="59" type="curve" smooth="yes"/>
      <point x="413" y="59"/>
      <point x="384" y="98"/>
      <point x="384" y="174" type="curve" smooth="yes"/>
      <point x="384" y="282"/>
      <point x="438" y="431"/>
      <point x="513" y="431" type="curve" smooth="yes"/>
      <point x="553" y="431"/>
      <point x="578" y="399"/>
      <point x="578" y="330" type="curve" smooth="yes"/>
      <point x="578" y="307"/>
      <point x="575" y="279"/>
      <point x="569" y="247" type="curve"/>
      <point x="592" y="292" type="line"/>
      <point x="362" y="292" type="line"/>
      <point x="351" y="226" type="line"/>
      <point x="642" y="226" type="line"/>
      <point x="644" y="242" type="line" smooth="yes"/>
      <point x="649" y="270"/>
      <point x="651" y="296"/>
      <point x="651" y="321" type="curve" smooth="yes"/>
      <point x="651" y="429"/>
      <point x="604" y="502"/>
    </contour>
    <contour>
      <point x="313" y="311" type="curve" smooth="yes"/>
      <point x="313" y="195"/>
      <point x="253.881" y="59"/>
      <point x="185" y="59" type="curve" smooth="yes"/>
      <point x="141" y="59"/>
      <point x="114" y="102"/>
      <point x="114" y="175" type="curve" smooth="yes"/>
      <point x="114" y="293"/>
      <point x="164" y="431"/>
      <point x="240" y="431" type="curve" smooth="yes"/>
      <point x="285" y="431"/>
      <point x="313" y="387"/>
    </contour>
    <contour>
      <point x="243" y="502" type="curve" smooth="yes"/>
      <point x="99" y="502"/>
      <point x="30" y="332"/>
      <point x="30" y="174" type="curve" smooth="yes"/>
      <point x="30" y="48"/>
      <point x="90" y="-12"/>
      <point x="177" y="-12" type="curve" smooth="yes"/>
      <point x="325" y="-12"/>
      <point x="385" y="175.002"/>
      <point x="385" y="313" type="curve" smooth="yes"/>
      <point x="385" y="435"/>
      <point x="330" y="502"/>
    </contour>
  </outline>
</glyph>
<glyph name="tbar" format="2">
  <advance width="600"/>
  <unicode hex="0167"/>
  <outline>
    <contour>
      <point x="35" y="251" type="line"/>
      <point x="520" y="251" type="line"/>
      <point x="532" y="320" type="line"/>
      <point x="47" y="320" type="line"/>
    </contour>
    <component base="t" identifier="8E71DBA2"/>
  </outline>
</glyph>
<glyph name="Uogonek" format="2">
  <advance width="680"/>
  <unicode hex="0172"/>
  <outline>
    <contour>
      <point x="606" y="248" type="curve" smooth="yes"/>
      <point x="686" y="700" type="line"/>
      <point x="596" y="700" type="line"/>
      <point x="518" y="257" type="line" smooth="yes"/>
      <point x="498" y="141"/>
      <point x="432" y="71"/>
      <point x="321" y="71" type="curve" smooth="yes"/>
      <point x="222" y="71"/>
      <point x="166" y="128"/>
      <point x="166" y="223" type="curve" smooth="yes"/>
      <point x="166" y="238"/>
      <point x="167" y="253"/>
      <point x="170" y="270" type="curve" smooth="yes"/>
      <point x="246" y="700" type="line"/>
      <point x="155" y="700" type="line"/>
      <point x="78" y="267" type="line" smooth="yes"/>
      <point x="75" y="247"/>
      <point x="73" y="229"/>
      <point x="73" y="211" type="curve" smooth="yes"/>
      <point x="73" y="85"/>
      <point x="151" y="-1"/>
      <point x="285" y="-11" type="curve"/>
      <point x="243" y="-36"/>
      <point x="204" y="-71"/>
      <point x="204" y="-123" type="curve" smooth="yes"/>
      <point x="204" y="-165"/>
      <point x="229" y="-197"/>
      <point x="299" y="-197" type="curve" smooth="yes"/>
      <point x="316" y="-197"/>
      <point x="344" y="-195"/>
      <point x="368" y="-189" type="curve"/>
      <point x="379" y="-129" type="line"/>
      <point x="361" y="-131"/>
      <point x="345" y="-134"/>
      <point x="327" y="-134" type="curve" smooth="yes"/>
      <point x="300" y="-134"/>
      <point x="282" y="-127"/>
      <point x="282" y="-106" type="curve" smooth="yes"/>
      <point x="282" y="-72"/>
      <point x="330" y="-26"/>
      <point x="386" y="-9" type="curve" smooth="yes"/>
      <point x="509" y="27"/>
      <point x="581" y="107"/>
    </contour>
  </outline>
</glyph>
<glyph name="Bhook" format="2">
  <advance width="680"/>
  <unicode hex="0181"/>
  <outline>
    <contour>
      <point x="255" y="700" type="line"/>
      <point x="132" y="0" type="line"/>
      <point x="222" y="0" type="line"/>
      <point x="345" y="700" type="line"/>
    </contour>
    <contour>
      <point x="385" y="0" type="line" smooth="yes"/>
      <point x="532" y="0"/>
      <point x="631" y="111"/>
      <point x="631" y="224" type="curve" smooth="yes"/>
      <point x="631" y="289"/>
      <point x="597" y="344"/>
      <point x="544" y="362" type="curve"/>
      <point x="541" y="355" type="line"/>
      <point x="625" y="377"/>
      <point x="672" y="461"/>
      <point x="672" y="543" type="curve" smooth="yes"/>
      <point x="672" y="632"/>
      <point x="608" y="700"/>
      <point x="505" y="700" type="curve" smooth="yes"/>
      <point x="290" y="700" type="line"/>
      <point x="276" y="620" type="line"/>
      <point x="476" y="620" type="line" smooth="yes"/>
      <point x="542" y="620"/>
      <point x="582" y="585"/>
      <point x="582" y="530" type="curve" smooth="yes"/>
      <point x="582" y="465"/>
      <point x="538" y="399"/>
      <point x="451" y="399" type="curve" smooth="yes"/>
      <point x="236" y="399" type="line"/>
      <point x="222" y="320" type="line"/>
      <point x="427" y="320" type="line" smooth="yes"/>
      <point x="492" y="320"/>
      <point x="539" y="287"/>
      <point x="539" y="218" type="curve" smooth="yes"/>
      <point x="539" y="144"/>
      <point x="482" y="80"/>
      <point x="386" y="80" type="curve" smooth="yes"/>
      <point x="182" y="80" type="line"/>
      <point x="167" y="0" type="line"/>
    </contour>
    <contour>
      <point x="326" y="700" type="line"/>
      <point x="242" y="700" type="line" smooth="yes"/>
      <point x="144" y="700"/>
      <point x="83" y="637"/>
      <point x="71" y="566" type="curve" smooth="yes"/>
      <point x="63" y="520"/>
      <point x="70" y="476"/>
      <point x="80" y="452" type="curve"/>
      <point x="169" y="457" type="line"/>
      <point x="157" y="487"/>
      <point x="149" y="513"/>
      <point x="157" y="556" type="curve" smooth="yes"/>
      <point x="164" y="597"/>
      <point x="195" y="620"/>
      <point x="237" y="620" type="curve" smooth="yes"/>
      <point x="312" y="620" type="line"/>
    </contour>
  </outline>
</glyph>
<glyph name="Oopen" format="2">
  <advance width="680"/>
  <unicode hex="0186"/>
  <outline>
    <contour>
      <point x="293" y="-12" type="curve" smooth="yes"/>
      <point x="504" y="-12"/>
      <point x="650" y="188"/>
      <point x="650" y="420" type="curve" smooth="yes"/>
      <point x="650" y="597"/>
      <point x="548" y="712"/>
      <point x="387" y="712" type="curve" smooth="yes"/>
      <point x="252" y="712"/>
      <point x="134" y="627"/>
      <point x="76" y="498" type="curve"/>
      <point x="162" y="469" type="line"/>
      <point x="204" y="566"/>
      <point x="284" y="631"/>
      <point x="380" y="631" type="curve" smooth="yes"/>
      <point x="491" y="631"/>
      <point x="558" y="551"/>
      <point x="558" y="419" type="curve" smooth="yes"/>
      <point x="558" y="233"/>
      <point x="453" y="69"/>
      <point x="299" y="69" type="curve" smooth="yes"/>
      <point x="196" y="69"/>
      <point x="135" y="140"/>
      <point x="125" y="246" type="curve"/>
      <point x="34" y="224" type="line"/>
      <point x="49" y="85"/>
      <point x="146" y="-12"/>
    </contour>
  </outline>
</glyph>
<glyph name="Dhook" format="2">
  <advance width="680"/>
  <unicode hex="018A"/>
  <outline>
    <contour>
      <point x="319" y="700" type="line"/>
      <point x="235" y="700" type="line" smooth="yes"/>
      <point x="155" y="700"/>
      <point x="84" y="643"/>
      <point x="72" y="573" type="curve" smooth="yes"/>
      <point x="62" y="517"/>
      <point x="69" y="479"/>
      <point x="78" y="455" type="curve"/>
      <point x="167" y="460" type="line"/>
      <point x="155" y="489"/>
      <point x="150" y="515"/>
      <point x="157" y="555" type="curve" smooth="yes"/>
      <point x="164" y="597"/>
      <point x="195" y="620"/>
      <point x="224" y="620" type="curve" smooth="yes"/>
      <point x="305" y="620" type="line"/>
    </contour>
    <contour>
      <point x="135" y="0" type="line"/>
      <point x="225" y="0" type="line"/>
      <point x="348" y="700" type="line"/>
      <point x="258" y="700" type="line"/>
    </contour>
    <contour>
      <point x="163" y="80" type="line"/>
      <point x="149" y="0" type="line"/>
      <point x="328" y="0" type="line" smooth="yes"/>
      <point x="500" y="0"/>
      <point x="618" y="125"/>
      <point x="653" y="320" type="curve" smooth="yes"/>
      <point x="696" y="561"/>
      <point x="603" y="700"/>
      <point x="435" y="700" type="curve" smooth="yes"/>
      <point x="271" y="700" type="line"/>
      <point x="257" y="620" type="line"/>
      <point x="414" y="620" type="line" smooth="yes"/>
      <point x="534" y="620"/>
      <point x="599" y="526"/>
      <point x="564" y="330" type="curve" smooth="yes"/>
      <point x="535" y="169"/>
      <point x="454" y="80"/>
      <point x="328" y="80" type="curve" smooth="yes"/>
    </contour>
  </outline>
</glyph>
<glyph name="Ereversed" format="2">
  <advance width="600"/>
  <unicode hex="018E"/>
  <outline>
    <contour>
      <point x="578" y="700" type="line"/>
      <point x="487" y="700" type="line"/>
      <point x="364" y="0" type="line"/>
      <point x="455" y="0" type="line"/>
    </contour>
    <contour>
      <point x="529" y="618" type="line"/>
      <point x="543" y="700" type="line"/>
      <point x="147" y="700" type="line"/>
      <point x="133" y="618" type="line"/>
    </contour>
    <contour>
      <point x="465" y="315" type="line"/>
      <point x="480" y="396" type="line"/>
      <point x="232" y="396" type="line"/>
      <point x="217" y="315" type="line"/>
    </contour>
    <contour>
      <point x="416" y="0" type="line"/>
      <point x="430" y="82" type="line"/>
      <point x="20" y="82" type="line"/>
      <point x="6" y="0" type="line"/>
    </contour>
  </outline>
</glyph>
<glyph name="Schwa" format="2">
  <advance width="680"/>
  <unicode hex="018F"/>
  <outline>
    <contour>
      <point x="305" y="-12" type="curve" smooth="yes"/>
      <point x="533" y="-12"/>
      <point x="655" y="221"/>
      <point x="655" y="420" type="curve" smooth="yes"/>
      <point x="655" y="598"/>
      <point x="558" y="712"/>
      <point x="399" y="712" type="curve" smooth="yes"/>
      <point x="266" y="712"/>
      <point x="153" y="632"/>
      <point x="94" y="507" type="curve"/>
      <point x="171" y="477" type="line"/>
      <point x="213" y="564"/>
      <point x="293" y="632"/>
      <point x="392" y="632" type="curve" smooth="yes"/>
      <point x="504" y="632"/>
      <point x="564" y="549"/>
      <point x="564" y="419" type="curve" smooth="yes"/>
      <point x="564" y="271"/>
      <point x="482" y="69"/>
      <point x="313" y="69" type="curve" smooth="yes"/>
      <point x="207" y="69"/>
      <point x="141" y="147"/>
      <point x="141" y="272" type="curve" smooth="yes"/>
      <point x="141" y="298"/>
      <point x="145" y="324"/>
      <point x="150" y="352" type="curve"/>
      <point x="126" y="291" type="line"/>
      <point x="579" y="291" type="line"/>
      <point x="592" y="366" type="line"/>
      <point x="61" y="366" type="line"/>
      <point x="59" y="357" type="line" smooth="yes"/>
      <point x="55" y="328"/>
      <point x="52" y="301"/>
      <point x="52" y="273" type="curve" smooth="yes"/>
      <point x="52" y="110"/>
      <point x="144" y="-12"/>
    </contour>
  </outline>
</glyph>
<glyph name="Eopen" format="2">
  <advance width="680"/>
  <unicode hex="0190"/>
  <outline>
    <contour>
      <point x="597" y="189" type="curve"/>
      <point x="506" y="185" type="line"/>
      <point x="497" y="118"/>
      <point x="429" y="68"/>
      <point x="332" y="68" type="curve" smooth="yes"/>
      <point x="233" y="68"/>
      <point x="156" y="110"/>
      <point x="156" y="186" type="curve" smooth="yes"/>
      <point x="156" y="259"/>
      <point x="227" y="323"/>
      <point x="340" y="323" type="curve" smooth="yes"/>
      <point x="414" y="323" type="line"/>
      <point x="428" y="403" type="line"/>
      <point x="360" y="403" type="line" smooth="yes"/>
      <point x="279" y="403"/>
      <point x="230" y="437"/>
      <point x="230" y="497" type="curve" smooth="yes"/>
      <point x="230" y="568"/>
      <point x="302" y="633"/>
      <point x="414" y="633" type="curve" smooth="yes"/>
      <point x="501" y="633"/>
      <point x="558" y="580"/>
      <point x="558" y="520" type="curve" smooth="yes"/>
      <point x="558" y="515"/>
      <point x="558" y="513"/>
      <point x="557" y="506" type="curve"/>
      <point x="643" y="501" type="line"/>
      <point x="645" y="510"/>
      <point x="646" y="520"/>
      <point x="646" y="531" type="curve" smooth="yes"/>
      <point x="646" y="640"/>
      <point x="546" y="712"/>
      <point x="422" y="712" type="curve" smooth="yes"/>
      <point x="249" y="712"/>
      <point x="135" y="615"/>
      <point x="135" y="496" type="curve" smooth="yes"/>
      <point x="135" y="422"/>
      <point x="186" y="383"/>
      <point x="234" y="367" type="curve"/>
      <point x="235" y="373" type="line"/>
      <point x="137" y="357"/>
      <point x="62" y="276"/>
      <point x="62" y="174" type="curve" smooth="yes"/>
      <point x="62" y="57"/>
      <point x="170" y="-12"/>
      <point x="323" y="-12" type="curve" smooth="yes"/>
      <point x="466" y="-12"/>
      <point x="580" y="55"/>
    </contour>
  </outline>
</glyph>
<glyph name="Nhookleft" format="2">
  <advance width="680"/>
  <unicode hex="019D"/>
  <outline>
    <contour>
      <point x="-78" y="-102" type="curve"/>
      <point x="-92" y="-182" type="line"/>
      <point x="-73" y="-188"/>
      <point x="-45" y="-192"/>
      <point x="-23" y="-192" type="curve" smooth="yes"/>
      <point x="49" y="-192"/>
      <point x="105" y="-152"/>
      <point x="121" y="-66" type="curve" smooth="yes"/>
      <point x="239" y="602" type="line"/>
      <point x="451" y="0" type="line"/>
      <point x="549" y="0" type="line"/>
      <point x="673" y="700" type="line"/>
      <point x="584" y="700" type="line"/>
      <point x="485" y="144" type="line"/>
      <point x="290" y="700" type="line"/>
      <point x="168" y="700" type="line"/>
      <point x="34" y="-58" type="line" smooth="yes"/>
      <point x="27" y="-99"/>
      <point x="2" y="-111"/>
      <point x="-23" y="-111" type="curve" smooth="yes"/>
      <point x="-38" y="-111"/>
      <point x="-59" y="-108"/>
    </contour>
  </outline>
</glyph>
<glyph name="Yhook" format="2">
  <advance width="680"/>
  <unicode hex="01B3"/>
  <outline>
    <contour>
      <point x="631" y="596" type="line" smooth="yes"/>
      <point x="650" y="620"/>
      <point x="667" y="627"/>
      <point x="683" y="627" type="curve" smooth="yes"/>
      <point x="697" y="627"/>
      <point x="705" y="624"/>
      <point x="715" y="619" type="curve"/>
      <point x="733" y="700" type="line"/>
      <point x="722" y="707"/>
      <point x="705" y="712"/>
      <point x="685" y="712" type="curve" smooth="yes"/>
      <point x="637" y="712"/>
      <point x="599" y="693"/>
      <point x="566" y="651" type="curve" smooth="yes"/>
      <point x="325" y="344" type="line"/>
      <point x="376" y="344" type="line"/>
      <point x="222" y="700" type="line"/>
      <point x="127" y="700" type="line"/>
      <point x="303" y="297" type="line"/>
      <point x="251" y="0" type="line"/>
      <point x="342" y="0" type="line"/>
      <point x="394" y="297" type="line"/>
    </contour>
  </outline>
</glyph>
<glyph name="Icaron" format="2">
  <advance width="350"/>
  <unicode hex="01CF"/>
  <outline>
    <contour>
      <point x="311" y="771" type="line"/>
      <point x="444" y="892" type="line"/>
      <point x="368" y="892" type="line"/>
      <point x="245" y="808" type="line"/>
      <point x="297" y="808" type="line"/>
      <point x="204" y="892" type="line"/>
      <point x="132" y="892" type="line"/>
      <point x="221" y="771" type="line"/>
    </contour>
    <component base="I"/>
  </outline>
</glyph>
<glyph name="Oogonek" format="2">
  <advance width="680"/>
  <unicode hex="01EA"/>
  <outline>
    <contour>
      <point x="663" y="419" type="curve" smooth="yes"/>
      <point x="663" y="596"/>
      <point x="564" y="712"/>
      <point x="406" y="712" type="curve" smooth="yes"/>
      <point x="200" y="712"/>
      <point x="55" y="513"/>
      <point x="55" y="282" type="curve" smooth="yes"/>
      <point x="55" y="119"/>
      <point x="139" y="8"/>
      <point x="276" y="-10" type="curve"/>
      <point x="232" y="-35"/>
      <point x="192" y="-70"/>
      <point x="192" y="-123" type="curve" smooth="yes"/>
      <point x="192" y="-165"/>
      <point x="217" y="-197"/>
      <point x="287" y="-197" type="curve" smooth="yes"/>
      <point x="304" y="-197"/>
      <point x="332" y="-195"/>
      <point x="356" y="-189" type="curve"/>
      <point x="367" y="-129" type="line"/>
      <point x="349" y="-131"/>
      <point x="333" y="-134"/>
      <point x="315" y="-134" type="curve" smooth="yes"/>
      <point x="288" y="-134"/>
      <point x="270" y="-127"/>
      <point x="270" y="-106" type="curve" smooth="yes"/>
      <point x="270" y="-73"/>
      <point x="330" y="-20"/>
      <point x="375" y="-8" type="curve" smooth="yes"/>
      <point x="550" y="37"/>
      <point x="663" y="207"/>
    </contour>
    <contour>
      <point x="320" y="69" type="curve" smooth="yes"/>
      <point x="211" y="69"/>
      <point x="146" y="149"/>
      <point x="146" y="281" type="curve" smooth="yes"/>
      <point x="146" y="469"/>
      <point x="249" y="631"/>
      <point x="399" y="631" type="curve" smooth="yes"/>
      <point x="507" y="631"/>
      <point x="572" y="552"/>
      <point x="572" y="421" type="curve" smooth="yes"/>
      <point x="572" y="231"/>
      <point x="469" y="69"/>
    </contour>
  </outline>
</glyph>
<glyph name="dotlessj" format="2">
  <advance width="350"/>
  <unicode hex="0237"/>
  <outline>
    <contour>
      <point x="163" y="-73" type="curve" smooth="yes"/>
      <point x="262" y="490" type="line"/>
      <point x="174" y="490" type="line"/>
      <point x="76" y="-65" type="line" smooth="yes"/>
      <point x="70" y="-101"/>
      <point x="49" y="-113"/>
      <point x="18" y="-113" type="curve" smooth="yes"/>
      <point x="-7" y="-113"/>
      <point x="-21" y="-110"/>
      <point x="-36" y="-106" type="curve"/>
      <point x="-48" y="-177" type="line"/>
      <point x="-33" y="-183"/>
      <point x="-6" y="-189"/>
      <point x="24" y="-189" type="curve" smooth="yes"/>
      <point x="86" y="-189"/>
      <point x="147" y="-165"/>
    </contour>
    <contour>
      <point x="163" y="428" type="line"/>
      <point x="211" y="428" type="line"/>
      <point x="222" y="490" type="line"/>
      <point x="174" y="490" type="line"/>
    </contour>
  </outline>
</glyph>
<glyph name="schwa" format="2">
  <advance width="600"/>
  <unicode hex="0259"/>
  <outline>
    <contour>
      <point x="544" y="286" type="curve" smooth="yes"/>
      <point x="544" y="418"/>
      <point x="461" y="502"/>
      <point x="322" y="502" type="curve" smooth="yes"/>
      <point x="211" y="502"/>
      <point x="123" y="437"/>
      <point x="85" y="357" type="curve"/>
      <point x="158" y="329" type="line"/>
      <point x="187" y="389"/>
      <point x="240" y="432"/>
      <point x="321" y="432" type="curve" smooth="yes"/>
      <point x="410" y="432"/>
      <point x="456" y="378"/>
      <point x="456" y="284" type="curve" smooth="yes"/>
      <point x="456" y="176"/>
      <point x="397" y="58"/>
      <point x="270" y="58" type="curve" smooth="yes"/>
      <point x="167" y="58"/>
      <point x="136" y="124"/>
      <point x="136" y="196" type="curve" smooth="yes"/>
      <point x="136" y="213"/>
      <point x="138" y="231"/>
      <point x="141" y="248" type="curve"/>
      <point x="111" y="198" type="line"/>
      <point x="480" y="198" type="line"/>
      <point x="492" y="262" type="line"/>
      <point x="60" y="264" type="line"/>
      <point x="58" y="252" type="line" smooth="yes"/>
      <point x="55" y="234"/>
      <point x="54" y="217"/>
      <point x="54" y="200" type="curve" smooth="yes"/>
      <point x="54" y="81"/>
      <point x="127" y="-12"/>
      <point x="261" y="-12" type="curve" smooth="yes"/>
      <point x="434" y="-12"/>
      <point x="544" y="127"/>
    </contour>
  </outline>
</glyph>
<glyph name="nretroflex" format="2">
  <advance width="600"/>
  <unicode hex="0273"/>
  <outline>
    <contour>
      <point x="136" y="490" type="line"/>
      <point x="50" y="0" type="line"/>
      <point x="138" y="0" type="line"/>
      <point x="190" y="298" type="line" smooth="yes"/>
      <point x="204" y="377"/>
      <point x="266" y="431"/>
      <point x="342" y="431" type="curve" smooth="yes"/>
      <point x="405" y="431"/>
      <point x="436" y="392"/>
      <point x="436" y="336" type="curve" smooth="yes"/>
      <point x="436" y="327"/>
      <point x="435" y="317"/>
      <point x="433" y="307" type="curve" smooth="yes"/>
      <point x="368" y="-63" type="line" smooth="yes"/>
      <point x="366" y="-73"/>
      <point x="365" y="-81"/>
      <point x="365" y="-90" type="curve" smooth="yes"/>
      <point x="365" y="-159"/>
      <point x="422" y="-189"/>
      <point x="481" y="-189" type="curve" smooth="yes"/>
      <point x="501" y="-189"/>
      <point x="522" y="-188"/>
      <point x="541" y="-182" type="curve"/>
      <point x="554" y="-110" type="line"/>
      <point x="534" y="-113"/>
      <point x="519" y="-113"/>
      <point x="509" y="-113" type="curve" smooth="yes"/>
      <point x="472" y="-113"/>
      <point x="455" y="-99"/>
      <point x="455" y="-71" type="curve" smooth="yes"/>
      <point x="455" y="-67"/>
      <point x="455" y="-63"/>
      <point x="456" y="-58" type="curve" smooth="yes"/>
      <point x="524" y="322" type="line" smooth="yes"/>
      <point x="526" y="334"/>
      <point x="527" y="346"/>
      <point x="527" y="358" type="curve" smooth="yes"/>
      <point x="527" y="440"/>
      <point x="476" y="502"/>
      <point x="384" y="502" type="curve" smooth="yes"/>
      <point x="319" y="502"/>
      <point x="258" y="472"/>
      <point x="213" y="425" type="curve"/>
      <point x="224" y="490" type="line"/>
    </contour>
  </outline>
</glyph>
<glyph name="vturned" format="2">
  <advance width="600"/>
  <unicode hex="028C"/>
  <outline>
    <contour>
      <point x="389" y="490" type="line"/>
      <point x="295" y="490" type="line"/>
      <point x="-1" y="0" type="line"/>
      <point x="96" y="0" type="line"/>
      <point x="357" y="442" type="line"/>
      <point x="319" y="442" type="line"/>
      <point x="428" y="0" type="line"/>
      <point x="515" y="0" type="line"/>
    </contour>
  </outline>
</glyph>
<glyph name="ringhalfleftmod" format="2">
  <advance width="350"/>
  <unicode hex="02BF"/>
  <outline>
    <contour>
      <point x="314" y="629" type="curve"/>
      <point x="333" y="629" type="line"/>
      <point x="346" y="700" type="line"/>
      <point x="331" y="700" type="line" smooth="yes"/>
      <point x="200" y="700"/>
      <point x="136" y="613"/>
      <point x="136" y="517" type="curve" smooth="yes"/>
      <point x="136" y="427"/>
      <point x="195" y="375"/>
      <point x="281" y="375" type="curve" smooth="yes"/>
      <point x="288" y="375" type="line"/>
      <point x="301" y="446" type="line"/>
      <point x="292" y="446" type="line" smooth="yes"/>
      <point x="242" y="446"/>
      <point x="213" y="478"/>
      <point x="213" y="524" type="curve" smooth="yes"/>
      <point x="213" y="580"/>
      <point x="256" y="629"/>
    </contour>
  </outline>
</glyph>
<glyph name="macroncmb" format="2">
  <advance width="600"/>
  <unicode hex="0304"/>
  <outline>
    <contour>
      <point x="231" y="604" type="line"/>
      <point x="499" y="604" type="line"/>
      <point x="511" y="670" type="line"/>
      <point x="243" y="670" type="line"/>
    </contour>
  </outline>
</glyph>
<glyph name="dotaccentcmb" format="2">
  <advance width="600"/>
  <unicode hex="0307"/>
  <outline>
    <contour>
      <point x="332" y="700" type="line"/>
      <point x="314" y="597" type="line"/>
      <point x="410" y="597" type="line"/>
      <point x="428" y="700" type="line"/>
    </contour>
  </outline>
</glyph>
<glyph name="hungarumlautcmb" format="2">
  <advance width="600"/>
  <unicode hex="030B"/>
  <guideline x="266" y="570" angle="90" name="center" identifier="FZMYkcTi63"/>
  <outline>
    <contour>
      <point x="308" y="700" type="line"/>
      <point x="230" y="570" type="line"/>
      <point x="302" y="570" type="line"/>
      <point x="392" y="700" type="line"/>
    </contour>
    <contour>
      <point x="444" y="700" type="line"/>
      <point x="366" y="570" type="line"/>
      <point x="438" y="570" type="line"/>
      <point x="528" y="700" type="line"/>
    </contour>
  </outline>
</glyph>
<glyph name="lmacrondot" format="2">
  <advance width="350"/>
  <unicode hex="1E39"/>
  <outline>
    <contour>
      <point x="133" y="776" type="line"/>
      <point x="407" y="776" type="line"/>
      <point x="419" y="844" type="line"/>
      <point x="145" y="844" type="line"/>
    </contour>
    <component base="l"/>
    <component base="dotbelowcmb" xOffset="-125"/>
  </outline>
</glyph>
<glyph name="rlinebelow" format="2">
  <advance width="600"/>
  <unicode hex="1E5F"/>
  <outline>
    <contour>
      <point x="-17" y="-152" type="line"/>
      <point x="251" y="-152" type="line"/>
      <point x="263" y="-86" type="line"/>
      <point x="-5" y="-86" type="line"/>
    </contour>
    <component base="r"/>
  </outline>
</glyph>
<glyph name="Germandbls" format="2">
  <advance width="680"/>
  <unicode hex="1E9E"/>
  <outline>
    <contour>
      <point x="183" y="700" type="line"/>
      <point x="60" y="0" type="line"/>
      <point x="151" y="0" type="line"/>
      <point x="274" y="700" type="line"/>
    </contour>
    <contour>
      <point x="653" y="618" type="line"/>
      <point x="667" y="700" type="line"/>
      <point x="218" y="700" type="line"/>
      <point x="204" y="618" type="line"/>
      <point x="609" y="618" type="line"/>
      <point x="572" y="649" type="line"/>
      <point x="318" y="420" type="line"/>
      <point x="306" y="351" type="line"/>
      <point x="398" y="351" type="line" smooth="yes"/>
      <point x="488" y="351"/>
      <point x="539" y="307"/>
      <point x="539" y="230" type="curve" smooth="yes"/>
      <point x="539" y="142"/>
      <point x="483" y="68"/>
      <point x="376" y="68" type="curve"/>
      <point x="333" y="68"/>
      <point x="290" y="75"/>
      <point x="246" y="89" type="curve"/>
      <point x="232" y="10" type="line"/>
      <point x="277" y="-5"/>
      <point x="325" y="-12"/>
      <point x="371" y="-12" type="curve"/>
      <point x="537" y="-12"/>
      <point x="631" y="107"/>
      <point x="631" y="235" type="curve" smooth="yes"/>
      <point x="631" y="346"/>
      <point x="557" y="426"/>
      <point x="430" y="426" type="curve" smooth="yes"/>
      <point x="371" y="426" type="line"/>
      <point x="413" y="405" type="line"/>
    </contour>
  </outline>
</glyph>
<glyph name="Uhornhoi" format="2">
  <advance width="680"/>
  <unicode hex="1EEC"/>
  <outline>
    <contour>
      <point x="606" y="248" type="curve" smooth="yes"/>
      <point x="686" y="700" type="line"/>
      <point x="596" y="700" type="line"/>
      <point x="518" y="257" type="line" smooth="yes"/>
      <point x="498" y="141"/>
      <point x="432" y="71"/>
      <point x="321" y="71" type="curve" smooth="yes"/>
      <point x="222" y="71"/>
      <point x="166" y="128"/>
      <point x="166" y="223" type="curve" smooth="yes"/>
      <point x="166" y="238"/>
      <point x="167" y="253"/>
      <point x="170" y="270" type="curve" smooth="yes"/>
      <point x="246" y="700" type="line"/>
      <point x="155" y="700" type="line"/>
      <point x="78" y="267" type="line" smooth="yes"/>
      <point x="75" y="247"/>
      <point x="73" y="229"/>
      <point x="73" y="211" type="curve" smooth="yes"/>
      <point x="73" y="77"/>
      <point x="162" y="-12"/>
      <point x="313" y="-12" type="curve" smooth="yes"/>
      <point x="477" y="-12"/>
      <point x="577" y="84"/>
    </contour>
    <contour>
      <point x="720" y="791" type="line"/>
      <point x="720" y="786"/>
      <point x="720" y="781"/>
      <point x="720" y="776" type="curve" smooth="yes"/>
      <point x="720" y="724"/>
      <point x="710" y="700"/>
      <point x="663" y="700" type="curve" smooth="yes"/>
      <point x="598" y="700" type="line"/>
      <point x="587" y="638" type="line"/>
      <point x="664" y="638" type="line" smooth="yes"/>
      <point x="767" y="638"/>
      <point x="789" y="696"/>
      <point x="789" y="773" type="curve" smooth="yes"/>
      <point x="789" y="780"/>
      <point x="789" y="786"/>
      <point x="788" y="791" type="curve"/>
    </contour>
    <component base="hookabovecmb.uc" xOffset="62"/>
  </outline>
</glyph>
<glyph name="quotedblleft" format="2">
  <advance width="600"/>
  <unicode hex="201C"/>
  <outline>
    <contour>
      <point x="469" y="446" type="line"/>
      <point x="493" y="581" type="line"/>
      <point x="436" y="581" type="line"/>
      <point x="438" y="591" type="line" smooth="yes"/>
      <point x="446" y="635"/>
      <point x="478" y="662"/>
      <point x="526" y="662" type="curve"/>
      <point x="535" y="712" type="line"/>
      <point x="429" y="712"/>
      <point x="389" y="636"/>
      <point x="381" y="591" type="curve" smooth="yes"/>
      <point x="355" y="446" type="line"/>
    </contour>
    <contour>
      <point x="289" y="446" type="line"/>
      <point x="313" y="581" type="line"/>
      <point x="256" y="581" type="line"/>
      <point x="258" y="591" type="line" smooth="yes"/>
      <point x="266" y="635"/>
      <point x="298" y="662"/>
      <point x="346" y="662" type="curve"/>
      <point x="355" y="712" type="line"/>
      <point x="249" y="712"/>
      <point x="209" y="636"/>
      <point x="201" y="591" type="curve" smooth="yes"/>
      <point x="175" y="446" type="line"/>
    </contour>
  </outline>
</glyph>
<glyph name="quotedblright" format="2">
  <advance width="600"/>
  <unicode hex="201D"/>
  <outline>
    <contour>
      <point x="246" y="700" type="line"/>
      <point x="222" y="565" type="line"/>
      <point x="279" y="565" type="line"/>
      <point x="277" y="555" type="line" smooth="yes"/>
      <point x="269" y="511"/>
      <point x="237" y="484"/>
      <point x="189" y="484" type="curve"/>
      <point x="180" y="434" type="line"/>
      <point x="286" y="434"/>
      <point x="326" y="510"/>
      <point x="334" y="555" type="curve" smooth="yes"/>
      <point x="360" y="700" type="line"/>
    </contour>
    <contour>
      <point x="426" y="700" type="line"/>
      <point x="402" y="565" type="line"/>
      <point x="459" y="565" type="line"/>
      <point x="457" y="555" type="line" smooth="yes"/>
      <point x="449" y="511"/>
      <point x="417" y="484"/>
      <point x="369" y="484" type="curve"/>
      <point x="360" y="434" type="line"/>
      <point x="466" y="434"/>
      <point x="506" y="510"/>
      <point x="514" y="555" type="curve" smooth="yes"/>
      <point x="540" y="700" type="line"/>
    </contour>
  </outline>
</glyph>
<glyph name="ellipsis" format="2">
  <advance width="680"/>
  <unicode hex="2026"/>
  <outline>
    <contour>
      <point x="36" y="134" type="line"/>
      <point x="13" y="0" type="line"/>
      <point x="127" y="0" type="line"/>
      <point x="150" y="134" type="line"/>
    </contour>
    <contour>
      <point x="263" y="134" type="line"/>
      <point x="240" y="0" type="line"/>
      <point x="354" y="0" type="line"/>
      <point x="377" y="134" type="line"/>
    </contour>
    <contour>
      <point x="490" y="134" type="line"/>
      <point x="467" y="0" type="line"/>
      <point x="581" y="0" type="line"/>
      <point x="604" y="134" type="line"/>
    </contour>
  </outline>
</glyph>
<glyph name="perthousand" format="2">
  <advance width="680"/>
  <unicode hex="2030"/>
  <outline>
    <contour>
      <point x="278" y="582" type="curve" smooth="yes"/>
      <point x="278" y="544"/>
      <point x="261" y="459"/>
      <point x="203" y="459" type="curve" smooth="yes"/>
      <point x="175" y="459"/>
      <point x="153" y="479"/>
      <point x="153" y="526" type="curve" smooth="yes"/>
      <point x="153" y="567"/>
      <point x="172" y="648"/>
      <point x="231" y="648" type="curve" smooth="yes"/>
      <point x="257" y="648"/>
      <point x="278" y="627"/>
    </contour>
    <contour>
      <point x="313" y="154" type="curve" smooth="yes"/>
      <point x="313" y="120"/>
      <point x="299" y="52"/>
      <point x="255" y="52" type="curve" smooth="yes"/>
      <point x="232" y="52"/>
      <point x="216" y="66"/>
      <point x="216" y="103" type="curve" smooth="yes"/>
      <point x="216" y="135"/>
      <point x="231" y="205"/>
      <point x="274" y="205" type="curve" smooth="yes"/>
      <point x="297" y="205"/>
      <point x="313" y="191"/>
    </contour>
    <contour>
      <point x="566" y="154" type="curve" smooth="yes"/>
      <point x="566" y="120"/>
      <point x="552" y="52"/>
      <point x="508" y="52" type="curve" smooth="yes"/>
      <point x="485" y="52"/>
      <point x="469" y="66"/>
      <point x="469" y="103" type="curve" smooth="yes"/>
      <point x="469" y="135"/>
      <point x="484" y="205"/>
      <point x="527" y="205" type="curve" smooth="yes"/>
      <point x="550" y="205"/>
      <point x="566" y="191"/>
    </contour>
    <contour>
      <point x="90" y="525" type="curve" smooth="yes"/>
      <point x="90" y="449"/>
      <point x="130" y="402"/>
      <point x="198" y="402" type="curve" smooth="yes"/>
      <point x="303" y="402"/>
      <point x="341" y="512"/>
      <point x="341" y="583" type="curve" smooth="yes"/>
      <point x="341" y="660"/>
      <point x="298" y="705"/>
      <point x="235" y="705" type="curve" smooth="yes"/>
      <point x="130" y="705"/>
      <point x="90" y="599"/>
    </contour>
    <contour>
      <point x="153" y="104" type="curve" smooth="yes"/>
      <point x="153" y="37"/>
      <point x="190" y="-5"/>
      <point x="250" y="-5" type="curve" smooth="yes"/>
      <point x="329" y="-5"/>
      <point x="376" y="70"/>
      <point x="376" y="150" type="curve" smooth="yes"/>
      <point x="376" y="217"/>
      <point x="340" y="262"/>
      <point x="279" y="262" type="curve" smooth="yes"/>
      <point x="186" y="262"/>
      <point x="153" y="163"/>
    </contour>
    <contour>
      <point x="406" y="104" type="curve" smooth="yes"/>
      <point x="406" y="37"/>
      <point x="443" y="-5"/>
      <point x="503" y="-5" type="curve" smooth="yes"/>
      <point x="582" y="-5"/>
      <point x="629" y="70"/>
      <point x="629" y="150" type="curve" smooth="yes"/>
      <point x="629" y="217"/>
      <point x="593" y="262"/>
      <point x="532" y="262" type="curve" smooth="yes"/>
      <point x="439" y="262"/>
      <point x="406" y="163"/>
    </contour>
    <contour>
      <point x="695" y="623" type="line"/>
      <point x="54" y="261" type="line"/>
      <point x="41" y="188" type="line"/>
      <point x="682" y="550" type="line"/>
    </contour>
  </outline>
</glyph>
<glyph name="fraction" format="2">
  <advance width="350"/>
  <unicode hex="2044"/>
  <outline>
    <contour>
      <point x="-34" y="0" type="line"/>
      <point x="52" y="0" type="line"/>
      <point x="671" y="700" type="line"/>
      <point x="585" y="700" type="line"/>
    </contour>
  </outline>
</glyph>
<glyph name="newsheqel" format="2">
  <advance width="680"/>
  <unicode hex="20AA"/>
  <outline>
    <contour>
      <point x="350" y="700" type="line" smooth="yes"/>
      <point x="479" y="700"/>
      <point x="523" y="635"/>
      <point x="502" y="518" type="curve" smooth="yes"/>
      <point x="443" y="184" type="line"/>
      <point x="363" y="184" type="line"/>
      <point x="422" y="516" type="line" smooth="yes"/>
      <point x="434" y="583"/>
      <point x="416" y="623"/>
      <point x="336" y="623" type="curve" smooth="yes"/>
      <point x="225" y="623" type="line"/>
      <point x="115" y="0" type="line"/>
      <point x="33" y="0" type="line"/>
      <point x="156" y="700" type="line"/>
    </contour>
    <contour>
      <point x="367" y="0" type="line" smooth="yes"/>
      <point x="238" y="0"/>
      <point x="194" y="66"/>
      <point x="215" y="183" type="curve" smooth="yes"/>
      <point x="274" y="516" type="line"/>
      <point x="354" y="516" type="line"/>
      <point x="295" y="184" type="line" smooth="yes"/>
      <point x="283" y="117"/>
      <point x="301" y="77"/>
      <point x="381" y="77" type="curve" smooth="yes"/>
      <point x="493" y="77" type="line"/>
      <point x="603" y="700" type="line"/>
      <point x="685" y="700" type="line"/>
      <point x="562" y="0" type="line"/>
    </contour>
  </outline>
</glyph>
<glyph name="cedi" format="2">
  <advance width="600"/>
  <unicode hex="20B5"/>
  <outline>
    <contour>
      <point x="586" y="478" type="line"/>
      <point x="584" y="616"/>
      <point x="525" y="712"/>
      <point x="398" y="712" type="curve" smooth="yes"/>
      <point x="196" y="712"/>
      <point x="82" y="471"/>
      <point x="82" y="253" type="curve" smooth="yes"/>
      <point x="82" y="88"/>
      <point x="160" y="-12"/>
      <point x="289" y="-12" type="curve" smooth="yes"/>
      <point x="416" y="-12"/>
      <point x="494" y="77"/>
      <point x="541" y="208" type="curve"/>
      <point x="464" y="227" type="line"/>
      <point x="434" y="139"/>
      <point x="382" y="63"/>
      <point x="297" y="63" type="curve" smooth="yes"/>
      <point x="216" y="63"/>
      <point x="171" y="131"/>
      <point x="171" y="248" type="curve" smooth="yes"/>
      <point x="171" y="421"/>
      <point x="245" y="635"/>
      <point x="388" y="635" type="curve" smooth="yes"/>
      <point x="476" y="635"/>
      <point x="507" y="561"/>
      <point x="506" y="465" type="curve"/>
    </contour>
    <contour>
      <point x="223" y="-112" type="line"/>
      <point x="291" y="-112" type="line"/>
      <point x="451" y="797" type="line"/>
      <point x="383" y="797" type="line"/>
    </contour>
  </outline>
</glyph>
<glyph name="trademark" format="2">
  <advance width="680"/>
  <unicode hex="2122"/>
  <outline>
    <contour>
      <point x="212" y="678" type="line"/>
      <point x="274" y="678" type="line"/>
      <point x="219" y="357" type="line"/>
      <point x="156" y="357" type="line"/>
    </contour>
    <contour>
      <point x="128" y="643" type="line"/>
      <point x="138" y="700" type="line"/>
      <point x="356" y="700" type="line"/>
      <point x="346" y="643" type="line"/>
    </contour>
    <contour>
      <point x="436" y="658" type="line"/>
      <point x="482" y="447" type="line"/>
      <point x="508" y="447" type="line"/>
      <point x="628" y="657" type="line"/>
      <point x="609" y="657" type="line"/>
      <point x="556" y="357" type="line"/>
      <point x="616" y="357" type="line"/>
      <point x="676" y="700" type="line"/>
      <point x="598" y="700" type="line"/>
      <point x="508" y="539" type="line"/>
      <point x="513" y="530" type="line"/>
      <point x="477" y="700" type="line"/>
      <point x="401" y="700" type="line"/>
      <point x="341" y="357" type="line"/>
      <point x="399" y="357" type="line"/>
      <point x="452" y="658" type="line"/>
    </contour>
  </outline>
</glyph>
<glyph name="onetenth" format="2">
  <advance width="680"/>
  <unicode hex="2152"/>
  <outline>
    <contour>
      <point x="275" y="0" type="line"/>
      <point x="340" y="0" type="line"/>
      <point x="388" y="274" type="line"/>
      <point x="329" y="274" type="line"/>
      <point x="321" y="226"/>
      <point x="305" y="212"/>
      <point x="244" y="212" type="curve"/>
      <point x="236" y="163" type="line"/>
      <point x="342" y="163" type="line"/>
      <point x="311" y="205" type="line"/>
    </contour>
    <contour>
      <point x="489" y="-5" type="curve" smooth="yes"/>
      <point x="553" y="-5"/>
      <point x="596" y="47"/>
      <point x="609" y="121" type="curve" smooth="yes"/>
      <point x="627" y="224"/>
      <point x="588" y="278"/>
      <point x="520" y="278" type="curve" smooth="yes"/>
      <point x="456" y="278"/>
      <point x="413" y="227"/>
      <point x="400" y="153" type="curve" smooth="yes"/>
      <point x="382" y="50"/>
      <point x="421" y="-5"/>
    </contour>
    <contour>
      <point x="153" y="386" type="line"/>
      <point x="220" y="386" type="line"/>
      <point x="275" y="700" type="line"/>
      <point x="216" y="700" type="line"/>
      <point x="207" y="646"/>
      <point x="188" y="629"/>
      <point x="118" y="629" type="curve"/>
      <point x="109" y="580" type="line"/>
      <point x="227" y="580" type="line"/>
      <point x="194" y="621" type="line"/>
    </contour>
    <contour>
      <point x="-3" y="0" type="line"/>
      <point x="70" y="0" type="line"/>
      <point x="550" y="700" type="line"/>
      <point x="477" y="700" type="line"/>
    </contour>
    <contour>
      <point x="493" y="48" type="curve" smooth="yes"/>
      <point x="462" y="48"/>
      <point x="449" y="81"/>
      <point x="460" y="144" type="curve" smooth="yes"/>
      <point x="469" y="193"/>
      <point x="490" y="226"/>
      <point x="519" y="226" type="curve" smooth="yes"/>
      <point x="549" y="226"/>
      <point x="559" y="193"/>
      <point x="548" y="130" type="curve" smooth="yes"/>
      <point x="539" y="81"/>
      <point x="521" y="48"/>
    </contour>
  </outline>
</glyph>
<glyph name="minus" format="2">
  <advance width="600"/>
  <unicode hex="2212"/>
  <outline>
    <contour>
      <point x="538" y="302" type="line"/>
      <point x="552" y="378" type="line"/>
      <point x="96" y="378" type="line"/>
      <point x="82" y="302" type="line"/>
    </contour>
  </outline>
</glyph>
<glyph name="notequal" format="2">
  <advance width="600"/>
  <unicode hex="2260"/>
  <outline>
    <contour>
      <point x="82" y="92" type="line"/>
      <point x="172" y="92" type="line"/>
      <point x="550" y="588" type="line"/>
      <point x="460" y="588" type="line"/>
    </contour>
    <component base="equal" identifier="88ECA618"/>
  </outline>
</glyph>
<glyph name="greaterequal" format="2">
  <advance width="600"/>
  <unicode hex="2265"/>
  <outline>
    <contour>
      <point x="28" y="0" type="line"/>
      <point x="42" y="76" type="line"/>
      <point x="498" y="76" type="line"/>
      <point x="484" y="0" type="line"/>
    </contour>
    <contour>
      <point x="545" y="342" type="line"/>
      <point x="560" y="428" type="line"/>
      <point x="137" y="619" type="line"/>
      <point x="123" y="538" type="line"/>
      <point x="488" y="374" type="line"/>
      <point x="493" y="403" type="line"/>
      <point x="70" y="239" type="line"/>
      <point x="55" y="151" type="line"/>
    </contour>
  </outline>
</glyph>
<glyph name="circlewhite" format="2">
  <advance width="680"/>
  <unicode hex="25CB"/>
  <outline>
    <contour>
      <point x="625" y="386" type="curve" smooth="yes"/>
      <point x="625" y="225"/>
      <point x="502" y="82"/>
      <point x="331" y="82" type="curve" smooth="yes"/>
      <point x="192" y="82"/>
      <point x="99" y="176"/>
      <point x="99" y="315" type="curve" smooth="yes"/>
      <point x="99" y="485"/>
      <point x="231" y="618"/>
      <point x="392" y="618" type="curve" smooth="yes"/>
      <point x="531" y="618"/>
      <point x="625" y="524"/>
    </contour>
    <contour>
      <point x="47" y="312" type="curve" smooth="yes"/>
      <point x="47" y="151"/>
      <point x="162" y="34"/>
      <point x="328" y="34" type="curve" smooth="yes"/>
      <point x="525" y="34"/>
      <point x="677" y="197"/>
      <point x="677" y="388" type="curve" smooth="yes"/>
      <point x="677" y="549"/>
      <point x="562" y="666"/>
      <point x="395" y="666" type="curve" smooth="yes"/>
      <point x="199" y="666"/>
      <point x="47" y="503"/>
    </contour>
  </outline>
</glyph>
<glyph name="circleblack" format="2">
  <advance width="680"/>
  <unicode hex="25CF"/>
  <outline>
    <contour>
      <point x="47" y="312" type="curve" smooth="yes"/>
      <point x="47" y="151"/>
      <point x="162" y="34"/>
      <point x="328" y="34" type="curve" smooth="yes"/>
      <point x="525" y="34"/>
      <point x="677" y="197"/>
      <point x="677" y="388" type="curve" smooth="yes"/>
      <point x="677" y="549"/>
      <point x="562" y="666"/>
      <point x="395" y="666" type="curve" smooth="yes"/>
      <point x="199" y="666"/>
      <point x="47" y="503"/>
    </contour>
  </outline>
</glyph>
<glyph name="onesanscircled" format="2">
  <advance width="680"/>
  <unicode hex="2780"/>
  <outline>
    <contour>
      <point x="372" y="507" type="line"/>
      <point x="362" y="453"/>
      <point x="347" y="436"/>
      <point x="273" y="436" type="curve"/>
      <point x="265" y="393" type="line"/>
      <point x="344" y="393" type="line"/>
      <point x="309" y="193" type="line"/>
      <point x="369" y="193" type="line"/>
      <point x="425" y="507" type="line"/>
    </contour>
    <component base="circlewhite" identifier="71EBEE20"/>
  </outline>
</glyph>
<glyph name="twosanscircled" format="2">
  <advance width="680"/>
  <unicode hex="2781"/>
  <outline>
    <contour>
      <point x="235" y="248" type="curve"/>
      <point x="225" y="193" type="line"/>
      <point x="448" y="193" type="line"/>
      <point x="458" y="250" type="line"/>
      <point x="326" y="250" type="line"/>
      <point x="427" y="315"/>
      <point x="486" y="356"/>
      <point x="486" y="424" type="curve" smooth="yes"/>
      <point x="486" y="469"/>
      <point x="459" y="512"/>
      <point x="384" y="512" type="curve" smooth="yes"/>
      <point x="298" y="512"/>
      <point x="262" y="451"/>
      <point x="262" y="407" type="curve" smooth="yes"/>
      <point x="262" y="397"/>
      <point x="264" y="388"/>
      <point x="268" y="378" type="curve"/>
      <point x="330" y="384" type="line"/>
      <point x="327" y="392"/>
      <point x="325" y="399"/>
      <point x="325" y="405" type="curve" smooth="yes"/>
      <point x="325" y="424"/>
      <point x="340" y="457"/>
      <point x="377" y="457" type="curve" smooth="yes"/>
      <point x="403" y="457"/>
      <point x="418" y="441"/>
      <point x="418" y="416" type="curve" smooth="yes"/>
      <point x="418" y="370"/>
      <point x="368" y="343"/>
    </contour>
    <component base="circlewhite" identifier="546EDB69"/>
  </outline>
</glyph>
<glyph name="threesanscircled" format="2">
  <advance width="680"/>
  <unicode hex="2782"/>
  <outline>
    <contour>
      <point x="237" y="297" type="line"/>
      <point x="234" y="288"/>
      <point x="233" y="280"/>
      <point x="233" y="272" type="curve" smooth="yes"/>
      <point x="233" y="216"/>
      <point x="280" y="189"/>
      <point x="341" y="189" type="curve" smooth="yes"/>
      <point x="419" y="189"/>
      <point x="471" y="235"/>
      <point x="471" y="296" type="curve" smooth="yes"/>
      <point x="471" y="326"/>
      <point x="455" y="346"/>
      <point x="425" y="355" type="curve"/>
      <point x="456" y="364"/>
      <point x="487" y="387"/>
      <point x="487" y="432" type="curve" smooth="yes"/>
      <point x="487" y="476"/>
      <point x="454" y="512"/>
      <point x="386" y="512" type="curve" smooth="yes"/>
      <point x="321" y="512"/>
      <point x="266" y="475"/>
      <point x="260" y="409" type="curve"/>
      <point x="327" y="413" type="line"/>
      <point x="328" y="440"/>
      <point x="350" y="459"/>
      <point x="380" y="459" type="curve" smooth="yes"/>
      <point x="406" y="459"/>
      <point x="419" y="443"/>
      <point x="419" y="424" type="curve" smooth="yes"/>
      <point x="419" y="403"/>
      <point x="404" y="381"/>
      <point x="370" y="381" type="curve" smooth="yes"/>
      <point x="343" y="381" type="line"/>
      <point x="335" y="329" type="line"/>
      <point x="359" y="329" type="line" smooth="yes"/>
      <point x="390" y="329"/>
      <point x="404" y="313"/>
      <point x="404" y="292" type="curve" smooth="yes"/>
      <point x="404" y="267"/>
      <point x="385" y="242"/>
      <point x="347" y="242" type="curve" smooth="yes"/>
      <point x="316" y="242"/>
      <point x="300" y="258"/>
      <point x="300" y="278" type="curve" smooth="yes"/>
      <point x="300" y="283"/>
      <point x="301" y="288"/>
      <point x="303" y="293" type="curve"/>
    </contour>
    <component base="circlewhite" identifier="98AFE9D2"/>
  </outline>
</glyph>
<glyph name="foursanscircled" format="2">
  <advance width="680"/>
  <unicode hex="2783"/>
  <outline>
    <contour>
      <point x="458" y="507" type="line"/>
      <point x="386" y="507" type="line"/>
      <point x="216" y="319" type="line"/>
      <point x="206" y="265" type="line"/>
      <point x="351" y="265" type="line"/>
      <point x="338" y="193" type="line"/>
      <point x="402" y="193" type="line"/>
      <point x="415" y="265" type="line"/>
      <point x="468" y="265" type="line"/>
      <point x="477" y="318" type="line"/>
      <point x="424" y="318" type="line"/>
    </contour>
    <contour>
      <point x="284" y="318" type="line"/>
      <point x="379" y="423" type="line"/>
      <point x="360" y="318" type="line"/>
    </contour>
    <component base="circlewhite" identifier="FFE99759"/>
  </outline>
</glyph>
<glyph name="fivesanscircled" format="2">
  <advance width="680"/>
  <unicode hex="2784"/>
  <outline>
    <contour>
      <point x="467" y="320" type="curve" smooth="yes"/>
      <point x="467" y="372"/>
      <point x="439" y="406"/>
      <point x="386" y="406" type="curve" smooth="yes"/>
      <point x="362" y="406"/>
      <point x="342" y="399"/>
      <point x="327" y="388" type="curve"/>
      <point x="344" y="451" type="line"/>
      <point x="482" y="451" type="line"/>
      <point x="492" y="507" type="line"/>
      <point x="298" y="507" type="line"/>
      <point x="252" y="330" type="line"/>
      <point x="313" y="325" type="line"/>
      <point x="324" y="343"/>
      <point x="341" y="356"/>
      <point x="362" y="356" type="curve" smooth="yes"/>
      <point x="387" y="356"/>
      <point x="400" y="339"/>
      <point x="400" y="312" type="curve" smooth="yes"/>
      <point x="400" y="279"/>
      <point x="382" y="241"/>
      <point x="343" y="241" type="curve" smooth="yes"/>
      <point x="315" y="241"/>
      <point x="299" y="262"/>
      <point x="304" y="288" type="curve"/>
      <point x="234" y="296" type="line"/>
      <point x="233" y="291"/>
      <point x="232" y="285"/>
      <point x="232" y="279" type="curve" smooth="yes"/>
      <point x="232" y="222"/>
      <point x="275" y="189"/>
      <point x="340" y="189" type="curve" smooth="yes"/>
      <point x="421" y="189"/>
      <point x="467" y="250"/>
    </contour>
    <component base="circlewhite" identifier="50FE7930"/>
  </outline>
</glyph>
<glyph name="sixsanscircled" format="2">
  <advance width="680"/>
  <unicode hex="2785"/>
  <outline>
    <contour>
      <point x="333" y="189" type="curve" smooth="yes"/>
      <point x="419" y="189"/>
      <point x="464" y="257"/>
      <point x="464" y="317" type="curve" smooth="yes"/>
      <point x="464" y="370"/>
      <point x="429" y="401"/>
      <point x="380" y="401" type="curve" smooth="yes"/>
      <point x="354" y="401"/>
      <point x="330" y="392"/>
      <point x="312" y="376" type="curve"/>
      <point x="325" y="429"/>
      <point x="354" y="457"/>
      <point x="384" y="457" type="curve" smooth="yes"/>
      <point x="404" y="457"/>
      <point x="418" y="444"/>
      <point x="414" y="423" type="curve"/>
      <point x="478" y="416" type="line"/>
      <point x="479" y="421"/>
      <point x="479" y="426"/>
      <point x="479" y="431" type="curve" smooth="yes"/>
      <point x="479" y="478"/>
      <point x="449" y="511"/>
      <point x="391" y="511" type="curve" smooth="yes"/>
      <point x="316" y="511"/>
      <point x="255" y="446"/>
      <point x="237" y="346" type="curve" smooth="yes"/>
      <point x="233" y="325"/>
      <point x="232" y="308"/>
      <point x="232" y="292" type="curve" smooth="yes"/>
      <point x="232" y="228"/>
      <point x="266" y="189"/>
    </contour>
    <contour>
      <point x="298" y="285" type="curve" smooth="yes"/>
      <point x="298" y="318"/>
      <point x="320" y="352"/>
      <point x="356" y="352" type="curve" smooth="yes"/>
      <point x="383" y="352"/>
      <point x="396" y="334"/>
      <point x="396" y="308" type="curve" smooth="yes"/>
      <point x="396" y="274"/>
      <point x="374" y="240"/>
      <point x="338" y="240" type="curve" smooth="yes"/>
      <point x="311" y="240"/>
      <point x="298" y="259"/>
    </contour>
    <component base="circlewhite" identifier="85A37C71"/>
  </outline>
</glyph>
<glyph name="sevensanscircled" format="2">
  <advance width="680"/>
  <unicode hex="2786"/>
  <outline>
    <contour>
      <point x="282" y="507" type="line"/>
      <point x="261" y="390" type="line"/>
      <point x="324" y="390" type="line"/>
      <point x="334" y="452" type="line"/>
      <point x="435" y="452" type="line"/>
      <point x="361" y="371"/>
      <point x="293" y="286"/>
      <point x="272" y="193" type="curve"/>
      <point x="343" y="193" type="line"/>
      <point x="369" y="298"/>
      <point x="443" y="385"/>
      <point x="517" y="471" type="curve"/>
      <point x="524" y="507" type="line"/>
    </contour>
    <component base="circlewhite" identifier="D999B6C3"/>
  </outline>
</glyph>
<glyph name="eightsanscircled" format="2">
  <advance width="680"/>
  <unicode hex="2787"/>
  <outline>
    <contour>
      <point x="471" y="295" type="curve" smooth="yes"/>
      <point x="471" y="327"/>
      <point x="452" y="347"/>
      <point x="424" y="358" type="curve"/>
      <point x="458" y="368"/>
      <point x="486" y="394"/>
      <point x="486" y="435" type="curve" smooth="yes"/>
      <point x="486" y="480"/>
      <point x="449" y="512"/>
      <point x="383" y="512" type="curve" smooth="yes"/>
      <point x="304" y="512"/>
      <point x="264" y="463"/>
      <point x="264" y="418" type="curve" smooth="yes"/>
      <point x="264" y="390"/>
      <point x="280" y="372"/>
      <point x="302" y="363" type="curve"/>
      <point x="262" y="351"/>
      <point x="230" y="321"/>
      <point x="230" y="273" type="curve" smooth="yes"/>
      <point x="230" y="223"/>
      <point x="272" y="189"/>
      <point x="339" y="189" type="curve" smooth="yes"/>
      <point x="426" y="189"/>
      <point x="471" y="245"/>
    </contour>
    <contour>
      <point x="328" y="419" type="curve" smooth="yes"/>
      <point x="328" y="441"/>
      <point x="349" y="461"/>
      <point x="379" y="461" type="curve" smooth="yes"/>
      <point x="405" y="461"/>
      <point x="421" y="448"/>
      <point x="421" y="428" type="curve" smooth="yes"/>
      <point x="421" y="405"/>
      <point x="400" y="384"/>
      <point x="369" y="384" type="curve" smooth="yes"/>
      <point x="344" y="384"/>
      <point x="328" y="398"/>
    </contour>
    <contour>
      <point x="405" y="295" type="curve" smooth="yes"/>
      <point x="405" y="271"/>
      <point x="386" y="239"/>
      <point x="345" y="239" type="curve" smooth="yes"/>
      <point x="315" y="239"/>
      <point x="297" y="256"/>
      <point x="297" y="281" type="curve" smooth="yes"/>
      <point x="297" y="305"/>
      <point x="314" y="335"/>
      <point x="356" y="335" type="curve" smooth="yes"/>
      <point x="386" y="335"/>
      <point x="405" y="320"/>
    </contour>
    <component base="circlewhite" identifier="93C438E6"/>
  </outline>
</glyph>
<glyph name="ninesanscircled" format="2">
  <advance width="680"/>
  <unicode hex="2788"/>
  <outline>
    <contour>
      <point x="381" y="512" type="curve" smooth="yes"/>
      <point x="297" y="512"/>
      <point x="251" y="448"/>
      <point x="251" y="386" type="curve" smooth="yes"/>
      <point x="251" y="331"/>
      <point x="288" y="300"/>
      <point x="338" y="300" type="curve" smooth="yes"/>
      <point x="363" y="300"/>
      <point x="386" y="308"/>
      <point x="404" y="324" type="curve"/>
      <point x="394" y="276"/>
      <point x="373" y="239"/>
      <point x="337" y="239" type="curve" smooth="yes"/>
      <point x="313" y="239"/>
      <point x="301" y="254"/>
      <point x="302" y="279" type="curve"/>
      <point x="234" y="289" type="line"/>
      <point x="234" y="284"/>
      <point x="233" y="280"/>
      <point x="233" y="274" type="curve" smooth="yes"/>
      <point x="233" y="222"/>
      <point x="268" y="189"/>
      <point x="331" y="189" type="curve" smooth="yes"/>
      <point x="414" y="189"/>
      <point x="457" y="245"/>
      <point x="476" y="353" type="curve" smooth="yes"/>
      <point x="481" y="376"/>
      <point x="483" y="394"/>
      <point x="483" y="410" type="curve" smooth="yes"/>
      <point x="483" y="471"/>
      <point x="447" y="512"/>
    </contour>
    <contour>
      <point x="360" y="349" type="curve" smooth="yes"/>
      <point x="336" y="349"/>
      <point x="319" y="365"/>
      <point x="319" y="394" type="curve" smooth="yes"/>
      <point x="319" y="427"/>
      <point x="340" y="460"/>
      <point x="375" y="460" type="curve" smooth="yes"/>
      <point x="399" y="460"/>
      <point x="416" y="444"/>
      <point x="416" y="415" type="curve" smooth="yes"/>
      <point x="416" y="381"/>
      <point x="395" y="349"/>
    </contour>
    <component base="circlewhite" identifier="75B0BAB5"/>
  </outline>
</glyph>
<glyph name="onesansnegativecircled" format="2">
  <advance width="680"/>
  <unicode hex="278A"/>
  <outline>
    <contour>
      <point x="380" y="507" type="curve"/>
      <point x="433" y="507" type="line"/>
      <point x="377" y="193" type="line"/>
      <point x="317" y="193" type="line"/>
      <point x="352" y="393" type="line"/>
      <point x="273" y="393" type="line"/>
      <point x="281" y="436" type="line"/>
      <point x="355" y="436"/>
      <point x="370" y="453"/>
    </contour>
    <component base="circleblack" identifier="DE22F43E"/>
  </outline>
</glyph>
<glyph name="twosansnegativecircled" format="2">
  <advance width="680"/>
  <unicode hex="278B"/>
  <outline>
    <contour>
      <point x="237" y="242" type="line"/>
      <point x="372" y="341"/>
      <point x="422" y="369"/>
      <point x="422" y="417" type="curve" smooth="yes"/>
      <point x="422" y="445"/>
      <point x="406" y="461"/>
      <point x="378" y="461" type="curve" smooth="yes"/>
      <point x="335" y="461"/>
      <point x="321" y="425"/>
      <point x="321" y="406" type="curve" smooth="yes"/>
      <point x="321" y="400"/>
      <point x="322" y="393"/>
      <point x="326" y="385" type="curve"/>
      <point x="271" y="380" type="line"/>
      <point x="266" y="389"/>
      <point x="265" y="397"/>
      <point x="265" y="407" type="curve" smooth="yes"/>
      <point x="265" y="449"/>
      <point x="299" y="512"/>
      <point x="384" y="512" type="curve" smooth="yes"/>
      <point x="456" y="512"/>
      <point x="482" y="469"/>
      <point x="482" y="425" type="curve" smooth="yes"/>
      <point x="482" y="357"/>
      <point x="425" y="316"/>
      <point x="318" y="245" type="curve"/>
      <point x="454" y="245" type="line"/>
      <point x="445" y="193" type="line"/>
      <point x="228" y="193" type="line"/>
    </contour>
    <component base="circleblack" identifier="5AA881AC"/>
  </outline>
</glyph>
<glyph name="threesansnegativecircled" format="2">
  <advance width="680"/>
  <unicode hex="278C"/>
  <outline>
    <contour>
      <point x="239" y="294" type="curve"/>
      <point x="298" y="290" type="line"/>
      <point x="296" y="285"/>
      <point x="295" y="281"/>
      <point x="295" y="276" type="curve" smooth="yes"/>
      <point x="295" y="255"/>
      <point x="311" y="237"/>
      <point x="345" y="237" type="curve" smooth="yes"/>
      <point x="386" y="237"/>
      <point x="407" y="264"/>
      <point x="407" y="290" type="curve" smooth="yes"/>
      <point x="407" y="313"/>
      <point x="392" y="331"/>
      <point x="359" y="331" type="curve" smooth="yes"/>
      <point x="335" y="331" type="line"/>
      <point x="343" y="379" type="line"/>
      <point x="369" y="379" type="line" smooth="yes"/>
      <point x="407" y="379"/>
      <point x="423" y="404"/>
      <point x="423" y="426" type="curve" smooth="yes"/>
      <point x="423" y="445"/>
      <point x="411" y="464"/>
      <point x="381" y="464" type="curve" smooth="yes"/>
      <point x="348" y="464"/>
      <point x="324" y="444"/>
      <point x="323" y="415" type="curve"/>
      <point x="263" y="412" type="line"/>
      <point x="268" y="476"/>
      <point x="323" y="512"/>
      <point x="386" y="512" type="curve" smooth="yes"/>
      <point x="449" y="512"/>
      <point x="483" y="477"/>
      <point x="483" y="431" type="curve" smooth="yes"/>
      <point x="483" y="386"/>
      <point x="453" y="364"/>
      <point x="422" y="355" type="curve"/>
      <point x="451" y="346"/>
      <point x="467" y="326"/>
      <point x="467" y="296" type="curve" smooth="yes"/>
      <point x="467" y="234"/>
      <point x="414" y="189"/>
      <point x="339" y="189" type="curve" smooth="yes"/>
      <point x="281" y="189"/>
      <point x="235" y="215"/>
      <point x="235" y="269" type="curve" smooth="yes"/>
      <point x="235" y="277"/>
      <point x="236" y="285"/>
    </contour>
    <component base="circleblack" identifier="AF9A5B29"/>
  </outline>
</glyph>
<glyph name="foursansnegativecircled" format="2">
  <advance width="680"/>
  <unicode hex="278D"/>
  <outline>
    <contour>
      <point x="455" y="507" type="line"/>
      <point x="421" y="315" type="line"/>
      <point x="474" y="315" type="line"/>
      <point x="465" y="266" type="line"/>
      <point x="412" y="266" type="line"/>
      <point x="399" y="193" type="line"/>
      <point x="340" y="193" type="line"/>
      <point x="353" y="266" type="line"/>
      <point x="208" y="266" type="line"/>
      <point x="217" y="317" type="line"/>
      <point x="390" y="507" type="line"/>
    </contour>
    <contour>
      <point x="280" y="315" type="line"/>
      <point x="362" y="315" type="line"/>
      <point x="382" y="426" type="line"/>
    </contour>
    <component base="circleblack" identifier="EF3A8457"/>
  </outline>
</glyph>
<glyph name="fivesansnegativecircled" format="2">
  <advance width="680"/>
  <unicode hex="278E"/>
  <outline>
    <contour>
      <point x="463" y="320" type="curve" smooth="yes"/>
      <point x="463" y="248"/>
      <point x="413" y="189"/>
      <point x="337" y="189" type="curve" smooth="yes"/>
      <point x="275" y="189"/>
      <point x="234" y="222"/>
      <point x="234" y="277" type="curve" smooth="yes"/>
      <point x="234" y="283"/>
      <point x="235" y="289"/>
      <point x="236" y="293" type="curve"/>
      <point x="300" y="285" type="line"/>
      <point x="294" y="258"/>
      <point x="311" y="236"/>
      <point x="341" y="236" type="curve" smooth="yes"/>
      <point x="384" y="236"/>
      <point x="403" y="278"/>
      <point x="403" y="313" type="curve" smooth="yes"/>
      <point x="403" y="343"/>
      <point x="389" y="361"/>
      <point x="362" y="361" type="curve" smooth="yes"/>
      <point x="340" y="361"/>
      <point x="321" y="347"/>
      <point x="309" y="325" type="curve"/>
      <point x="255" y="329" type="line"/>
      <point x="301" y="507" type="line"/>
      <point x="488" y="507" type="line"/>
      <point x="479" y="457" type="line"/>
      <point x="342" y="457" type="line"/>
      <point x="323" y="386" type="line"/>
      <point x="339" y="397"/>
      <point x="359" y="405"/>
      <point x="383" y="405" type="curve" smooth="yes"/>
      <point x="435" y="405"/>
      <point x="463" y="372"/>
    </contour>
    <component base="circleblack" identifier="FF2F0C22"/>
  </outline>
</glyph>
<glyph name="sixsansnegativecircled" format="2">
  <advance width="680"/>
  <unicode hex="278F"/>
  <outline>
    <contour>
      <point x="332" y="189" type="curve" smooth="yes"/>
      <point x="268" y="189"/>
      <point x="234" y="228"/>
      <point x="234" y="290" type="curve" smooth="yes"/>
      <point x="234" y="306"/>
      <point x="236" y="324"/>
      <point x="240" y="345" type="curve" smooth="yes"/>
      <point x="257" y="446"/>
      <point x="318" y="511"/>
      <point x="391" y="511" type="curve" smooth="yes"/>
      <point x="447" y="511"/>
      <point x="476" y="478"/>
      <point x="476" y="433" type="curve" smooth="yes"/>
      <point x="476" y="428"/>
      <point x="475" y="421"/>
      <point x="474" y="418" type="curve"/>
      <point x="417" y="425" type="line"/>
      <point x="422" y="448"/>
      <point x="406" y="462"/>
      <point x="385" y="462" type="curve" smooth="yes"/>
      <point x="352" y="462"/>
      <point x="321" y="431"/>
      <point x="307" y="374" type="curve"/>
      <point x="326" y="392"/>
      <point x="351" y="401"/>
      <point x="377" y="401" type="curve" smooth="yes"/>
      <point x="424" y="401"/>
      <point x="461" y="370"/>
      <point x="461" y="317" type="curve" smooth="yes"/>
      <point x="461" y="257"/>
      <point x="415" y="189"/>
    </contour>
    <contour>
      <point x="293" y="284" type="curve" smooth="yes"/>
      <point x="293" y="257"/>
      <point x="307" y="236"/>
      <point x="337" y="236" type="curve" smooth="yes"/>
      <point x="375" y="236"/>
      <point x="399" y="271"/>
      <point x="399" y="308" type="curve" smooth="yes"/>
      <point x="399" y="335"/>
      <point x="386" y="356"/>
      <point x="357" y="356" type="curve" smooth="yes"/>
      <point x="318" y="356"/>
      <point x="293" y="321"/>
    </contour>
    <component base="circleblack" identifier="4CAE5B98"/>
  </outline>
</glyph>
<glyph name="sevensansnegativecircled" format="2">
  <advance width="680"/>
  <unicode hex="2790"/>
  <outline>
    <contour>
      <point x="285" y="507" type="line"/>
      <point x="521" y="507" type="line"/>
      <point x="515" y="477" type="line"/>
      <point x="444" y="389"/>
      <point x="365" y="297"/>
      <point x="338" y="193" type="curve"/>
      <point x="276" y="193" type="line"/>
      <point x="297" y="286"/>
      <point x="368" y="375"/>
      <point x="440" y="457" type="curve"/>
      <point x="332" y="457" type="line"/>
      <point x="321" y="393" type="line"/>
      <point x="265" y="393" type="line"/>
    </contour>
    <component base="circleblack" identifier="78B9B7B5"/>
  </outline>
</glyph>
<glyph name="eightsansnegativecircled" format="2">
  <advance width="680"/>
  <unicode hex="2791"/>
  <outline>
    <contour>
      <point x="467" y="295" type="curve" smooth="yes"/>
      <point x="467" y="245"/>
      <point x="421" y="189"/>
      <point x="338" y="189" type="curve" smooth="yes"/>
      <point x="274" y="189"/>
      <point x="233" y="223"/>
      <point x="233" y="273" type="curve" smooth="yes"/>
      <point x="233" y="320"/>
      <point x="265" y="351"/>
      <point x="305" y="363" type="curve"/>
      <point x="283" y="372"/>
      <point x="267" y="391"/>
      <point x="267" y="418" type="curve" smooth="yes"/>
      <point x="267" y="461"/>
      <point x="306" y="512"/>
      <point x="383" y="512" type="curve" smooth="yes"/>
      <point x="446" y="512"/>
      <point x="483" y="480"/>
      <point x="483" y="435" type="curve" smooth="yes"/>
      <point x="483" y="394"/>
      <point x="454" y="369"/>
      <point x="421" y="359" type="curve"/>
      <point x="448" y="348"/>
      <point x="467" y="328"/>
    </contour>
    <contour>
      <point x="323" y="419" type="curve" smooth="yes"/>
      <point x="323" y="397"/>
      <point x="341" y="382"/>
      <point x="368" y="382" type="curve" smooth="yes"/>
      <point x="401" y="382"/>
      <point x="424" y="405"/>
      <point x="424" y="429" type="curve" smooth="yes"/>
      <point x="424" y="451"/>
      <point x="407" y="465"/>
      <point x="379" y="465" type="curve" smooth="yes"/>
      <point x="347" y="465"/>
      <point x="323" y="444"/>
    </contour>
    <contour>
      <point x="407" y="295" type="curve" smooth="yes"/>
      <point x="407" y="321"/>
      <point x="387" y="337"/>
      <point x="355" y="337" type="curve" smooth="yes"/>
      <point x="311" y="337"/>
      <point x="292" y="305"/>
      <point x="292" y="279" type="curve" smooth="yes"/>
      <point x="292" y="253"/>
      <point x="311" y="235"/>
      <point x="343" y="235" type="curve" smooth="yes"/>
      <point x="388" y="235"/>
      <point x="407" y="269"/>
    </contour>
    <component base="circleblack" identifier="0FC551B7"/>
  </outline>
</glyph>
<glyph name="ninesansnegativecircled" format="2">
  <advance width="680"/>
  <unicode hex="2792"/>
  <outline>
    <contour>
      <point x="381" y="512" type="curve" smooth="yes"/>
      <point x="442" y="512"/>
      <point x="480" y="474"/>
      <point x="480" y="412" type="curve" smooth="yes"/>
      <point x="480" y="396"/>
      <point x="477" y="377"/>
      <point x="472" y="353" type="curve" smooth="yes"/>
      <point x="453" y="245"/>
      <point x="410" y="189"/>
      <point x="329" y="189" type="curve" smooth="yes"/>
      <point x="267" y="189"/>
      <point x="235" y="222"/>
      <point x="235" y="271" type="curve" smooth="yes"/>
      <point x="235" y="277"/>
      <point x="236" y="281"/>
      <point x="236" y="286" type="curve"/>
      <point x="297" y="277" type="line"/>
      <point x="296" y="250"/>
      <point x="310" y="235"/>
      <point x="336" y="235" type="curve" smooth="yes"/>
      <point x="375" y="235"/>
      <point x="396" y="273"/>
      <point x="408" y="325" type="curve"/>
      <point x="390" y="308"/>
      <point x="366" y="299"/>
      <point x="341" y="299" type="curve" smooth="yes"/>
      <point x="292" y="299"/>
      <point x="254" y="331"/>
      <point x="254" y="386" type="curve" smooth="yes"/>
      <point x="254" y="449"/>
      <point x="301" y="512"/>
    </contour>
    <contour>
      <point x="314" y="393" type="curve" smooth="yes"/>
      <point x="314" y="362"/>
      <point x="333" y="345"/>
      <point x="359" y="345" type="curve" smooth="yes"/>
      <point x="397" y="345"/>
      <point x="420" y="381"/>
      <point x="420" y="416" type="curve" smooth="yes"/>
      <point x="420" y="447"/>
      <point x="400" y="464"/>
      <point x="375" y="464" type="curve" smooth="yes"/>
      <point x="336" y="464"/>
      <point x="314" y="429"/>
    </contour>
    <component base="circleblack" identifier="D7D9A346"/>
  </outline>
</glyph>
<glyph name="tensansnegativecircled" format="2">
  <advance width="680"/>
  <unicode hex="2793"/>
  <outline>
    <contour>
      <point x="540" y="398" type="curve" smooth="yes"/>
      <point x="540" y="321"/>
      <point x="510" y="189"/>
      <point x="407" y="189" type="curve" smooth="yes"/>
      <point x="354" y="189"/>
      <point x="319" y="227"/>
      <point x="319" y="303" type="curve" smooth="yes"/>
      <point x="319" y="379"/>
      <point x="351" y="512"/>
      <point x="452" y="512" type="curve" smooth="yes"/>
      <point x="506" y="512"/>
      <point x="540" y="474"/>
    </contour>
    <contour>
      <point x="269" y="507" type="curve"/>
      <point x="324" y="507" type="line"/>
      <point x="269" y="193" type="line"/>
      <point x="210" y="193" type="line"/>
      <point x="243" y="384" type="line"/>
      <point x="182" y="384" type="line"/>
      <point x="191" y="436" type="line"/>
      <point x="246" y="436"/>
      <point x="260" y="453"/>
    </contour>
    <contour>
      <point x="412" y="247" type="curve" smooth="yes"/>
      <point x="467" y="247"/>
      <point x="478" y="361"/>
      <point x="478" y="399" type="curve" smooth="yes"/>
      <point x="478" y="437"/>
      <point x="468" y="453"/>
      <point x="447" y="453" type="curve" smooth="yes"/>
      <point x="393" y="453"/>
      <point x="382" y="334"/>
      <point x="382" y="300" type="curve" smooth="yes"/>
      <point x="382" y="264"/>
      <point x="392" y="247"/>
    </contour>
    <component base="circleblack" identifier="36F333E4"/>
  </outline>
</glyph>
<glyph name="Euro.tab" format="2">
  <advance width="600"/>
  <outline>
    <contour>
      <point x="417" y="712" type="curve" smooth="yes"/>
      <point x="210" y="712"/>
      <point x="105" y="466"/>
      <point x="105" y="244" type="curve" smooth="yes"/>
      <point x="105" y="85"/>
      <point x="180" y="-12"/>
      <point x="306" y="-12" type="curve" smooth="yes"/>
      <point x="423" y="-12"/>
      <point x="508" y="76"/>
      <point x="554" y="210" type="curve"/>
      <point x="476" y="226" type="line"/>
      <point x="446" y="137"/>
      <point x="395" y="64"/>
      <point x="315" y="64" type="curve" smooth="yes"/>
      <point x="235" y="64"/>
      <point x="195" y="130"/>
      <point x="195" y="240" type="curve" smooth="yes"/>
      <point x="195" y="414"/>
      <point x="265" y="637"/>
      <point x="407" y="637" type="curve" smooth="yes"/>
      <point x="491" y="637"/>
      <point x="518" y="559"/>
      <point x="517" y="464" type="curve"/>
      <point x="599" y="480" type="line"/>
      <point x="598" y="615"/>
      <point x="539" y="712"/>
    </contour>
    <contour>
      <point x="64" y="388" type="line"/>
      <point x="386" y="388" type="line"/>
      <point x="414" y="458" type="line"/>
      <point x="77" y="458" type="line"/>
    </contour>
    <contour>
      <point x="40" y="248" type="line"/>
      <point x="332" y="248" type="line"/>
      <point x="359" y="318" type="line"/>
      <point x="52" y="318" type="line"/>
    </contour>
  </outline>
</glyph>
<glyph name="aogonek.alt1" format="2">
  <advance width="600"/>
  <outline>
    <contour>
      <point x="325" y="502" type="curve" smooth="yes"/>
      <point x="184" y="502"/>
      <point x="131" y="428"/>
      <point x="113" y="355" type="curve"/>
      <point x="199" y="339" type="line"/>
      <point x="211" y="387"/>
      <point x="234" y="429"/>
      <point x="316" y="429" type="curve" smooth="yes"/>
      <point x="388" y="429"/>
      <point x="429" y="403"/>
      <point x="418" y="340" type="curve" smooth="yes"/>
      <point x="389" y="174" type="line" smooth="yes"/>
      <point x="378" y="113"/>
      <point x="307" y="59"/>
      <point x="223" y="59" type="curve" smooth="yes"/>
      <point x="172" y="59"/>
      <point x="141" y="83"/>
      <point x="141" y="130" type="curve" smooth="yes"/>
      <point x="141" y="183"/>
      <point x="180" y="213"/>
      <point x="246" y="219" type="curve" smooth="yes"/>
      <point x="433" y="237" type="line"/>
      <point x="445" y="302" type="line"/>
      <point x="243" y="285" type="line" smooth="yes"/>
      <point x="133" y="275"/>
      <point x="51" y="226"/>
      <point x="51" y="124" type="curve" smooth="yes"/>
      <point x="51" y="40"/>
      <point x="110" y="-12"/>
      <point x="205" y="-12" type="curve" smooth="yes"/>
      <point x="288" y="-12"/>
      <point x="358" y="27"/>
      <point x="400" y="89" type="curve"/>
      <point x="378" y="93" type="line"/>
      <point x="371" y="55"/>
      <point x="367" y="32"/>
      <point x="367" y="0" type="curve"/>
      <point x="452" y="0" type="line"/>
      <point x="452" y="31"/>
      <point x="454" y="56"/>
      <point x="460" y="89" type="curve" smooth="yes"/>
      <point x="504" y="327" type="line" smooth="yes"/>
      <point x="525" y="439"/>
      <point x="462" y="502"/>
    </contour>
    <component base="ogonek" xOffset="127"/>
  </outline>
</glyph>
<glyph name="brevecmb.uc" format="2">
  <advance width="600"/>
  <outline>
    <contour>
      <point x="276" y="892" type="line"/>
      <point x="264" y="822"/>
      <point x="309" y="761"/>
      <point x="397" y="761" type="curve" smooth="yes"/>
      <point x="486" y="761"/>
      <point x="538" y="822"/>
      <point x="550" y="892" type="curve"/>
      <point x="484" y="892" type="line"/>
      <point x="477" y="854"/>
      <point x="450" y="823"/>
      <point x="404" y="823" type="curve" smooth="yes"/>
      <point x="358" y="823"/>
      <point x="337" y="854"/>
      <point x="342" y="892" type="curve"/>
    </contour>
  </outline>
</glyph>
<glyph name="brokenbar.uc" format="2">
  <advance width="350"/>
  <outline>
    <contour>
      <point x="222" y="745" type="line"/>
      <point x="160" y="392" type="line"/>
      <point x="243" y="392" type="line"/>
      <point x="305" y="745" type="line"/>
    </contour>
    <contour>
      <point x="138" y="270" type="line"/>
      <point x="76" y="-83" type="line"/>
      <point x="159" y="-83" type="line"/>
      <point x="221" y="270" type="line"/>
    </contour>
  </outline>
</glyph>
<glyph name="caroncmb.ucalt" format="2">
  <advance width="600"/>
  <outline>
    <contour>
      <point x="361" y="700" type="line"/>
      <point x="314" y="472" type="line"/>
      <point x="379" y="472" type="line"/>
      <point x="450" y="700" type="line"/>
    </contour>
  </outline>
</glyph>
<glyph name="colon.tab" format="2">
  <advance width="600"/>
  <outline>
    <contour>
      <point x="219" y="149" type="line"/>
      <point x="193" y="0" type="line"/>
      <point x="319" y="0" type="line"/>
      <point x="345" y="149" type="line"/>
    </contour>
    <contour>
      <point x="279" y="490" type="line"/>
      <point x="253" y="341" type="line"/>
      <point x="379" y="341" type="line"/>
      <point x="405" y="490" type="line"/>
    </contour>
  </outline>
</glyph>
<glyph name="comma.tab" format="2">
  <advance width="600"/>
  <outline>
    <contour>
      <point x="219" y="149" type="line"/>
      <point x="193" y="0" type="line"/>
      <point x="256" y="0" type="line"/>
      <point x="254" y="-12" type="line" smooth="yes"/>
      <point x="245" y="-67"/>
      <point x="211" y="-90"/>
      <point x="156" y="-90" type="curve"/>
      <point x="146" y="-146" type="line"/>
      <point x="265" y="-146"/>
      <point x="306" y="-73"/>
      <point x="317" y="-12" type="curve" smooth="yes"/>
      <point x="345" y="149" type="line"/>
    </contour>
  </outline>
</glyph>
<glyph name="dieresiscmb.uc" format="2">
  <advance width="600"/>
  <outline>
    <contour>
      <point x="261" y="878" type="line"/>
      <point x="242" y="771" type="line"/>
      <point x="342" y="771" type="line"/>
      <point x="361" y="878" type="line"/>
    </contour>
    <contour>
      <point x="460" y="878" type="line"/>
      <point x="441" y="771" type="line"/>
      <point x="541" y="771" type="line"/>
      <point x="560" y="878" type="line"/>
    </contour>
  </outline>
</glyph>
<glyph name="divide.tab" format="2">
  <advance width="600"/>
  <outline>
    <contour>
      <point x="538" y="302" type="line"/>
      <point x="552" y="378" type="line"/>
      <point x="96" y="378" type="line"/>
      <point x="82" y="302" type="line"/>
    </contour>
    <contour>
      <point x="238" y="205" type="line"/>
      <point x="220" y="99" type="line"/>
      <point x="329" y="99" type="line"/>
      <point x="347" y="205" type="line"/>
    </contour>
    <contour>
      <point x="304" y="581" type="line"/>
      <point x="286" y="475" type="line"/>
      <point x="395" y="475" type="line"/>
      <point x="413" y="581" type="line"/>
    </contour>
  </outline>
</glyph>
<glyph name="dotaccentcmb.uc" format="2">
  <advance width="600"/>
  <outline>
    <contour>
      <point x="361" y="878" type="line"/>
      <point x="342" y="771" type="line"/>
      <point x="442" y="771" type="line"/>
      <point x="461" y="878" type="line"/>
    </contour>
  </outline>
</glyph>
<glyph name="dotbelowcmb.uc" format="2">
  <advance width="600"/>
  <outline>
    <contour>
      <point x="197" y="-77" type="line"/>
      <point x="178" y="-184" type="line"/>
      <point x="278" y="-184" type="line"/>
      <point x="297" y="-77" type="line"/>
    </contour>
  </outline>
</glyph>
<glyph name="eight.den" format="2">
  <advance width="350"/>
  <outline>
    <contour>
      <point x="142" y="284" type="curve" smooth="yes"/>
      <point x="170" y="284"/>
      <point x="188" y="271"/>
      <point x="188" y="247" type="curve" smooth="yes"/>
      <point x="188" y="219"/>
      <point x="167" y="203"/>
      <point x="138" y="203" type="curve" smooth="yes"/>
      <point x="110" y="203"/>
      <point x="92" y="217"/>
      <point x="92" y="242" type="curve" smooth="yes"/>
      <point x="92" y="263"/>
      <point x="110" y="284"/>
    </contour>
    <contour>
      <point x="145" y="338" type="curve" smooth="yes"/>
      <point x="65" y="338"/>
      <point x="24" y="289"/>
      <point x="24" y="243" type="curve" smooth="yes"/>
      <point x="24" y="209"/>
      <point x="46" y="182"/>
      <point x="77" y="174" type="curve"/>
      <point x="79" y="182" type="line"/>
      <point x="27" y="172"/>
      <point x="-14" y="141"/>
      <point x="-14" y="90" type="curve" smooth="yes"/>
      <point x="-14" y="29"/>
      <point x="41" y="-5"/>
      <point x="107" y="-5" type="curve" smooth="yes"/>
      <point x="179" y="-5"/>
      <point x="241" y="40"/>
      <point x="241" y="103" type="curve" smooth="yes"/>
      <point x="241" y="147"/>
      <point x="212" y="168"/>
      <point x="178" y="178" type="curve"/>
      <point x="176" y="169" type="line"/>
      <point x="218" y="177"/>
      <point x="257" y="203"/>
      <point x="257" y="250" type="curve" smooth="yes"/>
      <point x="257" y="301"/>
      <point x="214" y="338"/>
    </contour>
    <contour>
      <point x="118" y="150" type="curve" smooth="yes"/>
      <point x="151" y="150"/>
      <point x="170" y="134"/>
      <point x="170" y="107" type="curve" smooth="yes"/>
      <point x="170" y="70"/>
      <point x="144" y="49"/>
      <point x="111" y="49" type="curve" smooth="yes"/>
      <point x="78" y="49"/>
      <point x="59" y="68"/>
      <point x="59" y="96" type="curve" smooth="yes"/>
      <point x="59" y="126"/>
      <point x="83" y="150"/>
    </contour>
  </outline>
</glyph>
<glyph name="eight.sup" format="2">
  <advance width="350"/>
  <outline>
    <contour>
      <point x="260" y="751" type="curve" smooth="yes"/>
      <point x="288" y="751"/>
      <point x="306" y="738"/>
      <point x="306" y="714" type="curve" smooth="yes"/>
      <point x="306" y="686"/>
      <point x="285" y="670"/>
      <point x="256" y="670" type="curve" smooth="yes"/>
      <point x="228" y="670"/>
      <point x="210" y="684"/>
      <point x="210" y="709" type="curve" smooth="yes"/>
      <point x="210" y="730"/>
      <point x="228" y="751"/>
    </contour>
    <contour>
      <point x="263" y="805" type="curve" smooth="yes"/>
      <point x="183" y="805"/>
      <point x="142" y="756"/>
      <point x="142" y="710" type="curve" smooth="yes"/>
      <point x="142" y="676"/>
      <point x="164" y="649"/>
      <point x="195" y="641" type="curve"/>
      <point x="197" y="649" type="line"/>
      <point x="145" y="639"/>
      <point x="104" y="608"/>
      <point x="104" y="557" type="curve" smooth="yes"/>
      <point x="104" y="496"/>
      <point x="159" y="462"/>
      <point x="225" y="462" type="curve" smooth="yes"/>
      <point x="297" y="462"/>
      <point x="359" y="507"/>
      <point x="359" y="570" type="curve" smooth="yes"/>
      <point x="359" y="614"/>
      <point x="330" y="635"/>
      <point x="296" y="645" type="curve"/>
      <point x="294" y="636" type="line"/>
      <point x="336" y="644"/>
      <point x="375" y="670"/>
      <point x="375" y="717" type="curve" smooth="yes"/>
      <point x="375" y="768"/>
      <point x="332" y="805"/>
    </contour>
    <contour>
      <point x="236" y="617" type="curve" smooth="yes"/>
      <point x="269" y="617"/>
      <point x="288" y="601"/>
      <point x="288" y="574" type="curve" smooth="yes"/>
      <point x="288" y="537"/>
      <point x="262" y="516"/>
      <point x="229" y="516" type="curve" smooth="yes"/>
      <point x="196" y="516"/>
      <point x="177" y="535"/>
      <point x="177" y="563" type="curve" smooth="yes"/>
      <point x="177" y="593"/>
      <point x="201" y="617"/>
    </contour>
  </outline>
</glyph>
<glyph name="five.den" format="2">
  <advance width="350"/>
  <outline>
    <contour>
      <point x="126" y="314" type="line"/>
      <point x="83" y="273" type="line"/>
      <point x="261" y="273" type="line"/>
      <point x="271" y="333" type="line"/>
      <point x="65" y="333" type="line"/>
      <point x="17" y="146" type="line"/>
      <point x="83" y="141" type="line"/>
      <point x="94" y="159"/>
      <point x="109" y="171"/>
      <point x="131" y="171" type="curve" smooth="yes"/>
      <point x="157" y="171"/>
      <point x="171" y="154"/>
      <point x="171" y="125" type="curve" smooth="yes"/>
      <point x="171" y="85"/>
      <point x="150" y="51"/>
      <point x="116" y="51" type="curve" smooth="yes"/>
      <point x="85" y="51"/>
      <point x="69" y="72"/>
      <point x="73" y="102" type="curve"/>
      <point x="-2" y="111" type="line"/>
      <point x="-2" y="107"/>
      <point x="-3" y="102"/>
      <point x="-3" y="98" type="curve" smooth="yes"/>
      <point x="-3" y="40"/>
      <point x="42" y="-5"/>
      <point x="115" y="-5" type="curve" smooth="yes"/>
      <point x="196" y="-5"/>
      <point x="245" y="56"/>
      <point x="245" y="131" type="curve" smooth="yes"/>
      <point x="245" y="189"/>
      <point x="209" y="226"/>
      <point x="155" y="226" type="curve" smooth="yes"/>
      <point x="110" y="226"/>
      <point x="83" y="196"/>
      <point x="67" y="166" type="curve"/>
      <point x="88" y="168" type="line"/>
    </contour>
  </outline>
</glyph>
<glyph name="four.den" format="2">
  <advance width="350"/>
  <outline>
    <contour>
      <point x="170" y="315" type="line"/>
      <point x="115" y="1" type="line"/>
      <point x="184" y="1" type="line"/>
      <point x="242" y="334" type="line"/>
      <point x="163" y="334" type="line"/>
      <point x="-17" y="136" type="line"/>
      <point x="-27" y="76" type="line"/>
      <point x="253" y="76" type="line"/>
      <point x="263" y="133" type="line"/>
      <point x="11" y="133" type="line"/>
      <point x="29" y="105" type="line"/>
      <point x="219" y="314" type="line"/>
    </contour>
  </outline>
</glyph>
<glyph name="four.sub" format="2">
  <advance width="350"/>
  <outline>
    <contour>
      <point x="143" y="-42" type="line"/>
      <point x="212" y="-42" type="line"/>
      <point x="270" y="291" type="line"/>
      <point x="191" y="291" type="line"/>
      <point x="11" y="93" type="line"/>
      <point x="1" y="33" type="line"/>
      <point x="281" y="33" type="line"/>
      <point x="291" y="90" type="line"/>
      <point x="39" y="90" type="line"/>
      <point x="57" y="62" type="line"/>
      <point x="247" y="271" type="line"/>
      <point x="198" y="272" type="line"/>
    </contour>
  </outline>
</glyph>
<glyph name="four.tab" format="2">
  <advance width="600"/>
  <outline>
    <contour>
      <point x="527" y="700" type="line"/>
      <point x="429" y="700" type="line"/>
      <point x="30" y="261" type="line"/>
      <point x="17" y="183" type="line"/>
      <point x="557" y="183" type="line"/>
      <point x="570" y="260" type="line"/>
      <point x="58" y="260" type="line"/>
      <point x="67" y="196" type="line"/>
      <point x="489" y="661" type="line"/>
      <point x="431" y="661" type="line"/>
      <point x="314" y="0" type="line"/>
      <point x="403" y="0" type="line"/>
    </contour>
  </outline>
</glyph>
<glyph name="greater.tab" format="2">
  <advance width="600"/>
  <outline>
    <contour>
      <point x="536" y="297" type="line"/>
      <point x="552" y="383" type="line"/>
      <point x="135" y="604" type="line"/>
      <point x="121" y="522" type="line"/>
      <point x="481" y="332" type="line"/>
      <point x="486" y="361" type="line"/>
      <point x="59" y="171" type="line"/>
      <point x="41" y="76" type="line"/>
    </contour>
  </outline>
</glyph>
<glyph name="lessequal.tab" format="2">
  <advance width="600"/>
  <outline>
    <contour>
      <point x="484" y="0" type="line"/>
      <point x="498" y="76" type="line"/>
      <point x="42" y="76" type="line"/>
      <point x="28" y="0" type="line"/>
    </contour>
    <contour>
      <point x="104" y="428" type="line"/>
      <point x="89" y="342" type="line"/>
      <point x="511" y="151" type="line"/>
      <point x="525" y="230" type="line"/>
      <point x="160" y="394" type="line"/>
      <point x="155" y="365" type="line"/>
      <point x="578" y="529" type="line"/>
      <point x="593" y="619" type="line"/>
    </contour>
  </outline>
</glyph>
<glyph name="minus.sub" format="2">
  <advance width="350"/>
  <outline>
    <contour>
      <point x="22" y="96" type="line"/>
      <point x="276" y="96" type="line"/>
      <point x="286" y="152" type="line"/>
      <point x="32" y="152" type="line"/>
    </contour>
  </outline>
</glyph>
<glyph name="newsheqel.tab" format="2">
  <advance width="600"/>
  <outline>
    <contour>
      <point x="319" y="700" type="line" smooth="yes"/>
      <point x="448" y="700"/>
      <point x="483" y="640"/>
      <point x="464" y="530" type="curve" smooth="yes"/>
      <point x="403" y="184" type="line"/>
      <point x="324" y="184" type="line"/>
      <point x="384" y="528" type="line" smooth="yes"/>
      <point x="395" y="590"/>
      <point x="377" y="625"/>
      <point x="302" y="625" type="curve" smooth="yes"/>
      <point x="182" y="625" type="line"/>
      <point x="72" y="0" type="line"/>
      <point x="-9" y="0" type="line"/>
      <point x="115" y="700" type="line"/>
    </contour>
    <contour>
      <point x="321" y="0" type="line" smooth="yes"/>
      <point x="196" y="0"/>
      <point x="154" y="62"/>
      <point x="174" y="177" type="curve" smooth="yes"/>
      <point x="233" y="516" type="line"/>
      <point x="312" y="516" type="line"/>
      <point x="253" y="178" type="line" smooth="yes"/>
      <point x="241" y="110"/>
      <point x="260" y="75"/>
      <point x="337" y="75" type="curve" smooth="yes"/>
      <point x="454" y="75" type="line"/>
      <point x="564" y="700" type="line"/>
      <point x="645" y="700" type="line"/>
      <point x="521" y="0" type="line"/>
    </contour>
  </outline>
</glyph>
<glyph name="nine.den" format="2">
  <advance width="350"/>
  <outline>
    <contour>
      <point x="144" y="338" type="curve" smooth="yes"/>
      <point x="73" y="338"/>
      <point x="15" y="288"/>
      <point x="15" y="206" type="curve" smooth="yes"/>
      <point x="15" y="142"/>
      <point x="60" y="112"/>
      <point x="111" y="112" type="curve" smooth="yes"/>
      <point x="159" y="112"/>
      <point x="189" y="139"/>
      <point x="206" y="189" type="curve"/>
      <point x="186" y="189" type="line"/>
      <point x="180" y="158" type="line" smooth="yes"/>
      <point x="170" y="98"/>
      <point x="153" y="50"/>
      <point x="111" y="50" type="curve" smooth="yes"/>
      <point x="84" y="50"/>
      <point x="69" y="64"/>
      <point x="70" y="90" type="curve"/>
      <point x="-5" y="101" type="line"/>
      <point x="-6" y="97"/>
      <point x="-6" y="93"/>
      <point x="-6" y="89" type="curve" smooth="yes"/>
      <point x="-6" y="39"/>
      <point x="34" y="-5"/>
      <point x="104" y="-5" type="curve" smooth="yes"/>
      <point x="201" y="-5"/>
      <point x="240" y="82"/>
      <point x="253" y="155" type="curve" smooth="yes"/>
      <point x="256" y="178"/>
      <point x="258" y="199"/>
      <point x="258" y="216" type="curve" smooth="yes"/>
      <point x="258" y="290"/>
      <point x="221" y="338"/>
    </contour>
    <contour>
      <point x="146" y="282" type="curve" smooth="yes"/>
      <point x="170" y="282"/>
      <point x="189" y="267"/>
      <point x="189" y="237" type="curve" smooth="yes"/>
      <point x="189" y="194"/>
      <point x="163" y="166"/>
      <point x="131" y="166" type="curve" smooth="yes"/>
      <point x="107" y="166"/>
      <point x="87" y="181"/>
      <point x="87" y="211" type="curve" smooth="yes"/>
      <point x="87" y="241"/>
      <point x="105" y="282"/>
    </contour>
  </outline>
</glyph>
<glyph name="nine.sub" format="2">
  <advance width="350"/>
  <outline>
    <contour>
      <point x="172" y="295" type="curve" smooth="yes"/>
      <point x="101" y="295"/>
      <point x="43" y="245"/>
      <point x="43" y="163" type="curve" smooth="yes"/>
      <point x="43" y="99"/>
      <point x="88" y="69"/>
      <point x="139" y="69" type="curve" smooth="yes"/>
      <point x="187" y="69"/>
      <point x="217" y="96"/>
      <point x="234" y="146" type="curve"/>
      <point x="214" y="146" type="line"/>
      <point x="208" y="115" type="line" smooth="yes"/>
      <point x="198" y="55"/>
      <point x="181" y="7"/>
      <point x="139" y="7" type="curve" smooth="yes"/>
      <point x="112" y="7"/>
      <point x="97" y="21"/>
      <point x="98" y="47" type="curve"/>
      <point x="23" y="58" type="line"/>
      <point x="22" y="54"/>
      <point x="22" y="50"/>
      <point x="22" y="46" type="curve" smooth="yes"/>
      <point x="22" y="-4"/>
      <point x="62" y="-48"/>
      <point x="132" y="-48" type="curve" smooth="yes"/>
      <point x="229" y="-48"/>
      <point x="268" y="39"/>
      <point x="281" y="112" type="curve" smooth="yes"/>
      <point x="284" y="135"/>
      <point x="286" y="156"/>
      <point x="286" y="173" type="curve" smooth="yes"/>
      <point x="286" y="247"/>
      <point x="249" y="295"/>
    </contour>
    <contour>
      <point x="174" y="239" type="curve" smooth="yes"/>
      <point x="198" y="239"/>
      <point x="217" y="224"/>
      <point x="217" y="194" type="curve" smooth="yes"/>
      <point x="217" y="151"/>
      <point x="191" y="123"/>
      <point x="159" y="123" type="curve" smooth="yes"/>
      <point x="135" y="123"/>
      <point x="115" y="138"/>
      <point x="115" y="168" type="curve" smooth="yes"/>
      <point x="115" y="198"/>
      <point x="133" y="239"/>
    </contour>
  </outline>
</glyph>
<glyph name="nine.sup" format="2">
  <advance width="350"/>
  <outline>
    <contour>
      <point x="262" y="805" type="curve" smooth="yes"/>
      <point x="191" y="805"/>
      <point x="133" y="755"/>
      <point x="133" y="673" type="curve" smooth="yes"/>
      <point x="133" y="609"/>
      <point x="178" y="579"/>
      <point x="229" y="579" type="curve" smooth="yes"/>
      <point x="277" y="579"/>
      <point x="307" y="606"/>
      <point x="324" y="656" type="curve"/>
      <point x="304" y="656" type="line"/>
      <point x="298" y="625" type="line" smooth="yes"/>
      <point x="288" y="565"/>
      <point x="271" y="517"/>
      <point x="229" y="517" type="curve" smooth="yes"/>
      <point x="202" y="517"/>
      <point x="187" y="531"/>
      <point x="188" y="557" type="curve"/>
      <point x="113" y="568" type="line"/>
      <point x="112" y="564"/>
      <point x="112" y="560"/>
      <point x="112" y="556" type="curve" smooth="yes"/>
      <point x="112" y="506"/>
      <point x="152" y="462"/>
      <point x="222" y="462" type="curve" smooth="yes"/>
      <point x="319" y="462"/>
      <point x="358" y="549"/>
      <point x="371" y="622" type="curve" smooth="yes"/>
      <point x="374" y="645"/>
      <point x="376" y="666"/>
      <point x="376" y="683" type="curve" smooth="yes"/>
      <point x="376" y="757"/>
      <point x="339" y="805"/>
    </contour>
    <contour>
      <point x="264" y="749" type="curve" smooth="yes"/>
      <point x="288" y="749"/>
      <point x="307" y="734"/>
      <point x="307" y="704" type="curve" smooth="yes"/>
      <point x="307" y="661"/>
      <point x="281" y="633"/>
      <point x="249" y="633" type="curve" smooth="yes"/>
      <point x="225" y="633"/>
      <point x="205" y="648"/>
      <point x="205" y="678" type="curve" smooth="yes"/>
      <point x="205" y="708"/>
      <point x="223" y="749"/>
    </contour>
  </outline>
</glyph>
<glyph name="nine.tab" format="2">
  <advance width="600"/>
  <outline>
    <contour>
      <point x="570" y="485" type="curve" smooth="yes"/>
      <point x="570" y="635"/>
      <point x="486" y="712"/>
      <point x="363" y="712" type="curve" smooth="yes"/>
      <point x="174" y="712"/>
      <point x="92" y="562"/>
      <point x="92" y="429" type="curve" smooth="yes"/>
      <point x="92" y="309"/>
      <point x="170" y="234"/>
      <point x="278" y="234" type="curve" smooth="yes"/>
      <point x="369" y="234"/>
      <point x="462" y="289"/>
      <point x="495" y="390" type="curve"/>
      <point x="470" y="391" type="line"/>
      <point x="459" y="327" type="line" smooth="yes"/>
      <point x="432" y="170"/>
      <point x="364" y="63"/>
      <point x="248" y="63" type="curve" smooth="yes"/>
      <point x="177" y="63"/>
      <point x="131" y="102"/>
      <point x="135" y="170" type="curve"/>
      <point x="46" y="190" type="line"/>
      <point x="45" y="181"/>
      <point x="44" y="172"/>
      <point x="44" y="163" type="curve" smooth="yes"/>
      <point x="44" y="67"/>
      <point x="104" y="-12"/>
      <point x="239" y="-12" type="curve" smooth="yes"/>
      <point x="407" y="-12"/>
      <point x="514" y="115"/>
      <point x="556" y="355" type="curve" smooth="yes"/>
      <point x="565" y="406"/>
      <point x="570" y="449"/>
    </contour>
    <contour>
      <point x="482" y="502" type="curve" smooth="yes"/>
      <point x="482" y="407"/>
      <point x="415" y="308"/>
      <point x="310" y="308" type="curve" smooth="yes"/>
      <point x="231" y="308"/>
      <point x="183" y="362"/>
      <point x="183" y="443" type="curve" smooth="yes"/>
      <point x="183" y="538"/>
      <point x="247" y="636"/>
      <point x="353" y="636" type="curve" smooth="yes"/>
      <point x="429" y="636"/>
      <point x="482" y="583"/>
    </contour>
  </outline>
</glyph>
<glyph name="one.den" format="2">
  <advance width="350"/>
  <outline>
    <contour>
      <point x="122" y="333" type="line"/>
      <point x="112" y="275"/>
      <point x="93" y="257"/>
      <point x="18" y="257" type="curve"/>
      <point x="8" y="204" type="line"/>
      <point x="134" y="204" type="line"/>
      <point x="100" y="249" type="line"/>
      <point x="57" y="0" type="line"/>
      <point x="129" y="0" type="line"/>
      <point x="187" y="333" type="line"/>
    </contour>
  </outline>
</glyph>
<glyph name="one.num" format="2">
  <advance width="350"/>
  <outline>
    <contour>
      <point x="187" y="700" type="line"/>
      <point x="177" y="642"/>
      <point x="158" y="624"/>
      <point x="83" y="624" type="curve"/>
      <point x="73" y="571" type="line"/>
      <point x="199" y="571" type="line"/>
      <point x="165" y="616" type="line"/>
      <point x="122" y="367" type="line"/>
      <point x="194" y="367" type="line"/>
      <point x="252" y="700" type="line"/>
    </contour>
  </outline>
</glyph>
<glyph name="one.sub" format="2">
  <advance width="350"/>
  <outline>
    <contour>
      <point x="150" y="290" type="line"/>
      <point x="140" y="232"/>
      <point x="121" y="214"/>
      <point x="46" y="214" type="curve"/>
      <point x="36" y="161" type="line"/>
      <point x="162" y="161" type="line"/>
      <point x="128" y="206" type="line"/>
      <point x="85" y="-43" type="line"/>
      <point x="157" y="-43" type="line"/>
      <point x="215" y="290" type="line"/>
    </contour>
  </outline>
</glyph>
<glyph name="period.tab" format="2">
  <advance width="600"/>
  <outline>
    <contour>
      <point x="219" y="149" type="line"/>
      <point x="193" y="0" type="line"/>
      <point x="319" y="0" type="line"/>
      <point x="345" y="149" type="line"/>
    </contour>
  </outline>
</glyph>
<glyph name="ringcmb.uc" format="2">
  <advance width="600"/>
  <outline>
    <contour>
      <point x="449" y="860" type="curve" smooth="yes"/>
      <point x="449" y="832"/>
      <point x="428" y="802"/>
      <point x="394" y="802" type="curve" smooth="yes"/>
      <point x="368" y="802"/>
      <point x="353" y="819"/>
      <point x="353" y="842" type="curve" smooth="yes"/>
      <point x="353" y="870"/>
      <point x="374" y="900"/>
      <point x="408" y="900" type="curve" smooth="yes"/>
      <point x="434" y="900"/>
      <point x="449" y="883"/>
    </contour>
    <contour>
      <point x="300" y="839" type="curve" smooth="yes"/>
      <point x="300" y="789"/>
      <point x="336" y="753"/>
      <point x="389" y="753" type="curve" smooth="yes"/>
      <point x="450" y="753"/>
      <point x="502" y="798"/>
      <point x="502" y="863" type="curve" smooth="yes"/>
      <point x="502" y="913"/>
      <point x="467" y="949"/>
      <point x="413" y="949" type="curve" smooth="yes"/>
      <point x="352" y="949"/>
      <point x="300" y="904"/>
    </contour>
  </outline>
</glyph>
<glyph name="seven.den" format="2">
  <advance width="350"/>
  <outline>
    <contour>
      <point x="46" y="333" type="line"/>
      <point x="24" y="207" type="line"/>
      <point x="92" y="207" type="line"/>
      <point x="109" y="303" type="line"/>
      <point x="79" y="273" type="line"/>
      <point x="251" y="273" type="line"/>
      <point x="235" y="311" type="line"/>
      <point x="154" y="214"/>
      <point x="71" y="113"/>
      <point x="47" y="0" type="curve"/>
      <point x="125" y="0" type="line"/>
      <point x="151" y="111"/>
      <point x="219" y="202"/>
      <point x="289" y="294" type="curve"/>
      <point x="296" y="333" type="line"/>
    </contour>
  </outline>
</glyph>
<glyph name="six.den" format="2">
  <advance width="350"/>
  <outline>
    <contour>
      <point x="-7" y="118" type="curve" smooth="yes"/>
      <point x="-7" y="44"/>
      <point x="29" y="-5"/>
      <point x="105" y="-5" type="curve" smooth="yes"/>
      <point x="182" y="-5"/>
      <point x="235" y="59"/>
      <point x="235" y="133" type="curve" smooth="yes"/>
      <point x="235" y="194"/>
      <point x="196" y="221"/>
      <point x="145" y="221" type="curve" smooth="yes"/>
      <point x="98" y="221"/>
      <point x="62" y="189"/>
      <point x="44" y="145" type="curve"/>
      <point x="64" y="149" type="line"/>
      <point x="69" y="178" type="line" smooth="yes"/>
      <point x="81" y="247"/>
      <point x="120" y="279"/>
      <point x="153" y="279" type="curve" smooth="yes"/>
      <point x="174" y="279"/>
      <point x="185" y="264"/>
      <point x="182" y="243" type="curve"/>
      <point x="251" y="235" type="line"/>
      <point x="252" y="242"/>
      <point x="253" y="249"/>
      <point x="253" y="255" type="curve" smooth="yes"/>
      <point x="253" y="304"/>
      <point x="223" y="338"/>
      <point x="164" y="338" type="curve" smooth="yes"/>
      <point x="81" y="338"/>
      <point x="14" y="267"/>
      <point x="-1" y="182" type="curve" smooth="yes"/>
      <point x="-5" y="159"/>
      <point x="-7" y="137"/>
    </contour>
    <contour>
      <point x="62" y="96" type="curve" smooth="yes"/>
      <point x="62" y="126"/>
      <point x="79" y="167"/>
      <point x="120" y="167" type="curve" smooth="yes"/>
      <point x="147" y="167"/>
      <point x="163" y="150"/>
      <point x="163" y="121" type="curve" smooth="yes"/>
      <point x="163" y="90"/>
      <point x="143" y="50"/>
      <point x="104" y="50" type="curve" smooth="yes"/>
      <point x="77" y="50"/>
      <point x="62" y="67"/>
    </contour>
  </outline>
</glyph>
<glyph name="six.num" format="2">
  <advance width="350"/>
  <outline>
    <contour>
      <point x="58" y="485" type="curve" smooth="yes"/>
      <point x="58" y="411"/>
      <point x="94" y="362"/>
      <point x="170" y="362" type="curve" smooth="yes"/>
      <point x="247" y="362"/>
      <point x="300" y="426"/>
      <point x="300" y="500" type="curve" smooth="yes"/>
      <point x="300" y="561"/>
      <point x="261" y="588"/>
      <point x="210" y="588" type="curve" smooth="yes"/>
      <point x="163" y="588"/>
      <point x="127" y="556"/>
      <point x="109" y="512" type="curve"/>
      <point x="129" y="516" type="line"/>
      <point x="134" y="545" type="line" smooth="yes"/>
      <point x="146" y="614"/>
      <point x="185" y="646"/>
      <point x="218" y="646" type="curve" smooth="yes"/>
      <point x="239" y="646"/>
      <point x="250" y="631"/>
      <point x="247" y="610" type="curve"/>
      <point x="316" y="602" type="line"/>
      <point x="317" y="609"/>
      <point x="318" y="616"/>
      <point x="318" y="622" type="curve" smooth="yes"/>
      <point x="318" y="671"/>
      <point x="288" y="705"/>
      <point x="229" y="705" type="curve" smooth="yes"/>
      <point x="146" y="705"/>
      <point x="79" y="634"/>
      <point x="64" y="549" type="curve" smooth="yes"/>
      <point x="60" y="526"/>
      <point x="58" y="504"/>
    </contour>
    <contour>
      <point x="127" y="463" type="curve" smooth="yes"/>
      <point x="127" y="493"/>
      <point x="144" y="534"/>
      <point x="185" y="534" type="curve" smooth="yes"/>
      <point x="212" y="534"/>
      <point x="228" y="517"/>
      <point x="228" y="488" type="curve" smooth="yes"/>
      <point x="228" y="457"/>
      <point x="208" y="417"/>
      <point x="169" y="417" type="curve" smooth="yes"/>
      <point x="142" y="417"/>
      <point x="127" y="434"/>
    </contour>
  </outline>
</glyph>
<glyph name="three.den" format="2">
  <advance width="350"/>
  <outline>
    <contour>
      <point x="-12" y="114" type="line"/>
      <point x="-14" y="106"/>
      <point x="-15" y="98"/>
      <point x="-15" y="90" type="curve" smooth="yes"/>
      <point x="-15" y="35"/>
      <point x="35" y="-4"/>
      <point x="103" y="-4" type="curve" smooth="yes"/>
      <point x="187" y="-4"/>
      <point x="237" y="49"/>
      <point x="237" y="106" type="curve" smooth="yes"/>
      <point x="237" y="143"/>
      <point x="214" y="163"/>
      <point x="183" y="172" type="curve"/>
      <point x="182" y="168" type="line"/>
      <point x="215" y="176"/>
      <point x="255" y="203"/>
      <point x="255" y="254" type="curve" smooth="yes"/>
      <point x="255" y="304"/>
      <point x="216" y="339"/>
      <point x="146" y="339" type="curve" smooth="yes"/>
      <point x="67" y="339"/>
      <point x="19" y="300"/>
      <point x="13" y="231" type="curve"/>
      <point x="85" y="235" type="line"/>
      <point x="89" y="269"/>
      <point x="111" y="282"/>
      <point x="140" y="282" type="curve" smooth="yes"/>
      <point x="165" y="282"/>
      <point x="183" y="269"/>
      <point x="183" y="247" type="curve" smooth="yes"/>
      <point x="183" y="225"/>
      <point x="167" y="200"/>
      <point x="129" y="200" type="curve" smooth="yes"/>
      <point x="103" y="200" type="line"/>
      <point x="93" y="145" type="line"/>
      <point x="119" y="145" type="line" smooth="yes"/>
      <point x="151" y="145"/>
      <point x="166" y="129"/>
      <point x="166" y="107" type="curve" smooth="yes"/>
      <point x="166" y="73"/>
      <point x="142" y="53"/>
      <point x="110" y="53" type="curve" smooth="yes"/>
      <point x="81" y="53"/>
      <point x="59" y="74"/>
      <point x="59" y="101" type="curve" smooth="yes"/>
      <point x="59" y="104"/>
      <point x="60" y="106"/>
      <point x="60" y="109" type="curve"/>
    </contour>
  </outline>
</glyph>
<glyph name="three.num" format="2">
  <advance width="350"/>
  <outline>
    <contour>
      <point x="53" y="481" type="line"/>
      <point x="51" y="473"/>
      <point x="50" y="465"/>
      <point x="50" y="457" type="curve" smooth="yes"/>
      <point x="50" y="402"/>
      <point x="100" y="363"/>
      <point x="168" y="363" type="curve" smooth="yes"/>
      <point x="252" y="363"/>
      <point x="302" y="416"/>
      <point x="302" y="473" type="curve" smooth="yes"/>
      <point x="302" y="510"/>
      <point x="279" y="530"/>
      <point x="248" y="539" type="curve"/>
      <point x="247" y="535" type="line"/>
      <point x="280" y="543"/>
      <point x="320" y="570"/>
      <point x="320" y="621" type="curve" smooth="yes"/>
      <point x="320" y="671"/>
      <point x="281" y="706"/>
      <point x="211" y="706" type="curve" smooth="yes"/>
      <point x="132" y="706"/>
      <point x="84" y="667"/>
      <point x="78" y="598" type="curve"/>
      <point x="150" y="602" type="line"/>
      <point x="154" y="636"/>
      <point x="176" y="649"/>
      <point x="205" y="649" type="curve" smooth="yes"/>
      <point x="230" y="649"/>
      <point x="248" y="636"/>
      <point x="248" y="614" type="curve" smooth="yes"/>
      <point x="248" y="592"/>
      <point x="232" y="567"/>
      <point x="194" y="567" type="curve" smooth="yes"/>
      <point x="168" y="567" type="line"/>
      <point x="158" y="512" type="line"/>
      <point x="184" y="512" type="line" smooth="yes"/>
      <point x="216" y="512"/>
      <point x="231" y="496"/>
      <point x="231" y="474" type="curve" smooth="yes"/>
      <point x="231" y="440"/>
      <point x="207" y="420"/>
      <point x="175" y="420" type="curve" smooth="yes"/>
      <point x="146" y="420"/>
      <point x="124" y="441"/>
      <point x="124" y="468" type="curve" smooth="yes"/>
      <point x="124" y="471"/>
      <point x="125" y="473"/>
      <point x="125" y="476" type="curve"/>
    </contour>
  </outline>
</glyph>
<glyph name="three.sub" format="2">
  <advance width="350"/>
  <outline>
    <contour>
      <point x="16" y="71" type="line"/>
      <point x="14" y="63"/>
      <point x="13" y="55"/>
      <point x="13" y="47" type="curve" smooth="yes"/>
      <point x="13" y="-8"/>
      <point x="63" y="-47"/>
      <point x="131" y="-47" type="curve" smooth="yes"/>
      <point x="215" y="-47"/>
      <point x="265" y="6"/>
      <point x="265" y="63" type="curve" smooth="yes"/>
      <point x="265" y="100"/>
      <point x="242" y="120"/>
      <point x="211" y="129" type="curve"/>
      <point x="210" y="125" type="line"/>
      <point x="243" y="133"/>
      <point x="283" y="160"/>
      <point x="283" y="211" type="curve" smooth="yes"/>
      <point x="283" y="261"/>
      <point x="244" y="296"/>
      <point x="174" y="296" type="curve" smooth="yes"/>
      <point x="95" y="296"/>
      <point x="47" y="257"/>
      <point x="41" y="188" type="curve"/>
      <point x="113" y="192" type="line"/>
      <point x="117" y="226"/>
      <point x="139" y="239"/>
      <point x="168" y="239" type="curve" smooth="yes"/>
      <point x="193" y="239"/>
      <point x="211" y="226"/>
      <point x="211" y="204" type="curve" smooth="yes"/>
      <point x="211" y="182"/>
      <point x="195" y="157"/>
      <point x="157" y="157" type="curve" smooth="yes"/>
      <point x="131" y="157" type="line"/>
      <point x="121" y="102" type="line"/>
      <point x="147" y="102" type="line" smooth="yes"/>
      <point x="179" y="102"/>
      <point x="194" y="86"/>
      <point x="194" y="64" type="curve" smooth="yes"/>
      <point x="194" y="30"/>
      <point x="170" y="10"/>
      <point x="138" y="10" type="curve" smooth="yes"/>
      <point x="109" y="10"/>
      <point x="87" y="31"/>
      <point x="87" y="58" type="curve" smooth="yes"/>
      <point x="87" y="61"/>
      <point x="88" y="63"/>
      <point x="88" y="66" type="curve"/>
    </contour>
  </outline>
</glyph>
<glyph name="three.sup" format="2">
  <advance width="350"/>
  <outline>
    <contour>
      <point x="106" y="581" type="line"/>
      <point x="104" y="573"/>
      <point x="103" y="565"/>
      <point x="103" y="557" type="curve" smooth="yes"/>
      <point x="103" y="502"/>
      <point x="153" y="463"/>
      <point x="221" y="463" type="curve" smooth="yes"/>
      <point x="305" y="463"/>
      <point x="355" y="516"/>
      <point x="355" y="573" type="curve" smooth="yes"/>
      <point x="355" y="610"/>
      <point x="332" y="630"/>
      <point x="301" y="639" type="curve"/>
      <point x="300" y="635" type="line"/>
      <point x="333" y="643"/>
      <point x="373" y="670"/>
      <point x="373" y="721" type="curve" smooth="yes"/>
      <point x="373" y="771"/>
      <point x="334" y="806"/>
      <point x="264" y="806" type="curve" smooth="yes"/>
      <point x="185" y="806"/>
      <point x="137" y="767"/>
      <point x="131" y="698" type="curve"/>
      <point x="203" y="702" type="line"/>
      <point x="207" y="736"/>
      <point x="229" y="749"/>
      <point x="258" y="749" type="curve" smooth="yes"/>
      <point x="283" y="749"/>
      <point x="301" y="736"/>
      <point x="301" y="714" type="curve" smooth="yes"/>
      <point x="301" y="692"/>
      <point x="285" y="667"/>
      <point x="247" y="667" type="curve" smooth="yes"/>
      <point x="221" y="667" type="line"/>
      <point x="211" y="612" type="line"/>
      <point x="237" y="612" type="line" smooth="yes"/>
      <point x="269" y="612"/>
      <point x="284" y="596"/>
      <point x="284" y="574" type="curve" smooth="yes"/>
      <point x="284" y="540"/>
      <point x="260" y="520"/>
      <point x="228" y="520" type="curve" smooth="yes"/>
      <point x="199" y="520"/>
      <point x="177" y="541"/>
      <point x="177" y="568" type="curve" smooth="yes"/>
      <point x="177" y="571"/>
      <point x="178" y="573"/>
      <point x="178" y="576" type="curve"/>
    </contour>
  </outline>
</glyph>
<glyph name="two.den" format="2">
  <advance width="350"/>
  <outline>
    <contour>
      <point x="-15" y="60" type="curve"/>
      <point x="-25" y="1" type="line"/>
      <point x="213" y="1" type="line"/>
      <point x="223" y="62" type="line"/>
      <point x="29" y="62" type="line"/>
      <point x="27" y="27" type="line"/>
      <point x="165" y="104"/>
      <point x="251" y="166"/>
      <point x="251" y="242" type="curve" smooth="yes"/>
      <point x="251" y="289"/>
      <point x="215" y="339"/>
      <point x="137" y="339" type="curve" smooth="yes"/>
      <point x="46" y="339"/>
      <point x="12" y="277"/>
      <point x="12" y="228" type="curve" smooth="yes"/>
      <point x="12" y="217"/>
      <point x="14" y="207"/>
      <point x="17" y="199" type="curve"/>
      <point x="86" y="207" type="line"/>
      <point x="85" y="213"/>
      <point x="83" y="220"/>
      <point x="83" y="231" type="curve" smooth="yes"/>
      <point x="83" y="252"/>
      <point x="99" y="279"/>
      <point x="136" y="279" type="curve" smooth="yes"/>
      <point x="165" y="279"/>
      <point x="179" y="262"/>
      <point x="179" y="238" type="curve" smooth="yes"/>
      <point x="179" y="205"/>
      <point x="159" y="168"/>
    </contour>
  </outline>
</glyph>
<glyph name="two.tab" format="2">
  <advance width="600"/>
  <outline>
    <contour>
      <point x="102" y="77" type="line"/>
      <point x="97" y="29" type="line"/>
      <point x="404" y="242"/>
      <point x="575" y="359"/>
      <point x="575" y="523" type="curve" smooth="yes"/>
      <point x="575" y="626"/>
      <point x="506" y="712"/>
      <point x="371" y="712" type="curve" smooth="yes"/>
      <point x="223" y="712"/>
      <point x="118" y="606"/>
      <point x="118" y="485" type="curve" smooth="yes"/>
      <point x="118" y="465"/>
      <point x="121" y="449"/>
      <point x="128" y="428" type="curve"/>
      <point x="213" y="441" type="line"/>
      <point x="209" y="458"/>
      <point x="206" y="472"/>
      <point x="206" y="486" type="curve" smooth="yes"/>
      <point x="206" y="555"/>
      <point x="252" y="633"/>
      <point x="359" y="633" type="curve" smooth="yes"/>
      <point x="442" y="633"/>
      <point x="483" y="583"/>
      <point x="483" y="515" type="curve" smooth="yes"/>
      <point x="483" y="382"/>
      <point x="351" y="304"/>
      <point x="39" y="75" type="curve"/>
      <point x="26" y="0" type="line"/>
      <point x="491" y="0" type="line"/>
      <point x="505" y="77" type="line"/>
    </contour>
  </outline>
</glyph>
<glyph name="zero.den" format="2">
  <advance width="350"/>
  <outline>
    <contour>
      <point x="186" y="216" type="curve" smooth="yes"/>
      <point x="186" y="141"/>
      <point x="160" y="56"/>
      <point x="109" y="56" type="curve" smooth="yes"/>
      <point x="79" y="56"/>
      <point x="66" y="75"/>
      <point x="66" y="117" type="curve" smooth="yes"/>
      <point x="66" y="192"/>
      <point x="91" y="277"/>
      <point x="142" y="277" type="curve" smooth="yes"/>
      <point x="172" y="277"/>
      <point x="186" y="258"/>
    </contour>
    <contour>
      <point x="-6" y="126" type="curve" smooth="yes"/>
      <point x="-6" y="45"/>
      <point x="36" y="-5"/>
      <point x="104" y="-5" type="curve" smooth="yes"/>
      <point x="200" y="-5"/>
      <point x="257" y="97"/>
      <point x="257" y="207" type="curve" smooth="yes"/>
      <point x="257" y="288"/>
      <point x="215" y="338"/>
      <point x="147" y="338" type="curve" smooth="yes"/>
      <point x="51" y="338"/>
      <point x="-6" y="236"/>
    </contour>
  </outline>
</glyph>
<glyph name="zero.sub" format="2">
  <advance width="350"/>
  <outline>
    <contour>
      <point x="214" y="173" type="curve" smooth="yes"/>
      <point x="214" y="98"/>
      <point x="188" y="13"/>
      <point x="137" y="13" type="curve" smooth="yes"/>
      <point x="107" y="13"/>
      <point x="94" y="32"/>
      <point x="94" y="74" type="curve" smooth="yes"/>
      <point x="94" y="149"/>
      <point x="119" y="234"/>
      <point x="170" y="234" type="curve" smooth="yes"/>
      <point x="200" y="234"/>
      <point x="214" y="215"/>
    </contour>
    <contour>
      <point x="22" y="83" type="curve" smooth="yes"/>
      <point x="22" y="2"/>
      <point x="64" y="-48"/>
      <point x="132" y="-48" type="curve" smooth="yes"/>
      <point x="228" y="-48"/>
      <point x="285" y="54"/>
      <point x="285" y="164" type="curve" smooth="yes"/>
      <point x="285" y="245"/>
      <point x="243" y="295"/>
      <point x="175" y="295" type="curve" smooth="yes"/>
      <point x="79" y="295"/>
      <point x="22" y="193"/>
    </contour>
  </outline>
</glyph>
<glyph name="zero.sup" format="2">
  <advance width="350"/>
  <outline>
    <contour>
      <point x="304" y="683" type="curve" smooth="yes"/>
      <point x="304" y="608"/>
      <point x="278" y="523"/>
      <point x="227" y="523" type="curve" smooth="yes"/>
      <point x="197" y="523"/>
      <point x="184" y="542"/>
      <point x="184" y="584" type="curve" smooth="yes"/>
      <point x="184" y="659"/>
      <point x="209" y="744"/>
      <point x="260" y="744" type="curve" smooth="yes"/>
      <point x="290" y="744"/>
      <point x="304" y="725"/>
    </contour>
    <contour>
      <point x="112" y="593" type="curve" smooth="yes"/>
      <point x="112" y="512"/>
      <point x="154" y="462"/>
      <point x="222" y="462" type="curve" smooth="yes"/>
      <point x="318" y="462"/>
      <point x="375" y="564"/>
      <point x="375" y="674" type="curve" smooth="yes"/>
      <point x="375" y="755"/>
      <point x="333" y="805"/>
      <point x="265" y="805" type="curve" smooth="yes"/>
      <point x="169" y="805"/>
      <point x="112" y="703"/>
    </contour>
  </outline>
</glyph>
